<?xml version="1.0" standalone="no"?><!DOCTYPE svg PUBLIC "-//W3C//DTD SVG 1.1//EN" "http://www.w3.org/Graphics/SVG/1.1/DTD/svg11.dtd"><svg width="100%" height="100%" viewBox="0 0 910 380" version="1.1" xmlns="http://www.w3.org/2000/svg" xmlns:xlink="http://www.w3.org/1999/xlink" xml:space="preserve" style="fill-rule:evenodd;clip-rule:evenodd;stroke-linecap:round;stroke-linejoin:round;stroke-miterlimit:1;"><g id="Layer1"><path id="Lower Body" d="M21.584,249.913c-2.203,11 0.561,31.734 2.4,32.418c21.939,8.154 45.741,6.341 58.703,-0.86c1.529,-0.85 3.775,-14.17 2.467,-31.986c-20.459,7.658 -40.05,7.714 -63.57,0.428Z" style="fill:url(#_Radial1);stroke-width:2.33px;stroke:#000;"/><path id="Upper Body" d="M29.666,190.553c-2.433,-0.873 -20.333,4.415 -21.393,9.154c-2.349,10.495 -1.541,42.2 3.62,45.34c14.512,8.829 49.873,16.822 79.002,1.385c1.605,-0.851 5.881,-23.959 3.114,-47.605c-0.342,-2.923 -25.567,-10.158 -27.596,-8.827l-36.747,0.553Z" style="fill:url(#_Radial2);stroke-width:2.33px;stroke:#000;"/><path id="Face" d="M80.304,141.159c-2.813,3.79 -57.557,1.64 -58.336,2.622c-2.16,2.719 -10.514,53.043 27.219,54.135c44.114,1.276 32.485,-58.598 31.117,-56.757Z" style="fill:url(#_Linear3);stroke-width:2.33px;stroke:#000;"/><path id="Cowboy Hat" d="M4.387,130.723c-1.57,0.283 -0.613,12.443 23.025,19.918c31.159,9.852 67.677,-8.343 70.616,-26.925c0.132,-0.835 -1.633,-0.795 -4.438,-0.36c-5.862,0.908 -11.807,3.705 -11.833,3.011c-1.948,-51.72 -29.915,-27.399 -32.322,-27.003c-1.405,0.231 -4.746,-5.651 -11.843,-4.775c-20.45,2.523 -15.302,35.467 -15.873,35.485c-3.794,0.114 -9.152,-0.823 -17.332,0.649Z" style="fill:url(#_Radial4);stroke-width:2.33px;stroke:#000;"/><path id="Right Eye" d="M64.802,157.355c2.355,0.022 4.246,2.386 4.22,5.277c-0.027,2.89 -1.96,5.22 -4.316,5.198c-2.355,-0.021 -4.246,-2.386 -4.219,-5.276c0.026,-2.891 1.96,-5.22 4.315,-5.199Z" style="fill:#000;stroke-width:2.33px;stroke-miterlimit:1.41421;stroke:#000;"/><path id="Left Eye" d="M36.363,157.355c2.355,-0.019 4.286,2.313 4.31,5.203c0.023,2.891 -1.87,5.253 -4.226,5.272c-2.355,0.019 -4.286,-2.312 -4.31,-5.203c-0.023,-2.891 1.87,-5.253 4.226,-5.272Z" style="fill:#000;stroke-width:2.33px;stroke-miterlimit:1.41421;stroke:#000;"/><path id="Nose" d="M44.9,172.01c1.567,-1.812 5.497,-5.643 10.544,-1.003" style="fill:none;stroke-width:2.33px;stroke:#000;"/><path id="Smile" d="M33.906,184.44c0.45,-0.198 2.272,-0.96 4.057,-2.44c2.139,-1.774 3.129,-3.399 3.147,-3.385c0.02,0.014 -3.061,3.881 -3.061,3.881c0,0 5.377,3.016 12.118,2.969c6.74,-0.047 12.351,-3.504 12.255,-3.373c-1.46,2.02 -5.006,5.905 -12.255,5.905c-7.25,-0.001 -11.23,-4.962 -12.329,-5.313l-3.932,1.756Z" style="fill:#000;stroke-width:2.33px;stroke-miterlimit:1.41421;stroke:#000;"/><path id="Chest Line" d="M8.63,198.862c14.224,7.825 30.728,12.44 43.827,11.888c23.88,-1.007 36.957,-9.227 40.445,-11.733" style="fill:none;stroke-width:2.33px;stroke:#000;"/><path d="M51.74,98.107c-2.311,1.391 -5.283,3.224 -9.17,7.334" style="fill:none;stroke-width:2.33px;stroke-miterlimit:1.41421;stroke:#000;"/><path d="M98.031,123.356c-2.863,4.314 -19.315,14.173 -26.127,15.036" style="fill:none;stroke-width:2.33px;stroke-miterlimit:1.41421;stroke:#000;"/><path d="M81.738,125.445c-0.023,2.067 0.009,5.534 -0.526,8.619" style="fill:none;stroke-width:2.33px;stroke-miterlimit:1.41421;stroke:#000;"/><path d="M21.775,129.754c0,1.107 0.514,3.678 0.636,4.31" style="fill:none;stroke-width:2.33px;stroke-miterlimit:1.41421;stroke:#000;"/></g><g id="Layer11"><path d="M208.576,7.871l-60.771,-0.143l-20.521,19.088l-0.095,82.416l81.387,0l0,-101.361Z" style="fill:#fff;stroke-width:1.39px;stroke-miterlimit:1.41421;stroke:#000;"/><text x="151.526px" y="73.224px" style="font-family:Times;font-size:49.045px;fill:#000;">C</text><path d="M148.113,22.785l8.717,1.789l8.06,-5.228l7.012,4.383l7.887,-5.474l6.895,4.466l6.968,2.436l0.797,-2.936l6.376,0.564" style="fill:none;stroke-width:1.09px;stroke-miterlimit:1.41421;stroke:#000;"/><path d="M134.94,31.586l10.406,2.683l7.01,-5.169l7.163,2.906l4.164,3.669l4.895,-5.558l10.741,4.514l9.066,-6.885l6.742,5.155l5.698,-1.315" style="fill:none;stroke-width:1.09px;stroke-miterlimit:1.41421;stroke:#000;"/><path d="M134.94,80.925l8.184,-4.173l6.263,8.6l8.93,-4.098l6.682,4.409l5.651,-9.154l2.769,2.939l11.255,4.617l5.435,-4.663l5.701,-1.34l5.015,4.641" style="fill:none;stroke-width:1.09px;stroke-miterlimit:1.41421;stroke:#000;"/><path d="M134.94,91.36l8.188,3.875l5.077,-1.119l7.878,-6.171l10.927,3.975l11.738,-5.402l1.964,6.061l18.014,-3.305l2.099,2.086" style="fill:none;stroke-width:1.09px;stroke-miterlimit:1.41421;stroke:#000;"/><path d="M134.94,100.005l11.012,4.482l9.967,-6.125l6.894,3.64l7.153,-6.871l7.343,10.227l9.323,-8.941l7.612,6.895l6.581,-3.307" style="fill:none;stroke-width:1.09px;stroke-miterlimit:1.41421;stroke:#000;"/><path d="M148.286,14.308l3.027,1.937l5.068,-2.732l5.361,1.66l12.088,-3.914l12.507,6.961l7.013,-6.99l7.475,3.078" style="fill:none;stroke-width:1.09px;stroke-miterlimit:1.41421;stroke:#000;"/><path d="M148.016,7.728l0,18.992l-20.067,0" style="fill:none;stroke-width:1.39px;stroke-linecap:butt;stroke-miterlimit:1.41421;stroke:#000;"/></g><g id="Layer12"><path d="M208.576,138.818l-81.386,0.004l-0.001,101.357l81.387,0l0,-101.361Z" style="fill:#fff;stroke-width:1.39px;stroke-miterlimit:1.41421;stroke:#000;"/><text x="133.492px" y="193.921px" style="font-family:Times;font-size:19.654px;fill:#000;">ADATA</text><path d="M134.94,153.733l65.885,0" style="fill:none;stroke-width:1.09px;stroke-miterlimit:1.41421;stroke:#000;"/><path d="M134.94,162.534l65.885,0" style="fill:none;stroke-width:1.09px;stroke-miterlimit:1.41421;stroke:#000;"/><path d="M134.94,212.767l65.885,0" style="fill:none;stroke-width:1.09px;stroke-miterlimit:1.41421;stroke:#000;"/><path d="M134.94,221.754l65.885,0" style="fill:none;stroke-width:1.09px;stroke-miterlimit:1.41421;stroke:#000;"/><path d="M134.94,230.952l65.885,0" style="fill:none;stroke-width:1.09px;stroke-miterlimit:1.41421;stroke:#000;"/><path d="M134.94,145.255l65.885,0" style="fill:none;stroke-width:1.09px;stroke-miterlimit:1.41421;stroke:#000;"/></g><g id="Layer13"><path d="M904.523,138.818l-60.771,-0.143l-20.521,19.089l-0.095,82.415l81.387,0l0,-101.361Z" style="fill:#fff;stroke-width:1.39px;stroke-miterlimit:1.41421;stroke:#000;"/><text x="850.191px" y="204.172px" style="font-family:Times;font-size:49.045px;fill:#000;">P</text><path d="M844.06,153.733l52.712,0" style="fill:none;stroke-width:1.09px;stroke-miterlimit:1.41421;stroke:#000;"/><path d="M830.887,162.534l65.885,0" style="fill:none;stroke-width:1.09px;stroke-miterlimit:1.41421;stroke:#000;"/><path d="M830.887,212.767l65.885,0" style="fill:none;stroke-width:1.09px;stroke-miterlimit:1.41421;stroke:#000;"/><path d="M830.887,221.754l65.885,0" style="fill:none;stroke-width:1.09px;stroke-miterlimit:1.41421;stroke:#000;"/><path d="M830.887,230.952l65.885,0" style="fill:none;stroke-width:1.09px;stroke-miterlimit:1.41421;stroke:#000;"/><path d="M844.232,145.255l52.54,0" style="fill:none;stroke-width:1.09px;stroke-miterlimit:1.41421;stroke:#000;"/><path d="M843.963,138.675l0,18.992l-20.067,0" style="fill:none;stroke-width:1.39px;stroke-linecap:butt;stroke-miterlimit:1.41421;stroke:#000;"/></g><g id="Layer14"><path d="M208.576,266.631l-81.386,0.004l-0.001,101.357l81.387,0l0,-101.361Z" style="fill:#fff;stroke-width:1.39px;stroke-miterlimit:1.41421;stroke:#000;"/><text x="136.062px" y="325.687px" style="font-family:Times;font-size:30.966px;fill:#000;">TAG</text><path d="M134.94,281.546l65.885,0" style="fill:none;stroke-width:1.09px;stroke-miterlimit:1.41421;stroke:#000;"/><path d="M134.94,290.347l65.885,0" style="fill:none;stroke-width:1.09px;stroke-miterlimit:1.41421;stroke:#000;"/><path d="M134.94,340.58l65.885,0" style="fill:none;stroke-width:1.09px;stroke-miterlimit:1.41421;stroke:#000;"/><path d="M134.94,349.567l65.885,0" style="fill:none;stroke-width:1.09px;stroke-miterlimit:1.41421;stroke:#000;"/><path d="M134.94,358.765l65.885,0" style="fill:none;stroke-width:1.09px;stroke-miterlimit:1.41421;stroke:#000;"/><path d="M134.94,273.068l65.885,0" style="fill:none;stroke-width:1.09px;stroke-miterlimit:1.41421;stroke:#000;"/></g><g id="Layer2"><g><path d="M237.265,183.71l-0.054,13.015l59.712,-2.394l0.015,13.227l26.222,-17.716l-26.343,-17.4l0.027,13.725l-59.579,-2.457Z" style="fill:url(#_Radial5);"/><path d="M297.049,171.427l0.178,0.058l0.164,0.088l26.343,17.4l0.145,0.116l0.122,0.14l0.096,0.159l0.066,0.173l0.033,0.183l0.001,0.186l-0.032,0.183l-0.064,0.174l-0.093,0.16l-0.121,0.141l-0.144,0.117l-26.221,17.716l-0.165,0.09l-0.177,0.06l-0.186,0.027l-0.188,-0.007l-0.183,-0.041l-0.173,-0.072l-0.157,-0.103l-0.136,-0.129l-0.111,-0.151l-0.082,-0.169l-0.05,-0.18l-0.017,-0.187l-0.014,-12.144l-58.63,2.35l-0.187,-0.009l-0.181,-0.042l-0.172,-0.074l-0.155,-0.104l-0.134,-0.129l-0.109,-0.152l-0.081,-0.169l-0.049,-0.18l-0.016,-0.186l0.054,-13.015l0.018,-0.185l0.049,-0.179l0.081,-0.167l0.11,-0.15l0.134,-0.129l0.155,-0.102l0.171,-0.073l0.181,-0.042l0.186,-0.009l58.492,2.412l-0.024,-12.637l0.016,-0.186l0.049,-0.18l0.081,-0.169l0.11,-0.151l0.135,-0.129l0.156,-0.103l0.172,-0.074l0.182,-0.042l0.187,-0.008l0.185,0.025ZM296.844,186.167l-59.579,-2.457l-0.054,13.015l59.712,-2.394l0.015,13.227l26.222,-17.716l-26.343,-17.4l0.027,13.725Z" style="fill:#000;"/></g></g><g id="Layer21"><g><path d="M716.249,183.71l-0.053,13.015l59.712,-2.394l0.015,13.227l26.221,-17.716l-26.342,-17.4l0.026,13.725l-59.579,-2.457Z" style="fill:url(#_Radial6);"/><path d="M776.033,171.427l0.178,0.058l0.165,0.088l26.342,17.4l0.145,0.116l0.123,0.14l0.095,0.159l0.066,0.173l0.034,0.183l0.001,0.186l-0.032,0.183l-0.064,0.174l-0.094,0.16l-0.121,0.141l-0.144,0.117l-26.221,17.716l-0.164,0.09l-0.178,0.06l-0.186,0.027l-0.187,-0.007l-0.183,-0.041l-0.173,-0.072l-0.157,-0.103l-0.136,-0.129l-0.111,-0.151l-0.082,-0.169l-0.051,-0.18l-0.017,-0.187l-0.014,-12.144l-58.63,2.35l-0.186,-0.009l-0.182,-0.042l-0.171,-0.074l-0.156,-0.104l-0.134,-0.129l-0.109,-0.152l-0.08,-0.169l-0.049,-0.18l-0.016,-0.186l0.054,-13.015l0.017,-0.185l0.05,-0.179l0.081,-0.167l0.109,-0.15l0.135,-0.129l0.155,-0.102l0.17,-0.073l0.182,-0.042l0.185,-0.009l58.493,2.412l-0.025,-12.637l0.016,-0.186l0.05,-0.18l0.081,-0.169l0.109,-0.151l0.135,-0.129l0.156,-0.103l0.172,-0.074l0.182,-0.042l0.187,-0.008l0.185,0.025ZM775.828,186.167l-59.579,-2.457l-0.053,13.015l59.712,-2.394l0.015,13.227l26.221,-17.716l-26.342,-17.4l0.026,13.725Z" style="fill:#000;"/></g></g><g id="Layer22"><g><path d="M251.34,91.193l-6.554,11.244l52.908,27.784l-6.599,11.462l31.565,-2.232l-14.113,-28.24l-6.839,11.899l-50.368,-31.917Z" style="fill:url(#_Radial7);"/><path d="M251.425,90.155l0.165,0.027l0.159,0.053l0.148,0.078l49.45,31.335l6.297,-10.956l0.098,-0.142l0.12,-0.124l0.139,-0.102l0.154,-0.078l0.165,-0.051l0.171,-0.024l0.173,0.005l0.169,0.034l0.161,0.061l0.149,0.086l0.133,0.111l0.113,0.13l0.09,0.148l14.113,28.24l0.063,0.158l0.037,0.166l0.01,0.17l-0.019,0.169l-0.046,0.164l-0.072,0.154l-0.096,0.141l-0.118,0.123l-0.136,0.102l-0.151,0.078l-0.162,0.053l-0.168,0.026l-31.566,2.232l-0.173,-0.003l-0.171,-0.03l-0.163,-0.059l-0.15,-0.085l-0.135,-0.109l-0.115,-0.129l-0.092,-0.147l-0.066,-0.16l-0.039,-0.169l-0.011,-0.172l0.019,-0.173l0.046,-0.166l0.074,-0.157l6.059,-10.524l-51.95,-27.279l-0.142,-0.09l-0.125,-0.112l-0.107,-0.13l-0.083,-0.146l-0.06,-0.157l-0.033,-0.165l-0.006,-0.168l0.021,-0.166l0.047,-0.162l0.073,-0.151l6.554,-11.245l0.095,-0.137l0.117,-0.12l0.134,-0.1l0.148,-0.078l0.159,-0.052l0.165,-0.027l0.167,0.001ZM244.786,102.437l52.908,27.784l-6.599,11.462l31.565,-2.232l-14.113,-28.24l-6.839,11.899l-50.368,-31.917l-6.554,11.244Z" style="fill:#000;"/></g></g><g id="Layer23"><g><path d="M245.049,278.984l6.461,11.298l50.516,-31.929l6.626,11.447l13.851,-28.453l-31.514,-1.897l6.886,11.872l-52.826,27.662Z" style="fill:url(#_Radial8);"/><path d="M322.565,240.307l0.169,0.025l0.162,0.051l0.152,0.077l0.137,0.101l0.119,0.121l0.098,0.14l0.073,0.153l0.048,0.164l0.02,0.169l-0.007,0.17l-0.035,0.166l-0.062,0.159l-13.85,28.453l-0.089,0.148l-0.112,0.133l-0.132,0.111l-0.149,0.089l-0.161,0.062l-0.17,0.035l-0.173,0.006l-0.172,-0.022l-0.165,-0.051l-0.155,-0.077l-0.14,-0.103l-0.121,-0.123l-0.099,-0.142l-6.084,-10.51l-49.6,31.35l-0.149,0.078l-0.16,0.053l-0.165,0.027l-0.168,0l-0.166,-0.027l-0.16,-0.054l-0.148,-0.078l-0.134,-0.102l-0.116,-0.121l-0.095,-0.139l-6.461,-11.298l-0.071,-0.152l-0.046,-0.161l-0.02,-0.166l0.008,-0.167l0.033,-0.164l0.06,-0.156l0.084,-0.145l0.106,-0.129l0.125,-0.111l0.142,-0.089l51.862,-27.157l-6.34,-10.932l-0.074,-0.156l-0.047,-0.166l-0.019,-0.171l0.01,-0.173l0.038,-0.168l0.065,-0.16l0.09,-0.147l0.114,-0.13l0.133,-0.109l0.15,-0.086l0.162,-0.06l0.169,-0.032l0.173,-0.004l31.513,1.897ZM297.875,251.322l-52.826,27.662l6.461,11.298l50.516,-31.929l6.626,11.447l13.851,-28.453l-31.514,-1.897l6.886,11.872Z" style="fill:#000;"/></g></g><rect x="343.899" y="109.111" width="351.196" height="160.774" style="fill:#000;stroke-width:4px;stroke-miterlimit:1.41421;stroke:#fff;"/><g transform="matrix(4.65582,0,0,4.65582,-1459.41,-608.004)"><text x="408.701px" y="168.323px" style="font-family:Helvetica;font-size:12px;fill:#fff;">AEAD</text><text x="397.357px" y="180.323px" style="font-family:Helvetica;font-size:12px;fill:#fff;">decryption</text></g><defs><radialGradient id="_Radial1" cx="0" cy="0" r="1" gradientUnits="userSpaceOnUse" gradientTransform="matrix(57.2105,-53.8148,43.4278,29.5176,72.5974,264.973)"><stop offset="0%" style="stop-color:#2531dc;stop-opacity:1"/></radialGradient><radialGradient id="_Radial2" cx="0" cy="0" r="1" gradientUnits="userSpaceOnUse" gradientTransform="matrix(93.3176,-58.3158,43.3353,69.3456,78.1365,216.704)"><stop offset="0%" style="stop-color:#2531dc;stop-opacity:1"/></radialGradient><linearGradient id="_Linear3" x1="0" y1="0" x2="1" y2="0" gradientUnits="userSpaceOnUse" gradientTransform="matrix(68.1428,-41.5059,41.5059,68.1428,18.4136,182.561)"><stop offset="0%" style="stop-color:#dbbb9c;stop-opacity:1"/><stop offset="56%" style="stop-color:#d0a67c;stop-opacity:1"/><stop offset="100%" style="stop-color:#cb9d6e;stop-opacity:1"/></linearGradient><radialGradient id="_Radial4" cx="0" cy="0" r="1" gradientUnits="userSpaceOnUse" gradientTransform="matrix(-68.4029,38.4929,-24.4463,-43.4418,79.6302,105.739)"><stop offset="0%" style="stop-color:#d7c447;stop-opacity:1"/><stop offset="100%" style="stop-color:#e6d38c;stop-opacity:1"/></radialGradient><radialGradient id="_Radial5" cx="0" cy="0" r="1" gradientUnits="userSpaceOnUse" gradientTransform="matrix(118.848,-0.0441102,0.0435205,17.5576,236.948,190.23)"><stop offset="0%" style="stop-color:#c9c9c9;stop-opacity:1"/><stop offset="100%" style="stop-color:#707070;stop-opacity:1"/></radialGradient><radialGradient id="_Radial6" cx="0" cy="0" r="1" gradientUnits="userSpaceOnUse" gradientTransform="matrix(118.848,-0.0441102,0.0435205,17.5576,715.932,190.23)"><stop offset="0%" style="stop-color:#c9c9c9;stop-opacity:1"/><stop offset="100%" style="stop-color:#707070;stop-opacity:1"/></radialGradient><radialGradient id="_Radial7" cx="0" cy="0" r="1" gradientUnits="userSpaceOnUse" gradientTransform="matrix(102.948,59.3859,-8.74111,15.2271,247.805,96.6816)"><stop offset="0%" style="stop-color:#c9c9c9;stop-opacity:1"/><stop offset="100%" style="stop-color:#707070;stop-opacity:1"/></radialGradient><radialGradient id="_Radial8" cx="0" cy="0" r="1" gradientUnits="userSpaceOnUse" gradientTransform="matrix(102.904,-59.4623,8.81649,15.1836,248.035,284.789)"><stop offset="0%" style="stop-color:#c9c9c9;stop-opacity:1"/><stop offset="100%" style="stop-color:#707070;stop-opacity:1"/></radialGradient></defs></svg>