<?xml version="1.0" standalone="no"?><!DOCTYPE svg PUBLIC "-//W3C//DTD SVG 1.1//EN" "http://www.w3.org/Graphics/SVG/1.1/DTD/svg11.dtd"><svg width="100%" height="100%" viewBox="0 0 1170 440" version="1.1" xmlns="http://www.w3.org/2000/svg" xmlns:xlink="http://www.w3.org/1999/xlink" xml:space="preserve" style="fill-rule:evenodd;clip-rule:evenodd;stroke-linecap:round;stroke-linejoin:round;stroke-miterlimit:1.41421;"><g id="Alice and Bob"><g id="Layer1"><path id="Lower Body" d="M211.515,349.06c-47.494,-11.934 -88.915,-12.437 -138.96,-0.211c-10.203,40.012 5.79,68.759 5.79,68.759c30.328,16.382 99.263,15.941 129.644,-0.513c0,0 14.984,-30.511 3.526,-68.035Z" style="fill:url(#_Radial1);stroke-width:5.13px;stroke:#000;"/><path id="Upper Body" d="M82.277,212.347c-1.232,-0.581 -14.566,6.504 -18.636,12.975c-23.625,37.552 -18.853,105.442 -18.218,106.754c17.909,36.983 181.674,34.346 193.469,1.886c6.943,-19.109 2.684,-92.678 -10.877,-111.652c-7.432,-10.398 -106.428,-30.851 -145.738,-9.963Z" style="fill:url(#_Radial2);stroke-width:5.13px;stroke:#000;"/><path id="Collar" d="M82.388,180.915c-2.655,0.211 -26.316,9.191 -24.448,13.861c0.727,1.817 9.379,0.828 9.629,1.318c0.076,0.15 -7.462,8.227 -2.641,12.905c11.233,10.9 31.277,0.067 32.525,2.579c4.566,9.19 29.009,13.584 39.083,8.736c11.17,-5.376 14.438,-5.743 19.631,-5.626c5.757,0.129 11.466,6.986 22.594,5.626c8.352,-1.02 9.523,-5.711 21.395,-2.781c23.785,5.869 28.052,-6.684 11.666,-15.921c-1.747,-0.985 3.855,1.074 9.549,-4.609c1.444,-1.442 0.439,-9.03 -17.751,-11.621" style="fill:url(#_Radial3);stroke-width:5.13px;stroke:#000;"/><path id="Hair" d="M61.754,137.83c-64.91,-65.192 21.896,-143.09 77.857,-118.615c7.912,3.46 45.251,-25.878 79.179,7.129c35.888,34.913 13.444,67.044 10.186,69.173" style="fill:url(#_Radial4);stroke-width:5.13px;stroke:#000;"/><path id="Face" d="M79.019,74.049c-49.022,42.324 -10.02,126.584 60.528,127.434c16.112,0.194 57.694,3.47 81.658,-39.336c18.683,-33.372 13.064,-70.892 -6.174,-85.883c-1.482,-1.155 -13.234,11.776 -28.011,12.928c-19.204,1.497 -33.609,-11.832 -33.625,-11.804c-6.146,10.729 -33.044,15.141 -43.845,13.099c-19.729,-3.732 -29.334,-16.657 -30.531,-16.438Z" style="fill:url(#_Radial5);stroke-width:5.13px;stroke:#000;"/><path id="Nose" d="M129.029,135.569c6.327,-9.984 25.538,-7.151 31.581,-1.299" style="fill:none;stroke-width:5.13px;stroke:#000;"/><path id="Left Smile" d="M107.553,165.83c3.844,-6.238 8.237,-10.325 14.221,-12.373" style="fill:none;stroke-width:5.13px;stroke:#000;"/><path id="Lower Smile" d="M115.799,159.431c17.825,16.712 49.029,9.357 56.365,0.709" style="fill:none;stroke-width:5.13px;stroke:#000;"/><path id="Right Smile" d="M168.798,151.799c3.559,4.233 4.784,8.045 3.366,16.295" style="fill:none;stroke-width:5.13px;stroke:#000;"/><ellipse cx="110.773" cy="110.638" rx="7.674" ry="10.032" style="fill:#000;stroke-width:5.13px;stroke:#000;"/><ellipse cx="176.464" cy="110.638" rx="7.674" ry="10.032" style="fill:#000;stroke-width:5.13px;stroke:#000;"/></g><g id="Layer11"><path d="M512.318,89.777l-141.442,-0.333l-47.762,44.429l-0.222,191.819l189.426,0l0,-235.915Z" style="fill:#fff;stroke-width:3.23px;stroke:#000;"/><text x="379.536px" y="241.886px" style="font-family:Times;font-size:114.152px;fill:#000;">C</text><path d="M371.591,124.491l20.29,4.163l18.758,-12.169l16.32,10.202l18.357,-12.741l16.049,10.395l16.218,5.67l1.855,-6.833l14.84,1.313" style="fill:none;stroke-width:2.54px;stroke:#000;"/><path d="M340.933,144.975l24.219,6.245l16.315,-12.031l16.673,6.762l9.691,8.539l11.393,-12.935l24.998,10.506l21.103,-16.023l15.691,11.996l13.262,-3.059" style="fill:none;stroke-width:2.54px;stroke:#000;"/><path d="M340.933,259.81l19.047,-9.714l14.577,20.017l20.785,-9.538l15.551,10.262l13.154,-21.306l6.443,6.842l26.197,10.745l12.651,-10.853l13.268,-3.119l11.672,10.802" style="fill:none;stroke-width:2.54px;stroke:#000;"/><path d="M340.933,284.096l19.057,9.02l11.815,-2.604l18.337,-14.364l25.431,9.253l27.322,-12.573l4.57,14.106l41.927,-7.693l4.886,4.855" style="fill:none;stroke-width:2.54px;stroke:#000;"/><path d="M340.933,304.218l25.629,10.432l23.197,-14.257l16.048,8.474l16.647,-15.994l17.09,23.804l21.7,-20.811l17.716,16.048l15.318,-7.696" style="fill:none;stroke-width:2.54px;stroke:#000;"/><path d="M371.993,104.759l7.046,4.51l11.797,-6.359l12.477,3.865l28.134,-9.112l29.111,16.203l16.322,-16.27l17.398,7.163" style="fill:none;stroke-width:2.54px;stroke:#000;"/><path d="M371.367,89.444l0,44.204l-46.707,0" style="fill:none;stroke-width:3.23px;stroke-linecap:butt;stroke:#000;"/></g><g id="Layer12"><path d="M402.39,251.174l-99.032,0.004l-0.002,123.335l99.034,0l0,-123.339Z" style="fill:#fff;stroke-width:1.69px;stroke:#000;"/><text x="311.026px" y="318.224px" style="font-family:Times;font-size:23.916px;fill:#000;">ADATA</text><path d="M312.788,269.322l80.171,0" style="fill:none;stroke-width:1.33px;stroke:#000;"/><path d="M312.788,280.032l80.171,0" style="fill:none;stroke-width:1.33px;stroke:#000;"/><path d="M312.788,341.157l80.171,0" style="fill:none;stroke-width:1.33px;stroke:#000;"/><path d="M312.788,352.093l80.171,0" style="fill:none;stroke-width:1.33px;stroke:#000;"/><path d="M312.788,363.286l80.171,0" style="fill:none;stroke-width:1.33px;stroke:#000;"/><path d="M312.788,259.006l80.171,0" style="fill:none;stroke-width:1.33px;stroke:#000;"/></g><g id="Layer13"><path d="M534.822,251.174l-99.033,0.004l-0.001,123.335l99.034,0l0,-123.339Z" style="fill:#fff;stroke-width:1.69px;stroke:#000;"/><text x="446.584px" y="323.035px" style="font-family:Times;font-size:37.681px;fill:#000;">TAG</text><path d="M445.219,269.322l80.171,0" style="fill:none;stroke-width:1.33px;stroke:#000;"/><path d="M445.219,280.032l80.171,0" style="fill:none;stroke-width:1.33px;stroke:#000;"/><path d="M445.219,341.157l80.171,0" style="fill:none;stroke-width:1.33px;stroke:#000;"/><path d="M445.219,352.093l80.171,0" style="fill:none;stroke-width:1.33px;stroke:#000;"/><path d="M445.219,363.286l80.171,0" style="fill:none;stroke-width:1.33px;stroke:#000;"/><path d="M445.219,259.006l80.171,0" style="fill:none;stroke-width:1.33px;stroke:#000;"/></g><g id="Layer14"><path id="Lower Body1" d="M998.741,347.094c-4.584,22.89 1.168,66.037 4.994,67.459c45.654,16.968 95.181,13.195 122.153,-1.79c3.183,-1.768 7.856,-29.486 5.135,-66.558c-42.573,15.936 -83.34,16.052 -132.282,0.889Z" style="fill:url(#_Radial6);stroke-width:4.86px;stroke-miterlimit:1;stroke:#000;"/><path id="Upper Body1" d="M1015.56,223.574c-5.063,-1.815 -42.31,9.188 -44.517,19.048c-4.887,21.84 -3.206,87.814 7.534,94.348c30.197,18.372 103.778,35.003 164.392,2.881c3.34,-1.77 12.237,-49.854 6.479,-99.06c-0.711,-6.081 -53.202,-21.136 -57.422,-18.367l-76.466,1.15Z" style="fill:url(#_Radial7);stroke-width:4.86px;stroke-miterlimit:1;stroke:#000;"/><path id="Face1" d="M1120.93,120.794c-5.855,7.885 -119.769,3.411 -121.391,5.455c-4.494,5.658 -21.877,110.375 56.64,112.647c91.795,2.657 67.596,-121.935 64.751,-118.102Z" style="fill:url(#_Linear8);stroke-width:4.86px;stroke-miterlimit:1;stroke:#000;"/><path id="Cowboy Hat" d="M962.957,99.077c-3.268,0.588 -1.276,25.892 47.911,41.446c64.838,20.501 140.827,-17.361 146.944,-56.026c0.275,-1.739 -3.399,-1.655 -9.235,-0.75c-12.197,1.89 -24.568,7.71 -24.623,6.265c-4.054,-107.621 -62.249,-57.013 -67.259,-56.189c-2.923,0.481 -9.875,-11.76 -24.643,-9.937c-42.553,5.252 -31.842,73.804 -33.03,73.84c-7.894,0.238 -19.042,-1.713 -36.065,1.351Z" style="fill:url(#_Radial9);stroke-width:4.86px;stroke-miterlimit:1;stroke:#000;"/><path id="Right Eye" d="M1088.67,154.495c4.901,0.045 8.836,4.965 8.781,10.98c-0.055,6.015 -4.079,10.862 -8.98,10.817c-4.901,-0.045 -8.836,-4.965 -8.781,-10.98c0.055,-6.015 4.079,-10.862 8.98,-10.817Z" style="fill:#000;stroke-width:4.86px;stroke:#000;"/><path id="Left Eye" d="M1029.49,154.495c4.902,-0.04 8.92,4.812 8.969,10.827c0.048,6.015 -3.892,10.93 -8.793,10.97c-4.901,0.039 -8.919,-4.812 -8.968,-10.827c-0.048,-6.015 3.891,-10.931 8.792,-10.97Z" style="fill:#000;stroke-width:4.86px;stroke:#000;"/><path id="Nose1" d="M1047.26,184.989c3.26,-3.77 11.438,-11.743 21.94,-2.086" style="fill:none;stroke-width:4.86px;stroke-miterlimit:1;stroke:#000;"/><path id="Smile" d="M1024.38,210.856c0.937,-0.413 4.727,-1.998 8.442,-5.078c4.452,-3.693 6.512,-7.073 6.549,-7.045c0.041,0.031 -6.37,8.077 -6.37,8.077c0,0 11.189,6.275 25.216,6.178c14.026,-0.098 25.7,-7.293 25.502,-7.019c-3.038,4.202 -10.417,12.288 -25.502,12.287c-15.086,-0.002 -23.369,-10.325 -25.655,-11.055l-8.182,3.655Z" style="fill:#000;stroke-width:4.86px;stroke:#000;"/><path id="Chest Line" d="M971.787,240.864c29.598,16.285 63.94,25.887 91.197,24.739c49.691,-2.095 76.904,-19.2 84.161,-24.415" style="fill:none;stroke-width:4.86px;stroke-miterlimit:1;stroke:#000;"/><path d="M1061.49,31.208c-4.809,2.894 -10.992,6.708 -19.081,15.261" style="fill:none;stroke-width:4.86px;stroke:#000;"/><path d="M1157.82,83.747c-5.957,8.977 -40.193,29.492 -54.367,31.288" style="fill:none;stroke-width:4.86px;stroke:#000;"/><path d="M1123.91,88.094c-0.049,4.301 0.019,11.516 -1.095,17.934" style="fill:none;stroke-width:4.86px;stroke:#000;"/><path d="M999.14,97.061c0,2.303 1.069,7.653 1.323,8.967" style="fill:none;stroke-width:4.86px;stroke:#000;"/></g><g id="Layer2"><g><path d="M588.264,196.08l-0.205,49.492l227.063,-9.102l0.059,50.295l99.709,-67.365l-100.171,-66.165l0.102,52.188l-226.557,-9.343Z" style="fill:url(#_Radial10);"/><path d="M816.902,149.93l100.171,66.165l1.099,1.087l0.599,1.425l0.008,1.546l-0.584,1.431l-1.088,1.098l-99.709,67.365l-1.581,0.627l-1.698,-0.093l-1.502,-0.797l-1.03,-1.354l-0.367,-1.66l-0.054,-46.177l-222.948,8.936l-1.568,-0.256l-1.341,-0.851l-0.898,-1.309l-0.312,-1.558l0.204,-49.492l0.322,-1.548l0.902,-1.299l1.339,-0.842l1.561,-0.252l222.425,9.173l-0.093,-48.052l0.359,-1.657l1.019,-1.354l1.492,-0.805l1.692,-0.107l1.581,0.61ZM814.821,205.423l-226.557,-9.343l-0.205,49.492l227.063,-9.102l0.059,50.295l99.709,-67.365l-100.171,-66.165l0.102,52.188Z" style="fill:#000;"/></g></g></g><defs><radialGradient id="_Radial1" cx="0" cy="0" r="1" gradientUnits="userSpaceOnUse" gradientTransform="matrix(144.474,-61.7646,36.4927,85.3604,76.8659,409.991)"><stop offset="0%" style="stop-color:#d3799a;stop-opacity:1"/><stop offset="100%" style="stop-color:#c24774;stop-opacity:1"/></radialGradient><radialGradient id="_Radial2" cx="0" cy="0" r="1" gradientUnits="userSpaceOnUse" gradientTransform="matrix(187.901,-110,47.4619,152.024,56.5813,324.869)"><stop offset="0%" style="stop-color:#d3799a;stop-opacity:1"/><stop offset="100%" style="stop-color:#c24774;stop-opacity:1"/></radialGradient><radialGradient id="_Radial3" cx="0" cy="0" r="1" gradientUnits="userSpaceOnUse" gradientTransform="matrix(149.944,-28.1035,37.8744,38.8399,67.702,213.582)"><stop offset="0%" style="stop-color:#cda3ca;stop-opacity:1"/><stop offset="100%" style="stop-color:#b87db4;stop-opacity:1"/></radialGradient><radialGradient id="_Radial4" cx="0" cy="0" r="1" gradientUnits="userSpaceOnUse" gradientTransform="matrix(189.812,-86.2983,47.9446,119.267,49.0797,110.806)"><stop offset="0%" style="stop-color:#a75216;stop-opacity:1"/><stop offset="100%" style="stop-color:#854000;stop-opacity:1"/></radialGradient><radialGradient id="_Radial5" cx="0" cy="0" r="1" gradientUnits="userSpaceOnUse" gradientTransform="matrix(170.923,-86.6044,43.1735,119.69,61.7541,174.717)"><stop offset="0%" style="stop-color:#ffd9b8;stop-opacity:1"/><stop offset="100%" style="stop-color:#ffcd9e;stop-opacity:1"/></radialGradient><radialGradient id="_Radial6" cx="0" cy="0" r="1" gradientUnits="userSpaceOnUse" gradientTransform="matrix(119.047,-111.981,90.3675,61.4222,1104.89,378.434)"><stop offset="0%" style="stop-color:#2531dc;stop-opacity:1"/></radialGradient><radialGradient id="_Radial7" cx="0" cy="0" r="1" gradientUnits="userSpaceOnUse" gradientTransform="matrix(194.182,-121.347,90.1749,144.299,1116.42,277.992)"><stop offset="0%" style="stop-color:#2531dc;stop-opacity:1"/></radialGradient><linearGradient id="_Linear8" x1="0" y1="0" x2="1" y2="0" gradientUnits="userSpaceOnUse" gradientTransform="matrix(141.796,-86.3683,86.3683,141.796,992.145,206.945)"><stop offset="0%" style="stop-color:#dbbb9c;stop-opacity:1"/><stop offset="56%" style="stop-color:#d0a67c;stop-opacity:1"/><stop offset="100%" style="stop-color:#cb9d6e;stop-opacity:1"/></linearGradient><radialGradient id="_Radial9" cx="0" cy="0" r="1" gradientUnits="userSpaceOnUse" gradientTransform="matrix(-142.337,80.0985,-50.8696,-90.3967,1119.53,47.088)"><stop offset="0%" style="stop-color:#d7c447;stop-opacity:1"/><stop offset="100%" style="stop-color:#e6d38c;stop-opacity:1"/></radialGradient><radialGradient id="_Radial10" cx="0" cy="0" r="1" gradientUnits="userSpaceOnUse" gradientTransform="matrix(451.936,-0.167735,0.165492,66.7651,587.058,220.876)"><stop offset="0%" style="stop-color:#c9c9c9;stop-opacity:1"/><stop offset="100%" style="stop-color:#707070;stop-opacity:1"/></radialGradient></defs></svg>