<?xml version="1.0" standalone="no"?><!DOCTYPE svg PUBLIC "-//W3C//DTD SVG 1.1//EN" "http://www.w3.org/Graphics/SVG/1.1/DTD/svg11.dtd"><svg width="100%" height="100%" viewBox="0 0 910 380" version="1.1" xmlns="http://www.w3.org/2000/svg" xmlns:xlink="http://www.w3.org/1999/xlink" xml:space="preserve" style="fill-rule:evenodd;clip-rule:evenodd;stroke-linecap:round;stroke-linejoin:round;stroke-miterlimit:1.41421;"><g id="Layer1"><path id="Lower Body" d="M82.585,248.664c-21.588,-5.425 -40.416,-5.654 -63.163,-0.096c-4.638,18.187 2.631,31.254 2.631,31.254c13.786,7.446 46.129,6.794 58.93,-0.005c0,0 6.81,-14.097 1.602,-31.153Z" style="fill:url(#_Radial1);stroke-width:2.33px;stroke:#000;"/><path id="Upper Body" d="M90.085,192.417c-7.804,-11.702 -66.473,-11.35 -74.715,0.002c-11.849,16.318 -8.57,47.928 -8.281,48.525c8.14,16.81 82.579,15.612 87.94,0.857c3.156,-8.686 2.024,-38.936 -4.944,-49.384Z" style="fill:url(#_Radial2);stroke-width:2.33px;stroke:#000;"/><path id="Collar" d="M23.891,172.234c-1.207,0.096 -11.962,4.178 -11.113,6.3c0.331,0.826 4.264,0.377 4.377,0.6c0.035,0.068 -3.392,3.739 -1.2,5.866c5.106,4.954 13.2,1.444 13.767,2.585c2.076,4.178 14.203,4.761 18.782,2.558c5.077,-2.444 6.563,-2.611 8.923,-2.558c2.617,0.059 5.212,3.176 10.27,2.558c3.796,-0.464 4.329,-2.596 9.725,-1.265c10.811,2.668 12.751,-3.037 5.303,-7.236c-0.795,-0.448 1.752,0.488 4.34,-2.095c0.657,-0.655 0.2,-4.105 -8.068,-5.283" style="fill:url(#_Radial3);stroke-width:2.33px;stroke:#000;"/><path id="Hair" d="M14.512,152.65c-29.505,-29.633 9.953,-65.041 35.39,-53.916c3.596,1.573 20.568,-11.763 35.99,3.24c16.313,15.87 6.111,30.475 4.63,31.443" style="fill:url(#_Radial4);stroke-width:2.33px;stroke:#000;"/><path id="Face" d="M22.36,123.659c-22.283,19.238 -4.555,57.538 27.513,57.924c7.323,0.088 26.224,1.578 37.117,-17.88c8.492,-15.169 5.938,-32.223 -2.806,-39.037c-0.674,-0.525 -6.016,5.352 -12.733,5.876c-8.729,0.68 -15.277,-5.378 -15.284,-5.366c-2.794,4.877 -15.02,6.883 -19.93,5.954c-8.967,-1.696 -13.333,-7.571 -13.877,-7.471Z" style="fill:url(#_Radial5);stroke-width:2.33px;stroke:#000;"/><path id="Nose" d="M45.092,151.622c2.876,-4.538 11.608,-3.25 14.355,-0.59" style="fill:none;stroke-width:2.33px;stroke:#000;"/><path id="Left Smile" d="M35.33,165.377c1.747,-2.835 3.744,-4.693 6.464,-5.624" style="fill:none;stroke-width:2.33px;stroke:#000;"/><path id="Lower Smile" d="M39.078,162.469c8.102,7.596 22.286,4.253 25.62,0.322" style="fill:none;stroke-width:2.33px;stroke:#000;"/><path id="Right Smile" d="M63.168,159c1.618,1.923 2.175,3.656 1.53,7.406" style="fill:none;stroke-width:2.33px;stroke:#000;"/><ellipse cx="36.793" cy="140.29" rx="3.488" ry="4.56" style="fill:#000;stroke-width:2.33px;stroke:#000;"/><ellipse cx="66.653" cy="140.29" rx="3.488" ry="4.56" style="fill:#000;stroke-width:2.33px;stroke:#000;"/></g><g id="Layer11"><path d="M208.576,7.871l-60.771,-0.143l-20.521,19.088l-0.095,82.416l81.387,0l0,-101.361Z" style="fill:#fff;stroke-width:1.39px;stroke:#000;"/><text x="154.244px" y="73.224px" style="font-family:Times;font-size:49.045px;fill:#000;">P</text><path d="M148.113,22.785l52.712,0" style="fill:none;stroke-width:1.09px;stroke:#000;"/><path d="M134.94,31.586l65.885,0" style="fill:none;stroke-width:1.09px;stroke:#000;"/><path d="M134.94,81.82l65.885,0" style="fill:none;stroke-width:1.09px;stroke:#000;"/><path d="M134.94,90.807l65.885,0" style="fill:none;stroke-width:1.09px;stroke:#000;"/><path d="M134.94,100.005l65.885,0" style="fill:none;stroke-width:1.09px;stroke:#000;"/><path d="M148.286,14.308l52.539,0" style="fill:none;stroke-width:1.09px;stroke:#000;"/><path d="M148.016,7.728l0,18.992l-20.067,0" style="fill:none;stroke-width:1.39px;stroke-linecap:butt;stroke:#000;"/></g><g id="Layer12"><path d="M901.061,73.187l-60.77,-0.143l-20.521,19.089l-0.096,82.415l81.387,0l0,-101.361Z" style="fill:#fff;stroke-width:1.39px;stroke:#000;"/><text x="844.011px" y="138.541px" style="font-family:Times;font-size:49.045px;fill:#000;">C</text><path d="M840.598,88.102l8.717,1.789l8.06,-5.229l7.012,4.384l7.887,-5.475l6.895,4.467l6.968,2.436l0.797,-2.936l6.376,0.564" style="fill:none;stroke-width:1.09px;stroke:#000;"/><path d="M827.426,96.903l10.405,2.683l7.01,-5.169l7.164,2.905l4.164,3.669l4.894,-5.557l10.741,4.514l9.067,-6.885l6.741,5.154l5.698,-1.314" style="fill:none;stroke-width:1.09px;stroke:#000;"/><path d="M827.426,146.242l8.183,-4.174l6.263,8.601l8.931,-4.098l6.681,4.409l5.652,-9.154l2.768,2.939l11.255,4.617l5.436,-4.663l5.701,-1.34l5.014,4.641" style="fill:none;stroke-width:1.09px;stroke:#000;"/><path d="M827.426,156.676l8.188,3.876l5.076,-1.119l7.879,-6.172l10.926,3.976l11.739,-5.402l1.963,6.061l18.014,-3.306l2.099,2.086" style="fill:none;stroke-width:1.09px;stroke:#000;"/><path d="M827.426,165.322l11.011,4.482l9.967,-6.126l6.895,3.641l7.152,-6.872l7.343,10.228l9.323,-8.942l7.612,6.895l6.581,-3.306" style="fill:none;stroke-width:1.09px;stroke:#000;"/><path d="M840.771,79.624l3.027,1.938l5.069,-2.732l5.36,1.66l12.088,-3.915l12.508,6.962l7.012,-6.99l7.475,3.077" style="fill:none;stroke-width:1.09px;stroke:#000;"/><path d="M840.502,73.044l0,18.992l-20.068,0" style="fill:none;stroke-width:1.39px;stroke-linecap:butt;stroke:#000;"/></g><g id="Layer13"><path d="M901.069,209.117l-81.386,0.004l-0.001,101.357l81.387,0l0,-101.361Z" style="fill:#fff;stroke-width:1.39px;stroke:#000;"/><text x="828.555px" y="268.173px" style="font-family:Times;font-size:30.966px;fill:#000;">TAG</text><path d="M827.433,224.032l65.885,0" style="fill:none;stroke-width:1.09px;stroke:#000;"/><path d="M827.433,232.833l65.885,0" style="fill:none;stroke-width:1.09px;stroke:#000;"/><path d="M827.433,283.066l65.885,0" style="fill:none;stroke-width:1.09px;stroke:#000;"/><path d="M827.433,292.054l65.885,0" style="fill:none;stroke-width:1.09px;stroke:#000;"/><path d="M827.433,301.252l65.885,0" style="fill:none;stroke-width:1.09px;stroke:#000;"/><path d="M827.433,215.554l65.885,0" style="fill:none;stroke-width:1.09px;stroke:#000;"/></g><g id="Layer2"><path d="M173.37,180.182c-0.137,-0.204 0.067,-0.488 0.129,-0.726c0.147,-0.56 0.349,-1.105 0.496,-1.665c0.642,-2.439 0.986,-4.914 1.082,-7.444c0.842,-22.208 -31.56,-30.803 -42.851,-10.743c-2.83,5.027 -4.033,10.942 -3.102,16.614c0.497,3.027 1.558,5.99 3.23,8.572c4.102,6.334 12.13,10.557 19.714,9.748c3.083,-0.329 3.297,-0.474 6.17,-1.139c0.759,-0.176 2.694,-0.873 3.708,-0.533c0.71,0.238 0.863,0.979 0.833,1.638c-0.037,0.817 -0.229,1.154 -0.546,1.936c-0.314,0.778 -0.841,1.621 -0.207,2.4c0.142,0.174 0.311,0.327 0.495,0.455c0.246,0.17 0.508,0.324 0.787,0.434c1.216,0.476 2.11,-0.283 3.069,-0.925c0.375,-0.252 0.695,-0.626 1.13,-0.748c0.184,-0.052 0.341,0.174 0.492,0.291c0.389,0.302 0.76,0.626 1.122,0.959c1.271,1.172 2.541,2.347 3.778,3.556c7.703,7.533 14.997,14.848 22.495,22.59c1.924,1.986 3.751,4.065 5.689,6.038c0.264,0.268 1.137,0.343 1.365,0.352c2.188,0.096 3.189,0.036 5.386,-0.265c0.527,-0.072 1.834,-0.218 2.074,-0.876c0.223,-0.614 0.227,-2.092 0.222,-2.404c-0.029,-1.55 -0.114,-3.099 -0.21,-4.646c-0.029,-0.474 -0.526,-0.509 -0.582,-0.942c-0.084,-0.654 0.149,-2.084 -0.423,-2.594c-0.328,-0.293 -2.495,-0.259 -2.809,-0.658c-0.048,-0.06 -1.135,-4.089 -1.297,-4.578c-0.12,-0.361 -0.204,-0.753 -0.439,-1.052c-0.127,-0.161 -0.369,-0.193 -0.57,-0.229c-0.683,-0.123 -1.552,0.216 -2.047,-0.451c-0.674,-0.908 -0.033,-2.256 -0.88,-3.088c-1.374,-1.351 -3.73,-0.566 -5.33,-1.413c-0.687,-0.363 -0.681,-1.17 -0.789,-1.814c-0.143,-0.856 -0.206,-1.375 -0.941,-1.882c-1.374,-0.95 -3.474,-0.258 -4.634,-1.596c-1.329,-1.534 -0.936,-3.531 -1.408,-5.347c-0.232,-0.89 -0.967,-1.098 -1.778,-1.242c-0.378,-0.068 -1.054,-0.005 -1.235,-0.495c-0.415,-1.119 -0.074,-2.342 -0.347,-3.48c-0.074,-0.307 -0.324,-0.545 -0.515,-0.796c-1.15,-1.509 -4.557,-5.265 -5.012,-5.771c-0.458,-0.507 3.386,-2.519 1.289,-4.615c-1.874,-1.872 -4.049,1.581 -4.581,0.999c-1.219,-1.333 -2.222,-2.425 -2.222,-2.425ZM145.559,158.1c3.675,0 6.659,2.886 6.659,6.441c0,3.555 -2.984,6.441 -6.659,6.441c-3.675,0 -6.659,-2.886 -6.659,-6.441c0,-3.555 2.984,-6.441 6.659,-6.441Z" style="fill:url(#_Radial6);stroke-width:1.16px;stroke:#000;"/><path d="M161.209,186.652l44.337,44.803" style="fill:none;stroke-width:0.99px;stroke:#000;"/><path d="M165.13,183.293l44.694,43.67" style="fill:none;stroke-width:0.99px;stroke:#000;"/></g><g id="Layer14"><path d="M208.576,266.631l-81.386,0.004l-0.001,101.357l81.387,0l0,-101.361Z" style="fill:#fff;stroke-width:1.39px;stroke:#000;"/><text x="133.492px" y="321.734px" style="font-family:Times;font-size:19.654px;fill:#000;">ADATA</text><path d="M134.94,281.546l65.885,0" style="fill:none;stroke-width:1.09px;stroke:#000;"/><path d="M134.94,290.347l65.885,0" style="fill:none;stroke-width:1.09px;stroke:#000;"/><path d="M134.94,340.58l65.885,0" style="fill:none;stroke-width:1.09px;stroke:#000;"/><path d="M134.94,349.567l65.885,0" style="fill:none;stroke-width:1.09px;stroke:#000;"/><path d="M134.94,358.765l65.885,0" style="fill:none;stroke-width:1.09px;stroke:#000;"/><path d="M134.94,273.068l65.885,0" style="fill:none;stroke-width:1.09px;stroke:#000;"/></g><g id="Layer21"><g><path d="M237.265,183.71l-0.054,13.015l59.712,-2.394l0.015,13.227l26.222,-17.716l-26.343,-17.4l0.027,13.725l-59.579,-2.457Z" style="fill:url(#_Radial7);"/><path d="M297.049,171.427l0.178,0.058l0.164,0.088l26.343,17.4l0.145,0.116l0.122,0.14l0.096,0.159l0.066,0.173l0.033,0.183l0.001,0.186l-0.032,0.183l-0.064,0.174l-0.093,0.16l-0.121,0.141l-0.144,0.117l-26.221,17.716l-0.165,0.09l-0.177,0.06l-0.186,0.027l-0.188,-0.007l-0.183,-0.041l-0.173,-0.072l-0.157,-0.103l-0.136,-0.129l-0.111,-0.151l-0.082,-0.169l-0.05,-0.18l-0.017,-0.187l-0.014,-12.144l-58.63,2.35l-0.187,-0.009l-0.181,-0.042l-0.172,-0.074l-0.155,-0.104l-0.134,-0.129l-0.109,-0.152l-0.081,-0.169l-0.049,-0.18l-0.016,-0.186l0.054,-13.015l0.018,-0.185l0.049,-0.179l0.081,-0.167l0.11,-0.15l0.134,-0.129l0.155,-0.102l0.171,-0.073l0.181,-0.042l0.186,-0.009l58.492,2.412l-0.024,-12.637l0.016,-0.186l0.049,-0.18l0.081,-0.169l0.11,-0.151l0.135,-0.129l0.156,-0.103l0.172,-0.074l0.182,-0.042l0.187,-0.008l0.185,0.025ZM296.844,186.167l-59.579,-2.457l-0.054,13.015l59.712,-2.394l0.015,13.227l26.222,-17.716l-26.343,-17.4l0.027,13.725Z" style="fill:#000;"/></g></g><g id="Layer22"><g><path d="M718.899,166.418l4.931,12.045l54.251,-25.062l5.076,12.214l17.445,-26.402l-30.995,-5.994l5.276,12.669l-55.984,20.53Z" style="fill:url(#_Radial8);"/><path d="M769.804,132.196l30.996,5.995l0.164,0.046l0.154,0.072l0.141,0.096l0.123,0.117l0.102,0.137l0.079,0.151l0.053,0.162l0.025,0.168l-0.001,0.17l-0.03,0.168l-0.057,0.16l-0.082,0.15l-17.445,26.401l-0.107,0.136l-0.129,0.116l-0.145,0.094l-0.16,0.068l-0.168,0.041l-0.173,0.012l-0.172,-0.016l-0.167,-0.045l-0.158,-0.072l-0.143,-0.097l-0.126,-0.119l-0.104,-0.139l-0.079,-0.154l-4.66,-11.213l-53.268,24.608l-0.158,0.058l-0.165,0.031l-0.168,0.005l-0.166,-0.022l-0.161,-0.049l-0.151,-0.074l-0.137,-0.097l-0.12,-0.118l-0.099,-0.136l-0.076,-0.149l-4.931,-12.045l-0.051,-0.16l-0.024,-0.165l0.002,-0.168l0.029,-0.164l0.055,-0.158l0.08,-0.147l0.102,-0.133l0.122,-0.114l0.139,-0.094l0.151,-0.07l54.964,-20.155l-4.859,-11.666l-0.053,-0.164l-0.025,-0.171l0.003,-0.172l0.032,-0.17l0.06,-0.162l0.085,-0.15l0.109,-0.134l0.13,-0.114l0.147,-0.091l0.159,-0.065l0.168,-0.038l0.173,-0.01l0.171,0.018ZM774.883,145.888l-55.984,20.53l4.931,12.045l54.251,-25.062l5.076,12.214l17.445,-26.402l-30.995,-5.994l5.276,12.669Z" style="fill:#000;"/></g></g><g id="Layer23"><g><path d="M723.714,204.966l-5.031,12.004l56.083,20.639l-5.047,12.226l31.004,-6.333l-17.678,-26.156l-5.228,12.69l-54.103,-25.07Z" style="fill:url(#_Radial9);"/><path d="M723.83,203.931l0.165,0.032l0.157,0.058l53.116,24.612l4.813,-11.684l0.079,-0.153l0.103,-0.139l0.125,-0.119l0.142,-0.098l0.157,-0.072l0.166,-0.046l0.172,-0.018l0.172,0.012l0.168,0.039l0.159,0.066l0.147,0.092l0.128,0.115l0.109,0.135l17.678,26.156l0.084,0.148l0.058,0.16l0.031,0.168l0.004,0.17l-0.024,0.168l-0.051,0.163l-0.077,0.151l-0.101,0.138l-0.122,0.119l-0.139,0.097l-0.154,0.074l-0.163,0.048l-31.005,6.332l-0.172,0.021l-0.173,-0.009l-0.169,-0.037l-0.161,-0.064l-0.148,-0.09l-0.13,-0.114l-0.111,-0.133l-0.086,-0.15l-0.061,-0.162l-0.033,-0.17l-0.004,-0.173l0.024,-0.172l0.053,-0.165l4.634,-11.224l-55.066,-20.266l-0.153,-0.071l-0.139,-0.094l-0.122,-0.115l-0.102,-0.133l-0.08,-0.149l-0.054,-0.159l-0.028,-0.165l-0.001,-0.168l0.025,-0.166l0.053,-0.16l5.03,-12.004l0.077,-0.149l0.099,-0.134l0.12,-0.117l0.137,-0.096l0.151,-0.072l0.16,-0.048l0.166,-0.022l0.167,0.006ZM718.683,216.97l56.083,20.639l-5.047,12.226l31.004,-6.333l-17.678,-26.156l-5.228,12.69l-54.103,-25.07l-5.031,12.004Z" style="fill:#000;"/></g></g><g id="Layer24"><g><path d="M251.34,91.193l-6.554,11.244l52.908,27.784l-6.599,11.462l31.565,-2.232l-14.113,-28.24l-6.839,11.899l-50.368,-31.917Z" style="fill:url(#_Radial10);"/><path d="M251.425,90.155l0.165,0.027l0.159,0.053l0.148,0.078l49.45,31.335l6.297,-10.956l0.098,-0.142l0.12,-0.124l0.139,-0.102l0.154,-0.078l0.165,-0.051l0.171,-0.024l0.173,0.005l0.169,0.034l0.161,0.061l0.149,0.086l0.133,0.111l0.113,0.13l0.09,0.148l14.113,28.24l0.063,0.158l0.037,0.166l0.01,0.17l-0.019,0.169l-0.046,0.164l-0.072,0.154l-0.096,0.141l-0.118,0.123l-0.136,0.102l-0.151,0.078l-0.162,0.053l-0.168,0.026l-31.566,2.232l-0.173,-0.003l-0.171,-0.03l-0.163,-0.059l-0.15,-0.085l-0.135,-0.109l-0.115,-0.129l-0.092,-0.147l-0.066,-0.16l-0.039,-0.169l-0.011,-0.172l0.019,-0.173l0.046,-0.166l0.074,-0.157l6.059,-10.524l-51.95,-27.279l-0.142,-0.09l-0.125,-0.112l-0.107,-0.13l-0.083,-0.146l-0.06,-0.157l-0.033,-0.165l-0.006,-0.168l0.021,-0.166l0.047,-0.162l0.073,-0.151l6.554,-11.245l0.095,-0.137l0.117,-0.12l0.134,-0.1l0.148,-0.078l0.159,-0.052l0.165,-0.027l0.167,0.001ZM244.786,102.437l52.908,27.784l-6.599,11.462l31.565,-2.232l-14.113,-28.24l-6.839,11.899l-50.368,-31.917l-6.554,11.244Z" style="fill:#000;"/></g></g><g id="Layer25"><g><path d="M245.049,278.984l6.461,11.298l50.516,-31.929l6.626,11.447l13.851,-28.453l-31.514,-1.897l6.886,11.872l-52.826,27.662Z" style="fill:url(#_Radial11);"/><path d="M322.565,240.307l0.169,0.025l0.162,0.051l0.152,0.077l0.137,0.101l0.119,0.121l0.098,0.14l0.073,0.153l0.048,0.164l0.02,0.169l-0.007,0.17l-0.035,0.166l-0.062,0.159l-13.85,28.453l-0.089,0.148l-0.112,0.133l-0.132,0.111l-0.149,0.089l-0.161,0.062l-0.17,0.035l-0.173,0.006l-0.172,-0.022l-0.165,-0.051l-0.155,-0.077l-0.14,-0.103l-0.121,-0.123l-0.099,-0.142l-6.084,-10.51l-49.6,31.35l-0.149,0.078l-0.16,0.053l-0.165,0.027l-0.168,0l-0.166,-0.027l-0.16,-0.054l-0.148,-0.078l-0.134,-0.102l-0.116,-0.121l-0.095,-0.139l-6.461,-11.298l-0.071,-0.152l-0.046,-0.161l-0.02,-0.166l0.008,-0.167l0.033,-0.164l0.06,-0.156l0.084,-0.145l0.106,-0.129l0.125,-0.111l0.142,-0.089l51.862,-27.157l-6.34,-10.932l-0.074,-0.156l-0.047,-0.166l-0.019,-0.171l0.01,-0.173l0.038,-0.168l0.065,-0.16l0.09,-0.147l0.114,-0.13l0.133,-0.109l0.15,-0.086l0.162,-0.06l0.169,-0.032l0.173,-0.004l31.513,1.897ZM297.875,251.322l-52.826,27.662l6.461,11.298l50.516,-31.929l6.626,11.447l13.851,-28.453l-31.514,-1.897l6.886,11.872Z" style="fill:#000;"/></g></g><rect x="343.899" y="109.111" width="351.196" height="160.774" style="fill:#000;stroke-width:4px;stroke:#fff;"/><g transform="matrix(4.65582,0,0,4.65582,-1459.41,-608.004)"><text x="408.701px" y="168.323px" style="font-family:Helvetica;font-size:12px;fill:#fff;">AEAD</text><text x="397.357px" y="180.323px" style="font-family:Helvetica;font-size:12px;fill:#fff;">encryption</text></g><defs><radialGradient id="_Radial1" cx="0" cy="0" r="1" gradientUnits="userSpaceOnUse" gradientTransform="matrix(65.67,-28.0748,16.5876,38.8002,21.3811,276.36)"><stop offset="0%" style="stop-color:#d3799a;stop-opacity:1"/><stop offset="100%" style="stop-color:#c24774;stop-opacity:1"/></radialGradient><radialGradient id="_Radial2" cx="0" cy="0" r="1" gradientUnits="userSpaceOnUse" gradientTransform="matrix(85.4095,-50.0002,21.5736,69.1017,12.1608,237.668)"><stop offset="0%" style="stop-color:#d3799a;stop-opacity:1"/><stop offset="100%" style="stop-color:#c24774;stop-opacity:1"/></radialGradient><radialGradient id="_Radial3" cx="0" cy="0" r="1" gradientUnits="userSpaceOnUse" gradientTransform="matrix(68.1564,-12.7743,17.2156,17.6545,17.2156,187.083)"><stop offset="0%" style="stop-color:#cda3ca;stop-opacity:1"/><stop offset="100%" style="stop-color:#b87db4;stop-opacity:1"/></radialGradient><radialGradient id="_Radial4" cx="0" cy="0" r="1" gradientUnits="userSpaceOnUse" gradientTransform="matrix(86.2781,-39.2265,21.793,54.2122,8.75097,140.366)"><stop offset="0%" style="stop-color:#a75216;stop-opacity:1"/><stop offset="100%" style="stop-color:#854000;stop-opacity:1"/></radialGradient><radialGradient id="_Radial5" cx="0" cy="0" r="1" gradientUnits="userSpaceOnUse" gradientTransform="matrix(77.6924,-39.3656,19.6243,54.4044,14.5121,169.417)"><stop offset="0%" style="stop-color:#ffd9b8;stop-opacity:1"/><stop offset="100%" style="stop-color:#ffcd9e;stop-opacity:1"/></radialGradient><radialGradient id="_Radial6" cx="0" cy="0" r="1" gradientUnits="userSpaceOnUse" gradientTransform="matrix(31.2337,11.8954,-12.2246,32.098,165.285,169.177)"><stop offset="0%" style="stop-color:#ffd700;stop-opacity:1"/><stop offset="100%" style="stop-color:#ffee95;stop-opacity:1"/></radialGradient><radialGradient id="_Radial7" cx="0" cy="0" r="1" gradientUnits="userSpaceOnUse" gradientTransform="matrix(118.848,-0.0441102,0.0435205,17.5576,236.948,190.23)"><stop offset="0%" style="stop-color:#c9c9c9;stop-opacity:1"/><stop offset="100%" style="stop-color:#707070;stop-opacity:1"/></radialGradient><radialGradient id="_Radial8" cx="0" cy="0" r="1" gradientUnits="userSpaceOnUse" gradientTransform="matrix(109.785,-45.522,6.75921,16.2045,721.102,172.564)"><stop offset="0%" style="stop-color:#c9c9c9;stop-opacity:1"/><stop offset="100%" style="stop-color:#707070;stop-opacity:1"/></radialGradient><radialGradient id="_Radial9" cx="0" cy="0" r="1" gradientUnits="userSpaceOnUse" gradientTransform="matrix(109.818,45.4405,-6.6788,16.2378,720.925,210.869)"><stop offset="0%" style="stop-color:#c9c9c9;stop-opacity:1"/><stop offset="100%" style="stop-color:#707070;stop-opacity:1"/></radialGradient><radialGradient id="_Radial10" cx="0" cy="0" r="1" gradientUnits="userSpaceOnUse" gradientTransform="matrix(102.948,59.3859,-8.74111,15.2271,247.805,96.6816)"><stop offset="0%" style="stop-color:#c9c9c9;stop-opacity:1"/><stop offset="100%" style="stop-color:#707070;stop-opacity:1"/></radialGradient><radialGradient id="_Radial11" cx="0" cy="0" r="1" gradientUnits="userSpaceOnUse" gradientTransform="matrix(102.904,-59.4623,8.81649,15.1836,248.035,284.789)"><stop offset="0%" style="stop-color:#c9c9c9;stop-opacity:1"/><stop offset="100%" style="stop-color:#707070;stop-opacity:1"/></radialGradient></defs></svg>