<?xml version="1.0" standalone="no"?><!DOCTYPE svg PUBLIC "-//W3C//DTD SVG 1.1//EN" "http://www.w3.org/Graphics/SVG/1.1/DTD/svg11.dtd"><svg width="100%" height="100%" viewBox="0 0 600 1200" version="1.1" xmlns="http://www.w3.org/2000/svg" xmlns:xlink="http://www.w3.org/1999/xlink" xml:space="preserve" style="fill-rule:evenodd;clip-rule:evenodd;stroke-linecap:round;stroke-linejoin:round;stroke-miterlimit:1.41421;"><g id="Layer1"><path id="Lower Body" d="M495.512,951.981c-129.529,-32.546 -242.497,-33.92 -378.982,-0.574c-27.827,109.122 15.79,187.523 15.79,187.523c82.712,44.679 270.717,43.477 353.576,-1.398c0,0 40.863,-83.212 9.616,-185.551Z" style="fill:url(#_Radial1);stroke-width:14px;stroke:#000;"/><path id="Upper Body" d="M143.044,579.127c-3.36,-1.584 -39.724,17.74 -50.827,35.387c-64.43,102.415 -51.416,287.57 -49.684,291.147c48.843,100.863 495.474,93.673 527.642,5.144c18.936,-52.114 7.322,-252.758 -29.665,-304.504c-20.269,-28.359 -290.258,-84.141 -397.466,-27.174Z" style="fill:url(#_Radial2);stroke-width:14px;stroke:#000;"/><path id="Collar" d="M143.347,493.403c-7.241,0.577 -71.771,25.069 -66.677,37.804c1.982,4.956 25.58,2.257 26.261,3.596c0.207,0.408 -20.351,22.436 -7.202,35.195c30.635,29.726 85.299,0.182 88.703,7.033c12.455,25.064 79.117,37.047 106.591,23.825c30.463,-14.66 39.377,-15.661 53.54,-15.344c15.7,0.352 31.269,19.052 61.619,15.344c22.778,-2.783 25.972,-15.575 58.349,-7.585c64.869,16.007 76.506,-18.227 31.819,-43.419c-4.767,-2.687 10.511,2.927 26.04,-12.57c3.94,-3.933 1.197,-24.628 -48.41,-31.696" style="fill:url(#_Radial3);stroke-width:14px;stroke:#000;"/><path id="Hair" d="M87.073,375.899c-177.03,-177.797 59.715,-390.246 212.336,-323.494c21.578,9.437 123.413,-70.576 215.942,19.441c97.876,95.219 36.665,182.849 27.78,188.655" style="fill:url(#_Radial4);stroke-width:14px;stroke:#000;"/><path id="Face" d="M134.16,201.953c-133.699,115.427 -27.328,345.228 165.075,347.546c43.941,0.529 157.346,9.464 222.705,-107.281c50.953,-91.014 35.626,-193.34 -16.839,-234.224c-4.042,-3.15 -36.093,32.114 -76.393,35.256c-52.375,4.084 -91.662,-32.268 -91.706,-32.192c-16.761,29.261 -90.12,41.295 -119.578,35.724c-53.806,-10.177 -80.002,-45.426 -83.264,-44.829Z" style="fill:url(#_Radial5);stroke-width:14px;stroke:#000;"/><path id="Nose" d="M270.549,369.733c17.257,-27.228 69.649,-19.503 86.13,-3.542" style="fill:none;stroke-width:14px;stroke:#000;"/><path id="Left Smile" d="M211.978,452.265c10.484,-17.014 22.465,-28.162 38.785,-33.747" style="fill:none;stroke-width:14px;stroke:#000;"/><path id="Lower Smile" d="M234.468,434.813c48.612,45.578 133.716,25.517 153.721,1.933" style="fill:none;stroke-width:14px;stroke:#000;"/><path id="Right Smile" d="M379.01,413.997c9.705,11.544 13.047,21.941 9.179,44.44" style="fill:none;stroke-width:14px;stroke:#000;"/><ellipse cx="220.76" cy="301.739" rx="20.928" ry="27.361" style="fill:#000;stroke-width:14px;stroke:#000;"/><ellipse cx="399.917" cy="301.739" rx="20.928" ry="27.361" style="fill:#000;stroke-width:14px;stroke:#000;"/></g><defs><radialGradient id="_Radial1" cx="0" cy="0" r="1" gradientUnits="userSpaceOnUse" gradientTransform="matrix(394.02,-168.449,99.5256,232.801,128.286,1118.16)"><stop offset="0%" style="stop-color:#d3799a;stop-opacity:1"/><stop offset="100%" style="stop-color:#c24774;stop-opacity:1"/></radialGradient><radialGradient id="_Radial2" cx="0" cy="0" r="1" gradientUnits="userSpaceOnUse" gradientTransform="matrix(512.457,-300.001,129.442,414.61,72.9647,886.007)"><stop offset="0%" style="stop-color:#d3799a;stop-opacity:1"/><stop offset="100%" style="stop-color:#c24774;stop-opacity:1"/></radialGradient><radialGradient id="_Radial3" cx="0" cy="0" r="1" gradientUnits="userSpaceOnUse" gradientTransform="matrix(408.938,-76.646,103.294,105.927,103.294,582.498)"><stop offset="0%" style="stop-color:#cda3ca;stop-opacity:1"/><stop offset="100%" style="stop-color:#b87db4;stop-opacity:1"/></radialGradient><radialGradient id="_Radial4" cx="0" cy="0" r="1" gradientUnits="userSpaceOnUse" gradientTransform="matrix(517.669,-235.359,130.758,325.273,52.5058,302.198)"><stop offset="0%" style="stop-color:#a75216;stop-opacity:1"/><stop offset="100%" style="stop-color:#854000;stop-opacity:1"/></radialGradient><radialGradient id="_Radial5" cx="0" cy="0" r="1" gradientUnits="userSpaceOnUse" gradientTransform="matrix(466.155,-236.194,117.746,326.426,87.0724,476.5)"><stop offset="0%" style="stop-color:#ffd9b8;stop-opacity:1"/><stop offset="100%" style="stop-color:#ffcd9e;stop-opacity:1"/></radialGradient></defs></svg>