<?xml version="1.0" standalone="no"?><!DOCTYPE svg PUBLIC "-//W3C//DTD SVG 1.1//EN" "http://www.w3.org/Graphics/SVG/1.1/DTD/svg11.dtd"><svg width="100%" height="100%" viewBox="0 0 2400 1200" version="1.1" xmlns="http://www.w3.org/2000/svg" xmlns:xlink="http://www.w3.org/1999/xlink" xml:space="preserve" style="fill-rule:evenodd;clip-rule:evenodd;stroke-linecap:round;stroke-linejoin:round;stroke-miterlimit:1.41421;"><g id="Layer1"><g id="Layer11"><path id="Lower Body" d="M346.233,845.943c-90.507,-22.741 -169.441,-23.701 -264.809,-0.401c-19.443,76.248 11.033,131.03 11.033,131.03c57.794,31.219 193.392,28.484 247.057,-0.022c0,0 28.553,-59.099 6.719,-130.607Z" style="fill:url(#_Radial1);stroke-width:9.78px;stroke:#000;"/><path id="Upper Body" d="M377.676,610.132c-32.719,-49.061 -278.685,-47.582 -313.24,0.01c-49.674,68.413 -35.927,200.936 -34.716,203.435c34.128,70.477 346.206,65.453 368.683,3.595c13.232,-36.415 8.487,-163.235 -20.727,-207.04Z" style="fill:url(#_Radial2);stroke-width:9.78px;stroke:#000;"/><path id="Collar" d="M100.162,525.517c-5.06,0.403 -50.149,17.516 -46.59,26.414c1.385,3.464 17.874,1.578 18.35,2.513c0.145,0.286 -14.22,15.677 -5.032,24.592c21.406,20.771 55.34,6.054 57.719,10.841c8.702,17.513 59.543,19.96 78.74,10.721c21.286,-10.244 27.515,-10.943 37.411,-10.721c10.97,0.246 21.848,13.312 43.055,10.721c15.916,-1.944 18.148,-10.883 40.771,-5.3c45.327,11.185 53.458,-12.736 22.233,-30.338c-3.331,-1.878 7.345,2.045 18.195,-8.784c2.753,-2.747 0.837,-17.208 -33.826,-22.147" style="fill:url(#_Radial3);stroke-width:9.78px;stroke:#000;"/><path id="Hair" d="M60.841,443.412c-123.697,-124.234 41.726,-272.68 148.368,-226.038c15.077,6.594 86.233,-49.314 150.887,13.584c68.39,66.533 25.619,127.764 19.411,131.821" style="fill:url(#_Radial4);stroke-width:9.78px;stroke:#000;"/><path id="Face" d="M93.743,321.869c-93.421,80.653 -19.095,241.225 115.344,242.844c30.704,0.37 109.944,6.613 155.613,-74.961c35.603,-63.595 24.893,-135.095 -11.766,-163.662c-2.825,-2.201 -25.22,22.439 -53.379,24.635c-36.596,2.854 -64.048,-22.547 -64.079,-22.494c-11.711,20.446 -62.97,28.855 -83.554,24.961c-37.596,-7.11 -55.9,-31.74 -58.179,-31.323Z" style="fill:url(#_Radial5);stroke-width:9.78px;stroke:#000;"/><path id="Nose" d="M189.043,439.104c12.058,-19.026 48.667,-13.628 60.183,-2.475" style="fill:none;stroke-width:9.78px;stroke:#000;"/><path id="Left Smile" d="M148.117,496.772c7.326,-11.889 15.697,-19.678 27.101,-23.581" style="fill:none;stroke-width:9.78px;stroke:#000;"/><path id="Lower Smile" d="M163.832,484.577c33.967,31.848 93.433,17.83 107.411,1.351" style="fill:none;stroke-width:9.78px;stroke:#000;"/><path id="Right Smile" d="M264.829,470.033c6.782,8.066 9.117,15.331 6.414,31.052" style="fill:none;stroke-width:9.78px;stroke:#000;"/><ellipse cx="154.254" cy="391.594" rx="14.623" ry="19.118" style="fill:#000;stroke-width:9.78px;stroke:#000;"/><ellipse cx="279.438" cy="391.594" rx="14.623" ry="19.118" style="fill:#000;stroke-width:9.78px;stroke:#000;"/></g><g id="Layer12"><path id="Lower Body1" d="M2071.24,851.179c-9.236,46.118 2.352,133.047 10.062,135.912c91.98,34.187 191.765,26.585 246.107,-3.605c6.414,-3.563 15.828,-59.407 10.346,-134.098c-85.773,32.107 -167.909,32.34 -266.515,1.791Z" style="fill:url(#_Radial6);stroke-width:9.78px;stroke-miterlimit:1;stroke:#000;"/><path id="Upper Body1" d="M2105.13,602.317c-10.199,-3.657 -85.244,18.511 -89.689,38.377c-9.847,44.001 -6.462,176.922 15.177,190.087c60.841,37.016 209.088,70.523 331.21,5.805c6.728,-3.566 24.654,-100.444 13.055,-199.581c-1.434,-12.252 -107.19,-42.584 -115.693,-37.005l-154.06,2.317Z" style="fill:url(#_Radial7);stroke-width:9.78px;stroke-miterlimit:1;stroke:#000;"/><path id="Face1" d="M2317.43,395.239c-11.796,15.888 -241.304,6.874 -244.573,10.99c-9.054,11.401 -44.076,222.38 114.115,226.958c184.945,5.352 136.19,-245.669 130.458,-237.948Z" style="fill:url(#_Linear8);stroke-width:9.78px;stroke-miterlimit:1;stroke:#000;"/><path id="Cowboy Hat" d="M1999.15,351.486c-6.583,1.184 -2.571,52.166 96.53,83.502c130.633,41.306 283.731,-34.978 296.055,-112.878c0.554,-3.503 -6.848,-3.334 -18.607,-1.512c-24.574,3.81 -49.499,15.536 -49.608,12.623c-8.168,-216.83 -125.416,-114.865 -135.51,-113.205c-5.89,0.968 -19.896,-23.695 -49.65,-20.022c-85.734,10.581 -64.153,148.697 -66.547,148.769c-15.904,0.481 -38.366,-3.45 -72.663,2.723Z" style="fill:url(#_Radial9);stroke-width:9.78px;stroke-miterlimit:1;stroke:#000;"/><path id="Right Eye" d="M2252.43,463.139c9.875,0.09 17.802,10.003 17.691,22.121c-0.111,12.119 -8.218,21.885 -18.092,21.794c-9.875,-0.09 -17.802,-10.002 -17.691,-22.121c0.111,-12.119 8.218,-21.884 18.092,-21.794Z" style="fill:#000;stroke-width:9.78px;stroke:#000;"/><path id="Left Eye" d="M2133.2,463.139c9.874,-0.08 17.971,9.695 18.068,21.813c0.098,12.119 -7.839,22.023 -17.714,22.102c-9.875,0.08 -17.971,-9.694 -18.069,-21.813c-0.097,-12.119 7.84,-22.022 17.715,-22.102Z" style="fill:#000;stroke-width:9.78px;stroke:#000;"/><path id="Nose1" d="M2169,524.577c6.569,-7.596 23.045,-23.658 44.204,-4.203" style="fill:none;stroke-width:9.78px;stroke-miterlimit:1;stroke:#000;"/><path id="Smile" d="M2122.9,576.692c1.888,-0.831 9.525,-4.025 17.009,-10.231c8.97,-7.439 13.121,-14.25 13.195,-14.193c0.081,0.062 -12.835,16.273 -12.835,16.273c0,0 22.544,12.643 50.804,12.447c28.26,-0.197 51.78,-14.693 51.381,-14.141c-6.121,8.466 -20.988,24.758 -51.381,24.754c-30.393,-0.003 -47.081,-20.8 -51.688,-22.272l-16.485,7.363Z" style="fill:#000;stroke-width:9.78px;stroke:#000;"/><path id="Chest Line" d="M2016.94,637.152c59.633,32.809 128.824,52.156 183.74,49.841c100.115,-4.22 154.942,-38.683 169.564,-49.189" style="fill:none;stroke-width:9.78px;stroke-miterlimit:1;stroke:#000;"/><path d="M2197.67,214.747c-9.689,5.83 -22.145,13.513 -38.442,30.746" style="fill:none;stroke-width:9.78px;stroke:#000;"/><path d="M2391.75,320.598c-12.004,18.087 -80.979,59.42 -109.537,63.04" style="fill:none;stroke-width:9.78px;stroke:#000;"/><path d="M2323.44,329.358c-0.099,8.664 0.038,23.201 -2.206,36.133" style="fill:none;stroke-width:9.78px;stroke:#000;"/><path d="M2072.05,347.424c0,4.64 2.154,15.418 2.667,18.067" style="fill:none;stroke-width:9.78px;stroke:#000;"/></g></g><defs><radialGradient id="_Radial1" cx="0" cy="0" r="1" gradientUnits="userSpaceOnUse" gradientTransform="matrix(275.317,-117.702,69.5424,162.667,89.6387,962.057)"><stop offset="0%" style="stop-color:#d3799a;stop-opacity:1"/><stop offset="100%" style="stop-color:#c24774;stop-opacity:1"/></radialGradient><radialGradient id="_Radial2" cx="0" cy="0" r="1" gradientUnits="userSpaceOnUse" gradientTransform="matrix(358.074,-209.623,90.4458,289.704,50.9833,799.844)"><stop offset="0%" style="stop-color:#d3799a;stop-opacity:1"/><stop offset="100%" style="stop-color:#c24774;stop-opacity:1"/></radialGradient><radialGradient id="_Radial3" cx="0" cy="0" r="1" gradientUnits="userSpaceOnUse" gradientTransform="matrix(285.741,-53.5556,72.1753,74.0153,72.1754,587.77)"><stop offset="0%" style="stop-color:#cda3ca;stop-opacity:1"/><stop offset="100%" style="stop-color:#b87db4;stop-opacity:1"/></radialGradient><radialGradient id="_Radial4" cx="0" cy="0" r="1" gradientUnits="userSpaceOnUse" gradientTransform="matrix(361.715,-164.455,91.3657,227.281,36.6879,391.914)"><stop offset="0%" style="stop-color:#a75216;stop-opacity:1"/><stop offset="100%" style="stop-color:#854000;stop-opacity:1"/></radialGradient><radialGradient id="_Radial5" cx="0" cy="0" r="1" gradientUnits="userSpaceOnUse" gradientTransform="matrix(325.72,-165.038,82.2737,228.087,60.8409,513.706)"><stop offset="0%" style="stop-color:#ffd9b8;stop-opacity:1"/><stop offset="100%" style="stop-color:#ffcd9e;stop-opacity:1"/></radialGradient><radialGradient id="_Radial6" cx="0" cy="0" r="1" gradientUnits="userSpaceOnUse" gradientTransform="matrix(239.851,-225.615,182.068,123.751,2285.12,914.321)"><stop offset="0%" style="stop-color:#2531dc;stop-opacity:1"/></radialGradient><radialGradient id="_Radial7" cx="0" cy="0" r="1" gradientUnits="userSpaceOnUse" gradientTransform="matrix(391.228,-244.485,181.68,290.727,2308.34,711.954)"><stop offset="0%" style="stop-color:#2531dc;stop-opacity:1"/></radialGradient><linearGradient id="_Linear8" x1="0" y1="0" x2="1" y2="0" gradientUnits="userSpaceOnUse" gradientTransform="matrix(285.684,-174.011,174.011,285.684,2057.95,568.813)"><stop offset="0%" style="stop-color:#dbbb9c;stop-opacity:1"/><stop offset="56%" style="stop-color:#d0a67c;stop-opacity:1"/><stop offset="100%" style="stop-color:#cb9d6e;stop-opacity:1"/></linearGradient><radialGradient id="_Radial9" cx="0" cy="0" r="1" gradientUnits="userSpaceOnUse" gradientTransform="matrix(-286.775,161.379,-102.49,-182.127,2314.6,246.74)"><stop offset="0%" style="stop-color:#d7c447;stop-opacity:1"/><stop offset="100%" style="stop-color:#e6d38c;stop-opacity:1"/></radialGradient></defs></svg>