<?xml version="1.0" standalone="no"?>
<!DOCTYPE svg PUBLIC "-//W3C//DTD SVG 1.1//EN" "http://www.w3.org/Graphics/SVG/1.1/DTD/svg11.dtd">
<svg width="100%" height="100%" viewBox="0 0 600 1200" version="1.1" xmlns="http://www.w3.org/2000/svg" xmlns:xlink="http://www.w3.org/1999/xlink" xml:space="preserve" style="fill-rule:evenodd;clip-rule:evenodd;stroke-linecap:round;stroke-linejoin:round;stroke-miterlimit:1.41421;">
    <g id="Layer1" transform="matrix(1,0,0,1,-300,0)">
        <g id="Lower Body" transform="matrix(1,0,0,1,-6.00184,-5.71544)">
            <path d="M801.514,957.697C671.984,925.15 559.017,923.777 422.531,957.122C394.705,1066.25 438.322,1144.65 438.322,1144.65C521.034,1189.33 715.094,1185.41 791.898,1144.62C791.898,1144.62 832.761,1060.04 801.514,957.697Z" style="fill:url(#_Radial1);stroke-width:14px;stroke:black;"/>
        </g>
        <g id="Upper Body" transform="matrix(1,0,0,1,7.98211,-3.0085)">
            <path d="M832.528,617.508C785.703,547.296 433.689,549.413 384.235,617.523C313.144,715.432 332.819,905.092 334.551,908.67C383.394,1009.53 830.025,1002.34 862.193,913.813C881.129,861.699 874.338,680.201 832.528,617.508Z" style="fill:url(#_Radial2);stroke-width:14px;stroke:black;"/>
        </g>
        <g id="Collar" transform="matrix(1,0,0,1,-5.73811,0.856199)">
            <path d="M449.085,492.547C441.844,493.124 377.314,517.616 382.408,530.351C384.39,535.307 407.988,532.608 408.669,533.947C408.876,534.355 388.318,556.383 401.467,569.142C432.102,598.868 480.667,577.805 484.071,584.656C496.526,609.72 569.287,613.222 596.761,600C627.224,585.34 636.139,584.339 650.301,584.656C666.001,585.008 681.57,603.708 711.92,600C734.698,597.217 737.892,584.425 770.269,592.415C835.138,608.422 846.775,574.187 802.088,548.996C797.321,546.309 812.599,551.922 828.128,536.425C832.068,532.493 829.325,511.797 779.718,504.73" style="fill:url(#_Radial3);stroke-width:14px;stroke:black;"/>
        </g>
        <g id="Hair" transform="matrix(1,0,0,1,-13.2122,5.84119)">
            <path d="M400.285,370.057C223.256,192.261 460,-20.188 612.621,46.563C634.199,56.001 736.034,-24.012 828.564,66.005C926.439,161.224 865.228,248.853 856.343,254.659" style="fill:url(#_Radial4);stroke-width:14px;stroke:black;"/>
        </g>
        <g id="Face" transform="matrix(1,0,0,1,-13.2122,5.84119)">
            <path d="M447.372,196.112C313.674,311.538 420.044,541.34 612.447,543.658C656.389,544.187 769.793,553.122 835.152,436.377C886.105,345.363 870.779,243.037 818.314,202.153C814.271,199.002 782.22,234.267 741.92,237.409C689.545,241.493 650.258,205.141 650.214,205.217C633.453,234.478 560.094,246.512 530.636,240.94C476.83,230.764 450.634,195.514 447.372,196.112Z" style="fill:url(#_Radial5);stroke-width:14px;stroke:black;"/>
        </g>
        <g id="Nose" transform="matrix(1,0,0,1,-13.2122,5.84119)">
            <path d="M583.761,363.892C601.018,336.664 653.41,344.389 669.891,360.35" style="fill:none;stroke-width:14px;stroke:black;"/>
        </g>
        <g id="Left Smile" transform="matrix(1,0,0,1,-13.2122,5.84119)">
            <path d="M525.19,446.424C535.674,429.409 547.655,418.262 563.975,412.677" style="fill:none;stroke-width:14px;stroke:black;"/>
        </g>
        <g id="Lower Smile" transform="matrix(1,0,0,1,-13.2122,5.84119)">
            <path d="M547.68,428.971C596.293,474.55 681.396,454.489 701.401,430.905" style="fill:none;stroke-width:14px;stroke:black;"/>
        </g>
        <g id="Right Smile" transform="matrix(1,0,0,1,-13.2122,5.84119)">
            <path d="M692.222,408.156C701.928,419.7 705.27,430.097 701.401,452.596" style="fill:none;stroke-width:14px;stroke:black;"/>
        </g>
        <g transform="matrix(1,0,0,1,-18.9454,-9.28975)">
            <ellipse cx="539.705" cy="311.029" rx="20.928" ry="27.361" style="fill:black;stroke-width:14px;stroke:black;"/>
        </g>
        <g transform="matrix(1,0,0,1,160.212,-9.28975)">
            <ellipse cx="539.705" cy="311.029" rx="20.928" ry="27.361" style="fill:black;stroke-width:14px;stroke:black;"/>
        </g>
    </g>
    <defs>
        <radialGradient id="_Radial1" cx="0" cy="0" r="1" gradientUnits="userSpaceOnUse" gradientTransform="matrix(394.02,-168.449,99.5256,232.801,434.288,1123.87)"><stop offset="0%" style="stop-color:rgb(211,121,154);stop-opacity:1"/><stop offset="100%" style="stop-color:rgb(194,71,116);stop-opacity:1"/></radialGradient>
        <radialGradient id="_Radial2" cx="0" cy="0" r="1" gradientUnits="userSpaceOnUse" gradientTransform="matrix(512.457,-300.001,129.442,414.61,364.983,889.015)"><stop offset="0%" style="stop-color:rgb(211,121,154);stop-opacity:1"/><stop offset="100%" style="stop-color:rgb(194,71,116);stop-opacity:1"/></radialGradient>
        <radialGradient id="_Radial3" cx="0" cy="0" r="1" gradientUnits="userSpaceOnUse" gradientTransform="matrix(408.938,-76.646,103.294,105.927,409.032,581.641)"><stop offset="0%" style="stop-color:rgb(205,163,202);stop-opacity:1"/><stop offset="100%" style="stop-color:rgb(184,125,180);stop-opacity:1"/></radialGradient>
        <radialGradient id="_Radial4" cx="0" cy="0" r="1" gradientUnits="userSpaceOnUse" gradientTransform="matrix(517.669,-235.359,130.758,325.273,365.718,296.357)"><stop offset="0%" style="stop-color:rgb(167,82,22);stop-opacity:1"/><stop offset="100%" style="stop-color:rgb(133,64,0);stop-opacity:1"/></radialGradient>
        <radialGradient id="_Radial5" cx="0" cy="0" r="1" gradientUnits="userSpaceOnUse" gradientTransform="matrix(466.155,-236.194,117.746,326.426,400.285,470.658)"><stop offset="0%" style="stop-color:rgb(255,217,184);stop-opacity:1"/><stop offset="100%" style="stop-color:rgb(255,205,158);stop-opacity:1"/></radialGradient>
    </defs>
</svg>
