<?xml version="1.0" standalone="no"?>
<!DOCTYPE svg PUBLIC "-//W3C//DTD SVG 1.1//EN" "http://www.w3.org/Graphics/SVG/1.1/DTD/svg11.dtd">
<svg width="100%" height="100%" viewBox="0 0 1800 560" version="1.1" xmlns="http://www.w3.org/2000/svg" xmlns:xlink="http://www.w3.org/1999/xlink" xml:space="preserve" style="fill-rule:evenodd;clip-rule:evenodd;stroke-linecap:round;stroke-linejoin:round;stroke-miterlimit:1;">
    <g id="Alice and Bob" transform="matrix(1,0,0,1,-60,-340)">
        <g id="bob_sad" transform="matrix(0.466667,0,0,0.466667,60,340)">
            <g id="Layer1" transform="matrix(1,0,0,1,-300,0)">
                <g id="Lower Body" transform="matrix(1,0,0,1,14.7399,3.31559)">
                    <path d="M414.763,956.16C401.544,1022.16 418.129,1146.57 429.162,1150.67C560.8,1199.6 703.607,1188.72 781.379,1145.51C790.558,1140.41 804.031,1060.49 796.185,953.596C673.431,999.545 555.882,999.879 414.763,956.16Z" style="fill:url(#_Radial1);stroke-width:14px;stroke:black;"/>
                </g>
                <g id="Upper Body" transform="matrix(1,0,0,1,14.7399,3.31559)">
                    <path d="M463.257,600C448.66,594.767 341.26,626.493 334.898,654.924C320.807,717.896 325.651,908.126 356.619,926.967C443.692,979.942 655.855,1027.9 830.63,935.274C840.26,930.171 865.914,791.525 849.313,649.644C847.262,632.11 695.909,588.7 683.74,596.684L463.257,600Z" style="fill:url(#_Radial2);stroke-width:14px;stroke:black;"/>
                </g>
                <g id="Face" transform="matrix(1,0,0,1,0.607137,9.01685)">
                    <path d="M781.219,297.94C764.337,320.678 435.876,307.777 431.198,313.669C418.241,329.985 368.119,631.926 594.514,638.478C859.198,646.138 789.423,286.89 781.219,297.94Z" style="fill:url(#_Linear3);stroke-width:14px;stroke:black;"/>
                </g>
                <g id="Cowboy Hat" transform="matrix(1,0,0,1,31.1652,8.11235)">
                    <path d="M295.156,236.226C285.734,237.922 291.476,310.885 433.305,355.731C620.259,414.846 839.367,305.673 857.004,194.185C857.797,189.172 847.203,189.413 830.374,192.022C795.205,197.474 759.534,214.255 759.377,210.087C747.688,-100.228 579.888,45.697 565.442,48.073C557.013,49.46 536.969,14.163 494.385,19.419C371.688,34.562 402.573,232.227 399.147,232.33C376.386,233.018 344.24,227.393 295.156,236.226Z" style="fill:url(#_Radial4);stroke-width:14px;stroke:black;"/>
                </g>
                <g id="Right Eye" transform="matrix(0.999958,0.00914364,-0.00914364,0.999958,211.851,13.3456)">
                    <ellipse cx="480.516" cy="417.834" rx="25.606" ry="31.426" style="fill:black;stroke-width:14px;stroke-miterlimit:1.41421;stroke:black;"/>
                </g>
                <g id="Left Eye" transform="matrix(0.999967,-0.00806357,0.00806357,0.999967,34.5604,21.61)">
                    <ellipse cx="480.516" cy="417.834" rx="25.606" ry="31.426" style="fill:black;stroke-width:14px;stroke-miterlimit:1.41421;stroke:black;"/>
                </g>
                <g id="Nose" transform="matrix(1,0,0,1.20707,21.7584,-88.7653)">
                    <path d="M547.641,481.186C557.042,472.18 580.621,453.136 610.903,476.203" style="fill:none;stroke-width:12.63px;stroke:black;"/>
                </g>
                <g id="Smile" transform="matrix(-1,0,0,-1,1181.08,1117.51)">
                    <path d="M579.242,574.772C535.744,574.768 506.534,541.77 506.534,541.77C506.534,541.77 538.797,559.864 579.242,559.582C619.686,559.301 653.347,538.555 652.776,539.346C644.016,551.461 622.739,574.777 579.242,574.772Z" style="fill:black;stroke-width:14px;stroke-miterlimit:1.41421;stroke:black;"/>
                </g>
                <g id="Chest Line" transform="matrix(1,0,0,1,14.7399,3.31559)">
                    <path d="M337.041,649.855C422.385,696.809 521.407,724.498 600,721.185C743.28,715.145 821.746,665.823 842.671,650.788" style="fill:none;stroke-width:14px;stroke:black;"/>
                </g>
                <g transform="matrix(1,0,0,1,31.1652,8.11235)">
                    <path d="M579.272,40.533C565.406,48.877 547.579,59.873 524.256,84.535" style="fill:none;stroke-width:14px;stroke-miterlimit:1.41421;stroke:black;"/>
                </g>
                <g transform="matrix(1,0,0,1,31.1652,8.11235)">
                    <path d="M857.021,192.022C839.843,217.907 741.128,277.061 700.258,282.241" style="fill:none;stroke-width:14px;stroke-miterlimit:1.41421;stroke:black;"/>
                </g>
                <g transform="matrix(1,0,0,1,31.1652,8.11235)">
                    <path d="M759.265,204.558C759.123,216.959 759.319,237.762 756.107,256.27" style="fill:none;stroke-width:14px;stroke-miterlimit:1.41421;stroke:black;"/>
                </g>
                <g transform="matrix(1,0,0,1,31.1652,8.11235)">
                    <path d="M399.486,230.414C399.486,237.055 402.57,252.479 403.303,256.27" style="fill:none;stroke-width:14px;stroke-miterlimit:1.41421;stroke:black;"/>
                </g>
            </g>
        </g>
        <g id="decrypt" transform="matrix(0.442479,0,0,0.442479,867.879,496.106)">
            <g transform="matrix(7.16998,0,0,3.79394,-3905.75,-1035.26)">
                <g id="Layer2">
                    <g>
                        <path d="M547.959,329.661L547.859,375.77L659.795,367.29L659.824,414.148L708.978,351.387L659.596,289.744L659.647,338.365L547.959,329.661Z" style="fill:url(#_Radial5);"/>
                        <path d="M660.031,286.147L660.673,286.665L710.054,348.308L710.596,349.321L710.891,350.648L710.895,352.088L710.607,353.421L710.071,354.445L660.917,417.205L660.276,417.738L659.576,417.808L658.909,417.407L658.359,416.588L657.998,415.454L657.871,414.152L657.845,371.131L547.937,379.457L547.313,379.313L546.746,378.803L546.295,377.979L546.004,376.926L545.906,375.754L546.007,329.645L546.109,328.48L546.402,327.435L546.854,326.619L547.419,326.114L548.04,325.974L657.69,334.519L657.644,289.751L657.767,288.453L658.124,287.32L658.67,286.496L659.333,286.088L660.031,286.147ZM659.647,338.365L547.959,329.661L547.859,375.77L659.795,367.29L659.824,414.148L708.978,351.387L659.596,289.744L659.647,338.365Z" style="fill:black;"/>
                    </g>
                </g>
            </g>
        </g>
        <g id="ciphertext_red" transform="matrix(0.378753,0,0,0.378753,433.505,392.748)">
            <g id="Layer11" transform="matrix(1,0,0,1,-100,0)">
                <g transform="matrix(1.05814,0,0,1.06583,-123.879,-73.7269)">
                    <path d="M1071.59,153.015L492.928,151.663L297.529,332.115L296.621,1111.21L1071.59,1111.21L1071.59,153.015Z" style="fill:white;stroke-width:13.18px;stroke-miterlimit:1.41421;stroke:rgb(255,0,0);"/>
                </g>
                <g transform="matrix(41.1801,0,0,41.1801,-18892.2,-24231.3)">
                    <text x="469.337px" y="606.582px" style="font-family:Times;font-size:12px;fill:rgb(255,0,0);stroke-width:0.02px;stroke-linecap:butt;stroke-miterlimit:1.41421;stroke:rgb(255,0,0);">C</text>
                </g>
                <g transform="matrix(0.851576,0,0,1,137.15,37.4824)">
                    <path d="M309.61,202.155L412.751,220.178L508.109,167.497L591.074,211.663L684.391,156.505L765.976,201.506L848.421,226.051L857.851,196.471L933.288,202.155" style="fill:none;stroke-width:11.84px;stroke-miterlimit:1.41421;stroke:rgb(255,0,0);"/>
                </g>
                <g transform="matrix(1,0,0,1,-1.37281,126.158)">
                    <path d="M269.458,202.155L374.303,229.189L444.933,177.108L517.109,206.379L559.062,243.348L608.379,187.351L716.597,232.833L807.952,163.466L875.879,215.399L933.288,202.155" style="fill:none;stroke-width:11px;stroke-miterlimit:1.41421;stroke:rgb(255,0,0);"/>
                </g>
                <g transform="matrix(1,0,0,1,-1.37281,623.279)">
                    <path d="M269.458,202.155L351.912,160.102L415.017,246.757L504.996,205.465L572.318,249.889L629.26,157.658L657.153,187.273L770.559,233.79L825.322,186.807L882.763,173.306L933.288,220.066" style="fill:none;stroke-width:11px;stroke-miterlimit:1.41421;stroke:rgb(255,0,0);"/>
                </g>
                <g transform="matrix(1,0,0,1,-1.37281,728.411)">
                    <path d="M269.458,202.155L351.957,241.204L403.106,229.929L482.487,167.748L592.578,207.805L710.852,153.378L730.635,214.444L912.137,181.14L933.288,202.155" style="fill:none;stroke-width:11px;stroke-miterlimit:1.41421;stroke:rgb(255,0,0);"/>
                </g>
                <g transform="matrix(1,0,0,1,-1.37281,815.519)">
                    <path d="M269.458,202.155L380.408,247.317L480.828,185.597L550.297,222.28L622.365,153.041L696.347,256.089L790.285,166L866.978,235.472L933.288,202.155" style="fill:none;stroke-width:11px;stroke-miterlimit:1.41421;stroke:rgb(255,0,0);"/>
                </g>
                <g transform="matrix(0.860411,0,0,1,128.904,-47.9369)">
                    <path d="M318.038,202.155L353.485,221.679L412.842,194.149L475.618,210.88L617.165,171.435L763.635,241.577L845.756,171.146L933.288,202.155" style="fill:none;stroke-width:11.79px;stroke-miterlimit:1.41421;stroke:rgb(255,0,0);"/>
                </g>
                <g transform="matrix(1,0,0,1.01407,100,-1.23684)">
                    <path d="M299.835,87.92L299.835,276.623L97.642,276.623" style="fill:none;stroke-width:13.9px;stroke-linecap:butt;stroke-miterlimit:1.41421;stroke:rgb(255,0,0);"/>
                </g>
            </g>
        </g>
        <g id="gibberish_red" transform="matrix(0.378753,0,0,0.378753,1437.83,392.748)">
            <g id="Layer12" transform="matrix(1,0,0,1,-100,0)">
                <g transform="matrix(1.05814,0,0,1.06583,-123.879,-73.7269)">
                    <path d="M1071.59,153.015L297.529,153.051L296.621,1111.21L1071.59,1111.21L1071.59,153.015Z" style="fill:white;stroke-width:13.18px;stroke-miterlimit:1.41421;stroke:rgb(255,44,45);"/>
                </g>
                <g transform="matrix(41.1801,0,0,41.1801,-19056.4,-24235.3)">
                    <text x="469.337px" y="606.582px" style="font-family:Times;font-size:12px;fill:rgb(255,44,45);stroke-width:0.02px;stroke-linecap:butt;stroke-miterlimit:1.41421;stroke:rgb(255,44,45);">???</text>
                </g>
                <g transform="matrix(1.06438,0,0,1,-61.4567,37.4824)">
                    <path d="M309.61,202.155L933.288,202.155" style="fill:none;stroke-width:10.65px;stroke-miterlimit:1.41421;stroke:rgb(255,44,45);"/>
                </g>
                <g transform="matrix(1,0,0,1,-1.37281,126.158)">
                    <path d="M269.458,202.155L933.288,202.155" style="fill:none;stroke-width:11px;stroke-miterlimit:1.41421;stroke:rgb(255,44,45);"/>
                </g>
                <g transform="matrix(1,0,0,1,-1.37281,632.29)">
                    <path d="M269.458,202.155L933.288,202.155" style="fill:none;stroke-width:11px;stroke-miterlimit:1.41421;stroke:rgb(255,44,45);"/>
                </g>
                <g transform="matrix(1,0,0,1,-1.37281,722.845)">
                    <path d="M269.458,202.155L933.288,202.155" style="fill:none;stroke-width:11px;stroke-miterlimit:1.41421;stroke:rgb(255,44,45);"/>
                </g>
                <g transform="matrix(1,0,0,1,-1.37281,815.519)">
                    <path d="M269.458,202.155L933.288,202.155" style="fill:none;stroke-width:11px;stroke-miterlimit:1.41421;stroke:rgb(255,44,45);"/>
                </g>
                <g transform="matrix(1.07896,0,0,1,-75.0646,-47.9369)">
                    <path d="M318.038,202.155L933.288,202.155" style="fill:none;stroke-width:10.57px;stroke-miterlimit:1.41421;stroke:rgb(255,44,45);"/>
                </g>
            </g>
        </g>
        <g id="key" transform="matrix(0.223436,0,0,0.223436,963.07,494.788)">
            <g id="Layer21" transform="matrix(1,0,0,1,-360,0)">
                <path d="M1026.34,487.029C1024.69,484.556 1027.15,481.125 1027.91,478.249C1029.68,471.477 1032.12,464.893 1033.9,458.123C1041.67,428.63 1045.83,398.701 1046.99,368.114C1057.16,99.603 665.396,-4.313 528.88,238.226C494.669,299.005 480.119,370.524 491.379,439.097C497.389,475.705 510.216,511.526 530.432,542.74C580.034,619.327 677.091,670.38 768.787,660.599C806.06,656.623 808.649,654.868 843.39,646.829C852.572,644.704 875.964,636.278 888.218,640.384C896.802,643.261 898.654,652.222 898.295,660.189C897.851,670.075 895.52,674.141 891.693,683.604C887.893,693.001 881.52,703.202 889.193,712.615C890.905,714.716 892.952,716.57 895.179,718.114C898.153,720.177 901.315,722.041 904.684,723.362C919.386,729.127 930.203,719.945 941.791,712.18C946.33,709.138 950.202,704.616 955.461,703.135C957.678,702.511 959.583,705.247 961.403,706.658C966.105,710.303 970.592,714.226 974.968,718.257C990.346,732.426 1005.7,746.628 1020.65,761.248C1113.79,852.329 1201.98,940.769 1292.64,1034.38C1315.9,1058.39 1337.99,1083.53 1361.42,1107.38C1364.61,1110.63 1375.16,1111.52 1377.92,1111.64C1404.38,1112.8 1416.48,1112.07 1443.05,1108.43C1449.41,1107.56 1465.22,1105.8 1468.11,1097.85C1470.82,1090.42 1470.87,1072.55 1470.8,1068.77C1470.46,1050.03 1469.43,1031.31 1468.26,1012.6C1467.91,1006.87 1461.91,1006.44 1461.23,1001.21C1460.21,993.299 1463.03,976.01 1456.12,969.847C1452.15,966.311 1425.95,966.717 1422.14,961.888C1421.58,961.165 1408.43,912.457 1406.47,906.543C1405.02,902.181 1404,897.431 1401.16,893.822C1399.63,891.877 1396.7,891.492 1394.26,891.053C1386.01,889.566 1375.5,893.666 1369.51,885.597C1361.37,874.617 1369.12,858.322 1358.88,848.262C1342.27,831.925 1313.79,841.419 1294.43,831.184C1286.13,826.795 1286.2,817.037 1284.9,809.25C1283.17,798.903 1282.4,792.626 1273.52,786.491C1256.91,775.01 1231.51,783.375 1217.48,767.189C1201.41,748.65 1206.17,724.505 1200.46,702.542C1197.67,691.785 1188.77,689.275 1178.97,687.529C1174.39,686.713 1166.23,687.471 1164.03,681.547C1159.02,668.018 1163.13,653.232 1159.84,639.471C1158.95,635.753 1155.93,632.881 1153.61,629.84C1139.7,611.596 1098.52,566.181 1093.01,560.07C1087.48,553.935 1133.95,529.608 1108.6,504.274C1085.95,481.634 1059.65,523.384 1053.21,516.343C1038.47,500.234 1026.34,487.029 1026.34,487.029ZM690.093,220.034C734.53,220.034 770.607,254.931 770.607,297.914C770.607,340.898 734.53,375.794 690.093,375.794C645.656,375.794 609.579,340.898 609.579,297.914C609.579,254.931 645.656,220.034 690.093,220.034Z" style="fill:url(#_Radial6);stroke-width:14px;stroke-miterlimit:1.41421;stroke:black;"/>
                <g transform="matrix(0.992631,0,0,0.992708,6.47944,4.12211)">
                    <path d="M879.316,565.256L1419.35,1110.94" style="fill:none;stroke-width:12.09px;stroke-miterlimit:1.41421;stroke:black;"/>
                </g>
                <g transform="matrix(1.00065,0,0,0.967579,46.8327,-22.285)">
                    <path d="M879.316,565.256L1419.35,1110.94" style="fill:none;stroke-width:12.19px;stroke-miterlimit:1.41421;stroke:black;"/>
                </g>
            </g>
        </g>
    </g>
    <defs>
        <radialGradient id="_Radial1" cx="0" cy="0" r="1" gradientUnits="userSpaceOnUse" gradientTransform="matrix(343.263,-322.889,260.567,177.106,720.844,1046.52)"><stop offset="0%" style="stop-color:rgb(37,49,220);stop-opacity:1"/></radialGradient>
        <radialGradient id="_Radial2" cx="0" cy="0" r="1" gradientUnits="userSpaceOnUse" gradientTransform="matrix(559.906,-349.895,260.012,416.073,754.079,756.908)"><stop offset="0%" style="stop-color:rgb(37,49,220);stop-opacity:1"/></radialGradient>
        <linearGradient id="_Linear3" x1="0" y1="0" x2="1" y2="0" gradientUnits="userSpaceOnUse" gradientTransform="matrix(408.857,-249.036,249.036,408.857,409.875,546.35)"><stop offset="0%" style="stop-color:rgb(219,187,156);stop-opacity:1"/><stop offset="56%" style="stop-color:rgb(208,166,124);stop-opacity:1"/><stop offset="100%" style="stop-color:rgb(203,157,110);stop-opacity:1"/></linearGradient>
        <radialGradient id="_Radial4" cx="0" cy="0" r="1" gradientUnits="userSpaceOnUse" gradientTransform="matrix(-410.417,230.957,-146.678,-260.651,746.616,86.3205)"><stop offset="0%" style="stop-color:rgb(215,196,71);stop-opacity:1"/><stop offset="100%" style="stop-color:rgb(230,211,140);stop-opacity:1"/></radialGradient>
        <radialGradient id="_Radial5" cx="0" cy="0" r="1" gradientUnits="userSpaceOnUse" gradientTransform="matrix(222.794,-0.15627,0.0815837,62.2017,547.365,352.762)"><stop offset="0%" style="stop-color:white;stop-opacity:1"/><stop offset="100%" style="stop-color:rgb(255,44,45);stop-opacity:1"/></radialGradient>
        <radialGradient id="_Radial6" cx="0" cy="0" r="1" gradientUnits="userSpaceOnUse" gradientTransform="matrix(377.639,143.824,-147.804,388.09,928.597,353.97)"><stop offset="0%" style="stop-color:rgb(255,215,0);stop-opacity:1"/><stop offset="100%" style="stop-color:rgb(255,238,149);stop-opacity:1"/></radialGradient>
    </defs>
</svg>
