<?xml version="1.0" standalone="no"?>
<!DOCTYPE svg PUBLIC "-//W3C//DTD SVG 1.1//EN" "http://www.w3.org/Graphics/SVG/1.1/DTD/svg11.dtd">
<svg width="100%" height="100%" viewBox="0 0 600 1200" version="1.1" xmlns="http://www.w3.org/2000/svg" xmlns:xlink="http://www.w3.org/1999/xlink" xml:space="preserve" style="fill-rule:evenodd;clip-rule:evenodd;stroke-linecap:round;stroke-linejoin:round;stroke-miterlimit:1;">
    <g id="Layer1" transform="matrix(1,0,0,1,-300,0)">
        <g id="Lower Body" transform="matrix(1,0,0,1,14.7399,3.31559)">
            <path d="M414.763,956.16C401.544,1022.16 418.129,1146.57 429.162,1150.67C560.8,1199.6 703.607,1188.72 781.379,1145.51C790.558,1140.41 804.031,1060.49 796.185,953.596C673.431,999.545 555.882,999.879 414.763,956.16Z" style="fill:url(#_Radial1);stroke-width:14px;stroke:black;"/>
        </g>
        <g id="Upper Body" transform="matrix(1,0,0,1,14.7399,3.31559)">
            <path d="M463.257,600C448.66,594.767 341.26,626.493 334.898,654.924C320.807,717.896 325.651,908.126 356.619,926.967C443.692,979.942 655.855,1027.9 830.63,935.274C840.26,930.171 865.914,791.525 849.313,649.644C847.262,632.11 695.909,588.7 683.74,596.684L463.257,600Z" style="fill:url(#_Radial2);stroke-width:14px;stroke:black;"/>
        </g>
        <g id="Face" transform="matrix(1,0,0,1,0.607137,9.01685)">
            <path d="M781.219,297.94C764.337,320.678 435.876,307.777 431.198,313.669C418.241,329.985 368.119,631.926 594.514,638.478C859.198,646.138 789.423,286.89 781.219,297.94Z" style="fill:url(#_Linear3);stroke-width:14px;stroke:black;"/>
        </g>
        <g id="Cowboy Hat" transform="matrix(1,0,0,1,31.1652,8.11235)">
            <path d="M295.156,236.226C285.734,237.922 291.476,310.885 433.305,355.731C620.259,414.846 839.367,305.673 857.004,194.185C857.797,189.172 847.203,189.413 830.374,192.022C795.205,197.474 759.534,214.255 759.377,210.087C747.688,-100.228 579.888,45.697 565.442,48.073C557.013,49.46 536.969,14.163 494.385,19.419C371.688,34.562 402.573,232.227 399.147,232.33C376.386,233.018 344.24,227.393 295.156,236.226Z" style="fill:url(#_Radial4);stroke-width:14px;stroke:black;"/>
        </g>
        <g id="Right Eye" transform="matrix(0.999958,0.00914364,-0.00914364,0.999958,211.851,13.3456)">
            <ellipse cx="480.516" cy="417.834" rx="25.606" ry="31.426" style="fill:black;stroke-width:14px;stroke-miterlimit:1.41421;stroke:black;"/>
        </g>
        <g id="Left Eye" transform="matrix(0.999967,-0.00806357,0.00806357,0.999967,34.5604,21.61)">
            <ellipse cx="480.516" cy="417.834" rx="25.606" ry="31.426" style="fill:black;stroke-width:14px;stroke-miterlimit:1.41421;stroke:black;"/>
        </g>
        <g id="Nose" transform="matrix(1,0,0,1.20707,21.7584,-88.7653)">
            <path d="M547.641,481.186C557.042,472.18 580.621,453.136 610.903,476.203" style="fill:none;stroke-width:12.63px;stroke:black;"/>
        </g>
        <g id="Smile" transform="matrix(-1,0,0,-1,1181.08,1117.51)">
            <path d="M579.242,574.772C535.744,574.768 506.534,541.77 506.534,541.77C506.534,541.77 538.797,559.864 579.242,559.582C619.686,559.301 653.347,538.555 652.776,539.346C644.016,551.461 622.739,574.777 579.242,574.772Z" style="fill:black;stroke-width:14px;stroke-miterlimit:1.41421;stroke:black;"/>
        </g>
        <g id="Chest Line" transform="matrix(1,0,0,1,14.7399,3.31559)">
            <path d="M337.041,649.855C422.385,696.809 521.407,724.498 600,721.185C743.28,715.145 821.746,665.823 842.671,650.788" style="fill:none;stroke-width:14px;stroke:black;"/>
        </g>
        <g transform="matrix(1,0,0,1,31.1652,8.11235)">
            <path d="M579.272,40.533C565.406,48.877 547.579,59.873 524.256,84.535" style="fill:none;stroke-width:14px;stroke-miterlimit:1.41421;stroke:black;"/>
        </g>
        <g transform="matrix(1,0,0,1,31.1652,8.11235)">
            <path d="M857.021,192.022C839.843,217.907 741.128,277.061 700.258,282.241" style="fill:none;stroke-width:14px;stroke-miterlimit:1.41421;stroke:black;"/>
        </g>
        <g transform="matrix(1,0,0,1,31.1652,8.11235)">
            <path d="M759.265,204.558C759.123,216.959 759.319,237.762 756.107,256.27" style="fill:none;stroke-width:14px;stroke-miterlimit:1.41421;stroke:black;"/>
        </g>
        <g transform="matrix(1,0,0,1,31.1652,8.11235)">
            <path d="M399.486,230.414C399.486,237.055 402.57,252.479 403.303,256.27" style="fill:none;stroke-width:14px;stroke-miterlimit:1.41421;stroke:black;"/>
        </g>
    </g>
    <defs>
        <radialGradient id="_Radial1" cx="0" cy="0" r="1" gradientUnits="userSpaceOnUse" gradientTransform="matrix(343.263,-322.889,260.567,177.106,720.844,1046.52)"><stop offset="0%" style="stop-color:rgb(37,49,220);stop-opacity:1"/></radialGradient>
        <radialGradient id="_Radial2" cx="0" cy="0" r="1" gradientUnits="userSpaceOnUse" gradientTransform="matrix(559.906,-349.895,260.012,416.073,754.079,756.908)"><stop offset="0%" style="stop-color:rgb(37,49,220);stop-opacity:1"/></radialGradient>
        <linearGradient id="_Linear3" x1="0" y1="0" x2="1" y2="0" gradientUnits="userSpaceOnUse" gradientTransform="matrix(408.857,-249.036,249.036,408.857,409.875,546.35)"><stop offset="0%" style="stop-color:rgb(219,187,156);stop-opacity:1"/><stop offset="56%" style="stop-color:rgb(208,166,124);stop-opacity:1"/><stop offset="100%" style="stop-color:rgb(203,157,110);stop-opacity:1"/></linearGradient>
        <radialGradient id="_Radial4" cx="0" cy="0" r="1" gradientUnits="userSpaceOnUse" gradientTransform="matrix(-410.417,230.957,-146.678,-260.651,746.616,86.3205)"><stop offset="0%" style="stop-color:rgb(215,196,71);stop-opacity:1"/><stop offset="100%" style="stop-color:rgb(230,211,140);stop-opacity:1"/></radialGradient>
    </defs>
</svg>
