<?xml version="1.0" standalone="no"?><!DOCTYPE svg PUBLIC "-//W3C//DTD SVG 1.1//EN" "http://www.w3.org/Graphics/SVG/1.1/DTD/svg11.dtd"><svg width="100%" height="100%" viewBox="0 0 600 1200" version="1.1" xmlns="http://www.w3.org/2000/svg" xmlns:xlink="http://www.w3.org/1999/xlink" xml:space="preserve" style="fill-rule:evenodd;clip-rule:evenodd;stroke-linecap:round;stroke-linejoin:round;stroke-miterlimit:1.41421;"><g id="Layer1"><path id="Hair" d="M550,215c-33.278,-172.809 -187.308,-191.979 -250,-191.858c-62.692,0.121 -220.213,22.856 -250,191.858c-21.663,122.906 32.623,258.858 30,285c-5.684,56.652 -70,13.479 -70,13.479c0,0 21.044,62.45 75,86.521c116.397,51.926 130.481,-50.813 140,-75c1.162,-2.953 -1.467,0.705 0,0c43.78,-21.031 148.024,-0.795 150,0c8.71,3.504 5.296,134.154 140,75c61.698,-27.094 75,-86.521 75,-86.521c0,0 -65.933,37.791 -70,-13.479c-2.297,-28.956 52.813,-166.533 30,-285Z" style="fill:url(#_Radial1);stroke-width:14px;stroke:#000;"/><path id="Lower Body" d="M475,950c-130.673,-34.13 -213.514,-33.345 -350,0c7.32,145.385 50,190 50,190c74.046,35.818 194.967,33.385 250,0c0,0 42.284,-38.382 50,-190Z" style="fill:url(#_Radial2);stroke-width:14px;stroke:#000;"/><path id="Upper Body" d="M530,924.994c0.093,24.576 -114.991,74.716 -230,75.006c-113.885,0.288 -229.503,-49.025 -230,-75.006c-2.713,-141.736 62.192,-392.919 230,-394.187c167.808,-1.268 229.437,245.522 230,394.187Z" style="fill:url(#_Radial3);stroke-width:14px;stroke:#000;"/><path id="Face" d="M117.59,290.108c-0.213,318.734 168.582,310.036 182.41,309.892c13.828,-0.144 181.708,9.081 179.169,-309.892c0,0 -66.35,-69.047 -179.169,-66.762c-112.819,2.284 -182.41,66.762 -182.41,66.762Z" style="fill:url(#_Radial4);stroke-width:14px;stroke:#000;"/><path id="Nose" d="M283.203,444.614c9.931,-9.325 21.414,-9.856 33.513,-5.077" style="fill:none;stroke-width:14px;stroke:#000;"/><path id="Smirk" d="M363.935,520.198c-27.365,33.256 -77.858,18.241 -80.732,15.177" style="fill:none;stroke-width:14px;stroke:#000;"/><path id="Right Eye" d="M356.341,380.974c13.378,-20.994 31.051,-31.947 60.101,-30.631" style="fill:none;stroke-width:14px;stroke:#000;"/><path id="Left Eye" d="M207.637,341.049c11.508,-0.997 21.909,10.408 23.213,25.452c1.304,15.045 -6.98,28.069 -18.487,29.066c-11.508,0.998 -21.909,-10.407 -23.213,-25.451c-1.304,-15.045 6.98,-28.069 18.487,-29.067Z" style="fill:#000;stroke-width:14px;stroke:#000;"/></g><defs><radialGradient id="_Radial1" cx="0" cy="0" r="1" gradientUnits="userSpaceOnUse" gradientTransform="matrix(593.801,-302.381,149.988,417.9,-3.87039,352.318)"><stop offset="0%" style="stop-color:#fdf8eb;stop-opacity:1"/><stop offset="100%" style="stop-color:#f2da91;stop-opacity:1"/></radialGradient><radialGradient id="_Radial2" cx="0" cy="0" r="1" gradientUnits="userSpaceOnUse" gradientTransform="matrix(389.844,-154.261,98.4707,213.194,110.976,1100)"><stop offset="0%" style="stop-color:#b3f;stop-opacity:1"/><stop offset="100%" style="stop-color:#410062;stop-opacity:1"/></radialGradient><radialGradient id="_Radial3" cx="0" cy="0" r="1" gradientUnits="userSpaceOnUse" gradientTransform="matrix(512.457,300.001,129.442,-414.61,51.4836,659.071)"><stop offset="0%" style="stop-color:#b3f;stop-opacity:1"/><stop offset="100%" style="stop-color:#410062;stop-opacity:1"/></radialGradient><radialGradient id="_Radial4" cx="0" cy="0" r="1" gradientUnits="userSpaceOnUse" gradientTransform="matrix(466.155,-266.118,117.746,367.782,71.4389,517.341)"><stop offset="0%" style="stop-color:#ffd9b8;stop-opacity:1"/><stop offset="100%" style="stop-color:#ffcd9e;stop-opacity:1"/></radialGradient></defs></svg>