<?xml version="1.0" standalone="no"?>
<!DOCTYPE svg PUBLIC "-//W3C//DTD SVG 1.1//EN" "http://www.w3.org/Graphics/SVG/1.1/DTD/svg11.dtd">
<svg width="100%" height="100%" viewBox="0 0 1200 900" version="1.1" xmlns="http://www.w3.org/2000/svg" xmlns:xlink="http://www.w3.org/1999/xlink" xml:space="preserve" style="fill-rule:evenodd;clip-rule:evenodd;stroke-linecap:round;stroke-linejoin:round;stroke-miterlimit:1.41421;">
    <g id="Arrow" transform="matrix(1,0,0,1,240,-300)">
        <g id="hashing" transform="matrix(0.473781,0,0,0.473781,168.132,407.335)">
            <g transform="matrix(7.16998,0,0,3.79394,-3905.75,-1035.26)">
                <g id="Layer2">
                    <g>
                        <path d="M547.959,329.661L547.859,375.77L659.795,367.29L659.824,414.148L708.978,351.387L659.596,289.744L659.647,338.365L547.959,329.661Z" style="fill:url(#_Radial1);"/>
                        <path d="M660.031,286.147L660.673,286.665L710.054,348.308L710.521,349.125L710.824,350.183L710.931,351.368L710.83,352.555L710.533,353.618L710.071,354.445L660.917,417.205L660.276,417.738L659.576,417.808L658.909,417.407L658.359,416.588L657.998,415.454L657.871,414.152L657.845,371.131L547.937,379.457L547.313,379.313L546.746,378.803L546.295,377.979L546.004,376.926L545.906,375.754L546.007,329.645L546.109,328.48L546.402,327.435L546.854,326.619L547.419,326.114L548.04,325.974L657.69,334.519L657.644,289.751L657.767,288.453L658.124,287.32L658.67,286.496L659.333,286.088L660.031,286.147ZM659.647,338.365L547.959,329.661L547.859,375.77L659.795,367.29L659.824,414.148L708.978,351.387L659.596,289.744L659.647,338.365Z" style="fill:black;"/>
                    </g>
                </g>
            </g>
        </g>
        <g id="hashing1" transform="matrix(0.473771,0,0,0.473771,168.132,359.961)">
            <g id="Layer21" transform="matrix(1,0,0,1,-360,-200)">
                <g transform="matrix(0.574724,0,0,0.614624,614.861,230.804)">
                    <path d="M798.779,52.657L860.344,52.657L884.522,130.454L935.994,150.639L1003.61,98.158L1053.07,138.453L1026.83,215.231L1054.08,254.592L1141.88,255.601L1160.05,311.11L1091.42,359.554L1091.49,407.998L1161.13,457.376L1141.96,512.885L1057.18,511.876L1024.96,554.264L1052.21,631.977L1002.75,669.319L931.054,619.791L882.653,635.004L857.422,712.717L792.83,714.735L770.627,636.014L719.155,618.856L651.535,668.349L601.072,630.967L629.331,552.246L601.072,512.759L513.267,512.759L495.101,455.232L564.739,408.806L564.739,357.334L496.11,308.89L513.267,253.381L599.35,256.452L632.655,210.027L603.387,133.324L655.868,98L722.478,149.547L774.959,131.38L798.779,52.657ZM828.722,227.082C916.452,227.082 987.679,298.308 987.679,386.039C987.679,473.77 916.452,544.996 828.722,544.996C740.991,544.996 669.765,473.77 669.765,386.039C669.765,298.308 740.991,227.082 828.722,227.082Z" style="fill:url(#_Radial2);stroke-width:23.53px;stroke:black;"/>
                </g>
                <g transform="matrix(0.574724,0,0,0.614624,353.263,497.538)">
                    <path d="M798.779,52.657L860.344,52.657L884.522,130.454L935.994,150.639L1003.61,98.158L1053.07,138.453L1026.83,215.231L1054.08,254.592L1141.88,255.601L1160.05,311.11L1091.42,359.554L1091.49,407.998L1161.13,457.376L1141.96,512.885L1057.18,511.876L1024.96,554.264L1052.21,631.977L1002.75,669.319L931.054,619.791L882.653,635.004L857.422,712.717L792.83,714.735L770.627,636.014L719.155,618.856L651.535,668.349L601.072,630.967L629.331,552.246L601.072,512.759L513.267,512.759L495.101,455.232L564.739,408.806L564.739,357.334L496.11,308.89L513.267,253.381L599.35,256.452L632.655,210.027L603.387,133.324L655.868,98L722.478,149.547L774.959,131.38L798.779,52.657ZM828.722,227.082C916.452,227.082 987.679,298.308 987.679,386.039C987.679,473.77 916.452,544.996 828.722,544.996C740.991,544.996 669.765,473.77 669.765,386.039C669.765,298.308 740.991,227.082 828.722,227.082Z" style="fill:url(#_Radial3);stroke-width:23.53px;stroke:black;"/>
                </g>
                <g transform="matrix(7.16998,0,0,3.79394,-3545.75,-735.263)">
                    <path d="M547.959,329.661L547.859,375.77L659.795,367.29L659.824,414.148L708.978,351.387L659.596,289.744L659.647,338.365L547.959,329.661Z" style="fill:url(#_Radial4);"/>
                    <path d="M660.031,286.147L660.673,286.665L710.054,348.308L710.521,349.125L710.824,350.183L710.931,351.368L710.83,352.555L710.533,353.618L710.071,354.445L660.917,417.205L660.276,417.738L659.576,417.808L658.909,417.407L658.359,416.588L657.998,415.454L657.871,414.152L657.845,371.131L547.937,379.457L547.313,379.313L546.746,378.803L546.295,377.979L546.004,376.926L545.906,375.754L546.007,329.645L546.109,328.48L546.402,327.435L546.854,326.619L547.419,326.114L548.04,325.974L657.69,334.519L657.644,289.751L657.767,288.453L658.124,287.32L658.67,286.496L659.333,286.088L660.031,286.147ZM659.647,338.365L547.959,329.661L547.859,375.77L659.795,367.29L659.824,414.148L708.978,351.387L659.596,289.744L659.647,338.365Z" style="fill:black;fill-opacity:0.8;"/>
                </g>
            </g>
        </g>
        <g id="hashing2" transform="matrix(0.473771,0,0,0.473771,168.132,815.638)">
            <g id="Layer22" transform="matrix(1,0,0,1,-360,-200)">
                <g transform="matrix(0.574724,0,0,0.614624,614.861,230.804)">
                    <path d="M798.779,52.657L860.344,52.657L884.522,130.454L935.994,150.639L1003.61,98.158L1053.07,138.453L1026.83,215.231L1054.08,254.592L1141.88,255.601L1160.05,311.11L1091.42,359.554L1091.49,407.998L1161.13,457.376L1141.96,512.885L1057.18,511.876L1024.96,554.264L1052.21,631.977L1002.75,669.319L931.054,619.791L882.653,635.004L857.422,712.717L792.83,714.735L770.627,636.014L719.155,618.856L651.535,668.349L601.072,630.967L629.331,552.246L601.072,512.759L513.267,512.759L495.101,455.232L564.739,408.806L564.739,357.334L496.11,308.89L513.267,253.381L599.35,256.452L632.655,210.027L603.387,133.324L655.868,98L722.478,149.547L774.959,131.38L798.779,52.657ZM828.722,227.082C916.452,227.082 987.679,298.308 987.679,386.039C987.679,473.77 916.452,544.996 828.722,544.996C740.991,544.996 669.765,473.77 669.765,386.039C669.765,298.308 740.991,227.082 828.722,227.082Z" style="fill:url(#_Radial5);stroke-width:23.53px;stroke:black;"/>
                </g>
                <g transform="matrix(0.574724,0,0,0.614624,353.263,497.538)">
                    <path d="M798.779,52.657L860.344,52.657L884.522,130.454L935.994,150.639L1003.61,98.158L1053.07,138.453L1026.83,215.231L1054.08,254.592L1141.88,255.601L1160.05,311.11L1091.42,359.554L1091.49,407.998L1161.13,457.376L1141.96,512.885L1057.18,511.876L1024.96,554.264L1052.21,631.977L1002.75,669.319L931.054,619.791L882.653,635.004L857.422,712.717L792.83,714.735L770.627,636.014L719.155,618.856L651.535,668.349L601.072,630.967L629.331,552.246L601.072,512.759L513.267,512.759L495.101,455.232L564.739,408.806L564.739,357.334L496.11,308.89L513.267,253.381L599.35,256.452L632.655,210.027L603.387,133.324L655.868,98L722.478,149.547L774.959,131.38L798.779,52.657ZM828.722,227.082C916.452,227.082 987.679,298.308 987.679,386.039C987.679,473.77 916.452,544.996 828.722,544.996C740.991,544.996 669.765,473.77 669.765,386.039C669.765,298.308 740.991,227.082 828.722,227.082Z" style="fill:url(#_Radial6);stroke-width:23.53px;stroke:black;"/>
                </g>
                <g transform="matrix(7.16998,0,0,3.79394,-3545.75,-735.263)">
                    <path d="M547.959,329.661L547.859,375.77L659.795,367.29L659.824,414.148L708.978,351.387L659.596,289.744L659.647,338.365L547.959,329.661Z" style="fill:url(#_Radial7);"/>
                    <path d="M660.031,286.147L660.673,286.665L710.054,348.308L710.521,349.125L710.824,350.183L710.931,351.368L710.83,352.555L710.533,353.618L710.071,354.445L660.917,417.205L660.276,417.738L659.576,417.808L658.909,417.407L658.359,416.588L657.998,415.454L657.871,414.152L657.845,371.131L547.937,379.457L547.313,379.313L546.746,378.803L546.295,377.979L546.004,376.926L545.906,375.754L546.007,329.645L546.109,328.48L546.402,327.435L546.854,326.619L547.419,326.114L548.04,325.974L657.69,334.519L657.644,289.751L657.767,288.453L658.124,287.32L658.67,286.496L659.333,286.088L660.031,286.147ZM659.647,338.365L547.959,329.661L547.859,375.77L659.795,367.29L659.824,414.148L708.978,351.387L659.596,289.744L659.647,338.365Z" style="fill:black;fill-opacity:0.8;"/>
                </g>
            </g>
        </g>
    </g>
    <g id="Layer1" transform="matrix(1,0,0,1,240,-300)">
        <g id="message_digest" transform="matrix(0.154621,0,0,0.154621,787.191,458.457)">
            <g id="Layer11" transform="matrix(1,0,0,1,-100,0)">
                <g transform="matrix(1.05814,0,0,1.06583,-123.879,-73.7269)">
                    <path d="M1071.59,153.015L297.529,153.051L296.621,1111.21L1071.59,1111.21L1071.59,153.015Z" style="fill:white;stroke-width:13.18px;stroke:black;"/>
                </g>
                <g transform="matrix(41.1801,0,0,41.1801,-18892.2,-24231.3)">
                    <text x="469.337px" y="606.582px" style="font-family:Times;font-size:12px;fill:black;">H</text>
                </g>
                <g transform="matrix(1.06438,0,0,1,-61.4567,37.4824)">
                    <path d="M309.61,202.155L933.288,202.155" style="fill:none;stroke-width:10.65px;stroke:black;"/>
                </g>
                <g transform="matrix(1,0,0,1,-1.37281,126.158)">
                    <path d="M269.458,202.155L933.288,202.155" style="fill:none;stroke-width:11px;stroke:black;"/>
                </g>
                <g transform="matrix(1,0,0,1,-1.37281,632.29)">
                    <path d="M269.458,202.155L933.288,202.155" style="fill:none;stroke-width:11px;stroke:black;"/>
                </g>
                <g transform="matrix(1,0,0,1,-1.37281,722.845)">
                    <path d="M269.458,202.155L933.288,202.155" style="fill:none;stroke-width:11px;stroke:black;"/>
                </g>
                <g transform="matrix(1,0,0,1,-1.37281,815.519)">
                    <path d="M269.458,202.155L933.288,202.155" style="fill:none;stroke-width:11px;stroke:black;"/>
                </g>
                <g transform="matrix(1.07896,0,0,1,-75.0646,-47.9369)">
                    <path d="M318.038,202.155L933.288,202.155" style="fill:none;stroke-width:10.57px;stroke:black;"/>
                </g>
            </g>
        </g>
        <g id="message_digest1" transform="matrix(0.154621,0,0,0.154621,787.191,913.455)">
            <g id="Layer12" transform="matrix(1,0,0,1,-100,0)">
                <g transform="matrix(1.05814,0,0,1.06583,-123.879,-73.7269)">
                    <path d="M1071.59,153.015L297.529,153.051L296.621,1111.21L1071.59,1111.21L1071.59,153.015Z" style="fill:white;stroke-width:13.18px;stroke:black;"/>
                </g>
                <g transform="matrix(41.1801,0,0,41.1801,-18892.2,-24231.3)">
                    <text x="469.337px" y="606.582px" style="font-family:Times;font-size:12px;fill:black;">H</text>
                </g>
                <g transform="matrix(1.06438,0,0,1,-61.4567,37.4824)">
                    <path d="M309.61,202.155L933.288,202.155" style="fill:none;stroke-width:10.65px;stroke:black;"/>
                </g>
                <g transform="matrix(1,0,0,1,-1.37281,126.158)">
                    <path d="M269.458,202.155L933.288,202.155" style="fill:none;stroke-width:11px;stroke:black;"/>
                </g>
                <g transform="matrix(1,0,0,1,-1.37281,632.29)">
                    <path d="M269.458,202.155L933.288,202.155" style="fill:none;stroke-width:11px;stroke:black;"/>
                </g>
                <g transform="matrix(1,0,0,1,-1.37281,722.845)">
                    <path d="M269.458,202.155L933.288,202.155" style="fill:none;stroke-width:11px;stroke:black;"/>
                </g>
                <g transform="matrix(1,0,0,1,-1.37281,815.519)">
                    <path d="M269.458,202.155L933.288,202.155" style="fill:none;stroke-width:11px;stroke:black;"/>
                </g>
                <g transform="matrix(1.07896,0,0,1,-75.0646,-47.9369)">
                    <path d="M318.038,202.155L933.288,202.155" style="fill:none;stroke-width:10.57px;stroke:black;"/>
                </g>
            </g>
        </g>
        <g id="message" transform="matrix(0.365549,0,0,0.365549,-240,768.099)">
            <g id="Layer13" transform="matrix(1,0,0,1,-100,0)">
                <g transform="matrix(1.05814,0,0,1.06583,-123.879,-73.7269)">
                    <path d="M1071.59,153.015L492.928,151.663L297.529,332.115L296.621,1111.21L1071.59,1111.21L1071.59,153.015Z" style="fill:white;stroke-width:13.18px;stroke:black;"/>
                </g>
                <g transform="matrix(1,0,0,1.25812,39.8805,-23.1609)">
                    <path d="M360.519,239.868L360.519,89.73L360.519,239.868Z" style="fill:none;stroke-width:12.32px;stroke-linecap:square;stroke:black;"/>
                </g>
                <g transform="matrix(1.22166,0,0,11.8473,-42.9922,-2588.67)">
                    <path d="M362.865,242.347L193.96,242.214L362.865,242.347Z" style="fill:none;stroke-width:1.66px;stroke-linecap:square;stroke:black;"/>
                </g>
                <g transform="matrix(41.1801,0,0,41.1801,-18864.8,-24231.3)">
                    <text x="469.337px" y="606.582px" style="font-family:Times;font-size:12px;fill:black;">P</text>
                </g>
                <g transform="matrix(0.851576,0,0,1,137.15,37.4824)">
                    <path d="M309.61,202.155L933.288,202.155" style="fill:none;stroke-width:11.84px;stroke:black;"/>
                </g>
                <g transform="matrix(1,0,0,1,-1.37281,126.158)">
                    <path d="M269.458,202.155L933.288,202.155" style="fill:none;stroke-width:11px;stroke:black;"/>
                </g>
                <g transform="matrix(1,0,0,1,-1.37281,632.29)">
                    <path d="M269.458,202.155L933.288,202.155" style="fill:none;stroke-width:11px;stroke:black;"/>
                </g>
                <g transform="matrix(1,0,0,1,-1.37281,728.411)">
                    <path d="M269.458,202.155L933.288,202.155" style="fill:none;stroke-width:11px;stroke:black;"/>
                </g>
                <g transform="matrix(1,0,0,1,-1.37281,815.519)">
                    <path d="M269.458,202.155L933.288,202.155" style="fill:none;stroke-width:11px;stroke:black;"/>
                </g>
                <g transform="matrix(0.860411,0,0,1,128.904,-47.9369)">
                    <path d="M318.038,202.155L933.288,202.155" style="fill:none;stroke-width:11.79px;stroke:black;"/>
                </g>
            </g>
        </g>
        <g id="message1" transform="matrix(0.0810543,0,0,0.0810543,-86.5423,502.597)">
            <g id="Layer14" transform="matrix(1,0,0,1,-100,0)">
                <g transform="matrix(1.05814,0,0,1.06583,-123.879,-73.7269)">
                    <path d="M1071.59,153.015L492.928,151.663L297.529,332.115L296.621,1111.21L1071.59,1111.21L1071.59,153.015Z" style="fill:white;stroke-width:13.18px;stroke:black;"/>
                </g>
                <g transform="matrix(1,0,0,1.25812,39.8805,-23.1609)">
                    <path d="M360.519,239.868L360.519,89.73L360.519,239.868Z" style="fill:none;stroke-width:12.32px;stroke-linecap:square;stroke:black;"/>
                </g>
                <g transform="matrix(1.22166,0,0,11.8473,-42.9922,-2588.67)">
                    <path d="M362.865,242.347L193.96,242.214L362.865,242.347Z" style="fill:none;stroke-width:1.66px;stroke-linecap:square;stroke:black;"/>
                </g>
                <g transform="matrix(41.1801,0,0,41.1801,-18864.8,-24231.3)">
                    <text x="469.337px" y="606.582px" style="font-family:Times;font-size:12px;fill:black;">P</text>
                </g>
                <g transform="matrix(0.851576,0,0,1,137.15,37.4824)">
                    <path d="M309.61,202.155L933.288,202.155" style="fill:none;stroke-width:11.84px;stroke:black;"/>
                </g>
                <g transform="matrix(1,0,0,1,-1.37281,126.158)">
                    <path d="M269.458,202.155L933.288,202.155" style="fill:none;stroke-width:11px;stroke:black;"/>
                </g>
                <g transform="matrix(1,0,0,1,-1.37281,632.29)">
                    <path d="M269.458,202.155L933.288,202.155" style="fill:none;stroke-width:11px;stroke:black;"/>
                </g>
                <g transform="matrix(1,0,0,1,-1.37281,728.411)">
                    <path d="M269.458,202.155L933.288,202.155" style="fill:none;stroke-width:11px;stroke:black;"/>
                </g>
                <g transform="matrix(1,0,0,1,-1.37281,815.519)">
                    <path d="M269.458,202.155L933.288,202.155" style="fill:none;stroke-width:11px;stroke:black;"/>
                </g>
                <g transform="matrix(0.860411,0,0,1,128.904,-47.9369)">
                    <path d="M318.038,202.155L933.288,202.155" style="fill:none;stroke-width:11.79px;stroke:black;"/>
                </g>
            </g>
        </g>
    </g>
    <defs>
        <radialGradient id="_Radial1" cx="0" cy="0" r="1" gradientUnits="userSpaceOnUse" gradientTransform="matrix(222.794,-0.15627,0.0815837,62.2017,547.365,352.762)"><stop offset="0%" style="stop-color:white;stop-opacity:1"/><stop offset="49%" style="stop-color:rgb(227,240,228);stop-opacity:1"/><stop offset="100%" style="stop-color:rgb(142,197,146);stop-opacity:1"/></radialGradient>
        <radialGradient id="_Radial2" cx="0" cy="0" r="1" gradientUnits="userSpaceOnUse" gradientTransform="matrix(-277.78,268.53,-428.535,-443.297,542.498,668.305)"><stop offset="0%" style="stop-color:rgb(207,207,207);stop-opacity:1"/><stop offset="100%" style="stop-color:rgb(115,115,115);stop-opacity:1"/></radialGradient>
        <radialGradient id="_Radial3" cx="0" cy="0" r="1" gradientUnits="userSpaceOnUse" gradientTransform="matrix(-341.406,281.65,-449.473,-544.835,1010.38,224.749)"><stop offset="0%" style="stop-color:rgb(207,207,207);stop-opacity:1"/><stop offset="100%" style="stop-color:rgb(115,115,115);stop-opacity:1"/></radialGradient>
        <radialGradient id="_Radial4" cx="0" cy="0" r="1" gradientUnits="userSpaceOnUse" gradientTransform="matrix(222.794,-0.15627,0.0815837,62.2017,547.365,352.762)"><stop offset="0%" style="stop-color:white;stop-opacity:0.8"/><stop offset="49%" style="stop-color:rgb(227,240,228);stop-opacity:0.8"/><stop offset="100%" style="stop-color:rgb(142,197,146);stop-opacity:0.8"/></radialGradient>
        <radialGradient id="_Radial5" cx="0" cy="0" r="1" gradientUnits="userSpaceOnUse" gradientTransform="matrix(-277.78,268.53,-428.535,-443.297,542.498,668.305)"><stop offset="0%" style="stop-color:rgb(207,207,207);stop-opacity:1"/><stop offset="100%" style="stop-color:rgb(115,115,115);stop-opacity:1"/></radialGradient>
        <radialGradient id="_Radial6" cx="0" cy="0" r="1" gradientUnits="userSpaceOnUse" gradientTransform="matrix(-341.406,281.65,-449.473,-544.835,1010.38,224.749)"><stop offset="0%" style="stop-color:rgb(207,207,207);stop-opacity:1"/><stop offset="100%" style="stop-color:rgb(115,115,115);stop-opacity:1"/></radialGradient>
        <radialGradient id="_Radial7" cx="0" cy="0" r="1" gradientUnits="userSpaceOnUse" gradientTransform="matrix(222.794,-0.15627,0.0815837,62.2017,547.365,352.762)"><stop offset="0%" style="stop-color:white;stop-opacity:0.8"/><stop offset="49%" style="stop-color:rgb(227,240,228);stop-opacity:0.8"/><stop offset="100%" style="stop-color:rgb(142,197,146);stop-opacity:0.8"/></radialGradient>
    </defs>
</svg>
