<?xml version="1.0" standalone="no"?>
<!DOCTYPE svg PUBLIC "-//W3C//DTD SVG 1.1//EN" "http://www.w3.org/Graphics/SVG/1.1/DTD/svg11.dtd">
<svg width="100%" height="100%" viewBox="0 0 1000 440" version="1.1" xmlns="http://www.w3.org/2000/svg" xmlns:xlink="http://www.w3.org/1999/xlink" xml:space="preserve" style="fill-rule:evenodd;clip-rule:evenodd;stroke-linecap:round;stroke-linejoin:round;stroke-miterlimit:1;">
    <g id="Alice and Bob" transform="matrix(1,0,0,1,-60,-460)">
        <g id="bob" transform="matrix(0.366667,0,0,0.366667,89.8276,460)">
            <g id="Layer1" transform="matrix(1,0,0,1,-300,0)">
                <g id="Lower Body" transform="matrix(1,0,0,1,14.7399,3.31559)">
                    <path d="M414.763,956.16C401.544,1022.16 418.129,1146.57 429.162,1150.67C560.8,1199.6 703.607,1188.72 781.379,1145.51C790.558,1140.41 804.031,1060.49 796.185,953.596C673.431,999.545 555.882,999.879 414.763,956.16Z" style="fill:url(#_Radial1);stroke-width:14px;stroke:black;"/>
                </g>
                <g id="Upper Body" transform="matrix(1,0,0,1,14.7399,3.31559)">
                    <path d="M463.257,600C448.66,594.767 341.26,626.493 334.898,654.924C320.807,717.896 325.651,908.126 356.619,926.967C443.692,979.942 655.855,1027.9 830.63,935.274C840.26,930.171 865.914,791.525 849.313,649.644C847.262,632.11 695.909,588.7 683.74,596.684L463.257,600Z" style="fill:url(#_Radial2);stroke-width:14px;stroke:black;"/>
                </g>
                <g id="Face" transform="matrix(1,0,0,1,0.607137,9.01685)">
                    <path d="M781.219,297.94C764.337,320.678 435.876,307.777 431.198,313.669C418.241,329.985 368.119,631.926 594.514,638.478C859.198,646.138 789.423,286.89 781.219,297.94Z" style="fill:url(#_Linear3);stroke-width:14px;stroke:black;"/>
                </g>
                <g id="Cowboy Hat" transform="matrix(1,0,0,1,31.1652,8.11235)">
                    <path d="M295.156,236.226C285.734,237.922 291.476,310.885 433.305,355.731C620.259,414.846 839.367,305.673 857.004,194.185C857.797,189.172 847.203,189.413 830.374,192.022C795.205,197.474 759.534,214.255 759.377,210.087C747.688,-100.228 579.888,45.697 565.442,48.073C557.013,49.46 536.969,14.163 494.385,19.419C371.688,34.562 402.573,232.227 399.147,232.33C376.386,233.018 344.24,227.393 295.156,236.226Z" style="fill:url(#_Radial4);stroke-width:14px;stroke:black;"/>
                </g>
                <g id="Right Eye" transform="matrix(0.999958,0.00914364,-0.00914364,0.999958,211.851,13.3456)">
                    <ellipse cx="480.516" cy="417.834" rx="25.606" ry="31.426" style="fill:black;stroke-width:14px;stroke-miterlimit:1.41421;stroke:black;"/>
                </g>
                <g id="Left Eye" transform="matrix(0.999967,-0.00806357,0.00806357,0.999967,34.5604,21.61)">
                    <ellipse cx="480.516" cy="417.834" rx="25.606" ry="31.426" style="fill:black;stroke-width:14px;stroke-miterlimit:1.41421;stroke:black;"/>
                </g>
                <g id="Nose" transform="matrix(1,0,0,1.20707,21.7584,-88.7653)">
                    <path d="M547.641,481.186C557.042,472.18 580.621,453.136 610.903,476.203" style="fill:none;stroke-width:12.63px;stroke:black;"/>
                </g>
                <g id="Smile" transform="matrix(1,0,0,1,21.7584,13.208)">
                    <path d="M481.676,553.435C484.379,552.245 495.307,547.674 506.018,538.793C518.856,528.147 524.796,518.4 524.902,518.48C525.019,518.569 506.534,541.77 506.534,541.77C506.534,541.77 538.797,559.864 579.242,559.582C619.686,559.301 653.347,538.555 652.776,539.346C644.016,551.461 622.739,574.777 579.242,574.772C535.744,574.768 511.862,545.003 505.268,542.897L481.676,553.435Z" style="fill:black;stroke-width:14px;stroke-miterlimit:1.41421;stroke:black;"/>
                </g>
                <g id="Chest Line" transform="matrix(1,0,0,1,14.7399,3.31559)">
                    <path d="M337.041,649.855C422.385,696.809 521.407,724.498 600,721.185C743.28,715.145 821.746,665.823 842.671,650.788" style="fill:none;stroke-width:14px;stroke:black;"/>
                </g>
                <g transform="matrix(1,0,0,1,31.1652,8.11235)">
                    <path d="M579.272,40.533C565.406,48.877 547.579,59.873 524.256,84.535" style="fill:none;stroke-width:14px;stroke-miterlimit:1.41421;stroke:black;"/>
                </g>
                <g transform="matrix(1,0,0,1,31.1652,8.11235)">
                    <path d="M857.021,192.022C839.843,217.907 741.128,277.061 700.258,282.241" style="fill:none;stroke-width:14px;stroke-miterlimit:1.41421;stroke:black;"/>
                </g>
                <g transform="matrix(1,0,0,1,31.1652,8.11235)">
                    <path d="M759.265,204.558C759.123,216.959 759.319,237.762 756.107,256.27" style="fill:none;stroke-width:14px;stroke-miterlimit:1.41421;stroke:black;"/>
                </g>
                <g transform="matrix(1,0,0,1,31.1652,8.11235)">
                    <path d="M399.486,230.414C399.486,237.055 402.57,252.479 403.303,256.27" style="fill:none;stroke-width:14px;stroke-miterlimit:1.41421;stroke:black;"/>
                </g>
            </g>
        </g>
        <g id="plaintext" transform="matrix(0.141934,0,0,0.141934,336.507,492.859)">
            <g id="Layer11" transform="matrix(1,0,0,1,-100,0)">
                <g transform="matrix(1.05814,0,0,1.06583,-123.879,-73.7269)">
                    <path d="M1071.59,153.015L492.928,151.663L297.529,332.115L296.621,1111.21L1071.59,1111.21L1071.59,153.015Z" style="fill:white;stroke-width:13.18px;stroke-miterlimit:1.41421;stroke:black;"/>
                </g>
                <g transform="matrix(41.1801,0,0,41.1801,-18864.8,-24231.3)">
                    <text x="469.337px" y="606.582px" style="font-family:Times;font-size:12px;fill:black;">P</text>
                </g>
                <g transform="matrix(0.851576,0,0,1,137.15,37.4824)">
                    <path d="M309.61,202.155L933.288,202.155" style="fill:none;stroke-width:11.84px;stroke-miterlimit:1.41421;stroke:black;"/>
                </g>
                <g transform="matrix(1,0,0,1,-1.37281,126.158)">
                    <path d="M269.458,202.155L933.288,202.155" style="fill:none;stroke-width:11px;stroke-miterlimit:1.41421;stroke:black;"/>
                </g>
                <g transform="matrix(1,0,0,1,-1.37281,632.29)">
                    <path d="M269.458,202.155L933.288,202.155" style="fill:none;stroke-width:11px;stroke-miterlimit:1.41421;stroke:black;"/>
                </g>
                <g transform="matrix(1,0,0,1,-1.37281,722.845)">
                    <path d="M269.458,202.155L933.288,202.155" style="fill:none;stroke-width:11px;stroke-miterlimit:1.41421;stroke:black;"/>
                </g>
                <g transform="matrix(1,0,0,1,-1.37281,815.519)">
                    <path d="M269.458,202.155L933.288,202.155" style="fill:none;stroke-width:11px;stroke-miterlimit:1.41421;stroke:black;"/>
                </g>
                <g transform="matrix(0.860411,0,0,1,128.904,-47.9369)">
                    <path d="M318.038,202.155L933.288,202.155" style="fill:none;stroke-width:11.79px;stroke-miterlimit:1.41421;stroke:black;"/>
                </g>
                <g transform="matrix(1,0,0,1.01407,100,-1.23684)">
                    <path d="M299.835,87.92L299.835,276.623L97.642,276.623" style="fill:none;stroke-width:13.9px;stroke-linecap:butt;stroke-miterlimit:1.41421;stroke:black;"/>
                </g>
            </g>
        </g>
        <g id="hashing" transform="matrix(0.296485,0,0,0.296485,515.267,460)">
            <g id="Layer2" transform="matrix(1,0,0,1,-360,-200)">
                <g transform="matrix(0.574724,0,0,0.614624,614.861,230.804)">
                    <path d="M798.779,52.657L860.344,52.657L884.522,130.454L935.994,150.639L1003.61,98.158L1053.07,138.453L1026.83,215.231L1054.08,254.592L1141.88,255.601L1160.05,311.11L1091.42,359.554L1091.49,407.998L1161.13,457.376L1141.96,512.885L1057.18,511.876L1024.96,554.264L1052.21,631.977L1002.75,669.319L931.054,619.791L882.653,635.004L857.422,712.717L792.83,714.735L770.627,636.014L719.155,618.856L651.535,668.349L601.072,630.967L629.331,552.246L601.072,512.759L513.267,512.759L495.101,455.232L564.739,408.806L564.739,357.334L496.11,308.89L513.267,253.381L599.35,256.452L632.655,210.027L603.387,133.324L655.868,98L722.478,149.547L774.959,131.38L798.779,52.657ZM828.722,227.082C916.452,227.082 987.679,298.308 987.679,386.039C987.679,473.77 916.452,544.996 828.722,544.996C740.991,544.996 669.765,473.77 669.765,386.039C669.765,298.308 740.991,227.082 828.722,227.082Z" style="fill:url(#_Radial5);stroke-width:23.53px;stroke-miterlimit:1.41421;stroke:black;"/>
                </g>
                <g transform="matrix(0.574724,0,0,0.614624,353.263,497.538)">
                    <path d="M798.779,52.657L860.344,52.657L884.522,130.454L935.994,150.639L1003.61,98.158L1053.07,138.453L1026.83,215.231L1054.08,254.592L1141.88,255.601L1160.05,311.11L1091.42,359.554L1091.49,407.998L1161.13,457.376L1141.96,512.885L1057.18,511.876L1024.96,554.264L1052.21,631.977L1002.75,669.319L931.054,619.791L882.653,635.004L857.422,712.717L792.83,714.735L770.627,636.014L719.155,618.856L651.535,668.349L601.072,630.967L629.331,552.246L601.072,512.759L513.267,512.759L495.101,455.232L564.739,408.806L564.739,357.334L496.11,308.89L513.267,253.381L599.35,256.452L632.655,210.027L603.387,133.324L655.868,98L722.478,149.547L774.959,131.38L798.779,52.657ZM828.722,227.082C916.452,227.082 987.679,298.308 987.679,386.039C987.679,473.77 916.452,544.996 828.722,544.996C740.991,544.996 669.765,473.77 669.765,386.039C669.765,298.308 740.991,227.082 828.722,227.082Z" style="fill:url(#_Radial6);stroke-width:23.53px;stroke-miterlimit:1.41421;stroke:black;"/>
                </g>
                <g transform="matrix(7.16998,0,0,3.79394,-3545.75,-735.263)">
                    <path d="M547.959,329.661L547.859,375.77L659.795,367.29L659.824,414.148L708.978,351.387L659.596,289.744L659.647,338.365L547.959,329.661Z" style="fill:url(#_Radial7);"/>
                    <path d="M660.673,286.665L710.054,348.308L710.596,349.321L710.891,350.648L710.895,352.088L710.607,353.421L710.071,354.445L660.917,417.205L660.138,417.79L659.3,417.703L658.56,416.96L658.052,415.699L657.871,414.152L657.845,371.131L547.937,379.457L547.164,379.218L546.503,378.425L546.06,377.205L545.906,375.754L546.007,329.645L546.165,328.203L546.61,326.993L547.27,326.208L548.04,325.974L657.69,334.519L657.644,289.751L657.821,288.208L658.323,286.946L659.059,286.197L659.893,286.097L660.673,286.665ZM659.647,338.365L547.959,329.661L547.859,375.77L659.795,367.29L659.824,414.148L708.978,351.387L659.596,289.744L659.647,338.365Z" style="fill:black;fill-opacity:0.8;"/>
                </g>
            </g>
        </g>
        <g id="message_digest" transform="matrix(0.141949,0,0,0.141949,898.558,492.841)">
            <g id="Layer12" transform="matrix(1,0,0,1,-100,0)">
                <g transform="matrix(1.05814,0,0,1.06583,-123.879,-73.7269)">
                    <path d="M1071.59,153.015L297.529,153.051L296.621,1111.21L1071.59,1111.21L1071.59,153.015Z" style="fill:white;stroke-width:13.18px;stroke-miterlimit:1.41421;stroke:black;"/>
                </g>
                <g transform="matrix(41.1801,0,0,41.1801,-18892.2,-24231.3)">
                    <text x="469.337px" y="606.582px" style="font-family:Times;font-size:12px;fill:black;">H</text>
                </g>
                <g transform="matrix(1.06438,0,0,1,-61.4567,37.4824)">
                    <path d="M309.61,202.155L933.288,202.155" style="fill:none;stroke-width:10.65px;stroke-miterlimit:1.41421;stroke:black;"/>
                </g>
                <g transform="matrix(1,0,0,1,-1.37281,126.158)">
                    <path d="M269.458,202.155L933.288,202.155" style="fill:none;stroke-width:11px;stroke-miterlimit:1.41421;stroke:black;"/>
                </g>
                <g transform="matrix(1,0,0,1,-1.37281,632.29)">
                    <path d="M269.458,202.155L933.288,202.155" style="fill:none;stroke-width:11px;stroke-miterlimit:1.41421;stroke:black;"/>
                </g>
                <g transform="matrix(1,0,0,1,-1.37281,722.845)">
                    <path d="M269.458,202.155L933.288,202.155" style="fill:none;stroke-width:11px;stroke-miterlimit:1.41421;stroke:black;"/>
                </g>
                <g transform="matrix(1,0,0,1,-1.37281,815.519)">
                    <path d="M269.458,202.155L933.288,202.155" style="fill:none;stroke-width:11px;stroke-miterlimit:1.41421;stroke:black;"/>
                </g>
                <g transform="matrix(1.07896,0,0,1,-75.0646,-47.9369)">
                    <path d="M318.038,202.155L933.288,202.155" style="fill:none;stroke-width:10.57px;stroke-miterlimit:1.41421;stroke:black;"/>
                </g>
            </g>
        </g>
        <g id="message_digest1" transform="matrix(0.0602521,0,0,0.0602521,377.348,779.056)">
            <g id="Layer13" transform="matrix(1,0,0,1,-100,0)">
                <g transform="matrix(1.05814,0,0,1.06583,-123.879,-73.7269)">
                    <path d="M1071.59,153.015L297.529,153.051L296.621,1111.21L1071.59,1111.21L1071.59,153.015Z" style="fill:white;stroke-width:13.18px;stroke-miterlimit:1.41421;stroke:black;"/>
                </g>
                <g transform="matrix(41.1801,0,0,41.1801,-18892.2,-24231.3)">
                    <text x="469.337px" y="606.582px" style="font-family:Times;font-size:12px;fill:black;">H</text>
                </g>
                <g transform="matrix(1.06438,0,0,1,-61.4567,37.4824)">
                    <path d="M309.61,202.155L933.288,202.155" style="fill:none;stroke-width:10.65px;stroke-miterlimit:1.41421;stroke:black;"/>
                </g>
                <g transform="matrix(1,0,0,1,-1.37281,126.158)">
                    <path d="M269.458,202.155L933.288,202.155" style="fill:none;stroke-width:11px;stroke-miterlimit:1.41421;stroke:black;"/>
                </g>
                <g transform="matrix(1,0,0,1,-1.37281,632.29)">
                    <path d="M269.458,202.155L933.288,202.155" style="fill:none;stroke-width:11px;stroke-miterlimit:1.41421;stroke:black;"/>
                </g>
                <g transform="matrix(1,0,0,1,-1.37281,722.845)">
                    <path d="M269.458,202.155L933.288,202.155" style="fill:none;stroke-width:11px;stroke-miterlimit:1.41421;stroke:black;"/>
                </g>
                <g transform="matrix(1,0,0,1,-1.37281,815.519)">
                    <path d="M269.458,202.155L933.288,202.155" style="fill:none;stroke-width:11px;stroke-miterlimit:1.41421;stroke:black;"/>
                </g>
                <g transform="matrix(1.07896,0,0,1,-75.0646,-47.9369)">
                    <path d="M318.038,202.155L933.288,202.155" style="fill:none;stroke-width:10.57px;stroke-miterlimit:1.41421;stroke:black;"/>
                </g>
            </g>
        </g>
        <g id="message_digest2" transform="matrix(0.0602521,0,0,0.0602521,940.365,779.056)">
            <g id="Layer14" transform="matrix(1,0,0,1,-100,0)">
                <g transform="matrix(1.05814,0,0,1.06583,-123.879,-73.7269)">
                    <path d="M1071.59,153.015L297.529,153.051L296.621,1111.21L1071.59,1111.21L1071.59,153.015Z" style="fill:white;stroke-width:13.18px;stroke-miterlimit:1.41421;stroke:black;"/>
                </g>
                <g transform="matrix(41.1801,0,0,41.1801,-18892.2,-24231.3)">
                    <text x="469.337px" y="606.582px" style="font-family:Times;font-size:12px;fill:black;">H</text>
                </g>
                <g transform="matrix(1.06438,0,0,1,-61.4567,37.4824)">
                    <path d="M309.61,202.155L933.288,202.155" style="fill:none;stroke-width:10.65px;stroke-miterlimit:1.41421;stroke:black;"/>
                </g>
                <g transform="matrix(1,0,0,1,-1.37281,126.158)">
                    <path d="M269.458,202.155L933.288,202.155" style="fill:none;stroke-width:11px;stroke-miterlimit:1.41421;stroke:black;"/>
                </g>
                <g transform="matrix(1,0,0,1,-1.37281,632.29)">
                    <path d="M269.458,202.155L933.288,202.155" style="fill:none;stroke-width:11px;stroke-miterlimit:1.41421;stroke:black;"/>
                </g>
                <g transform="matrix(1,0,0,1,-1.37281,722.845)">
                    <path d="M269.458,202.155L933.288,202.155" style="fill:none;stroke-width:11px;stroke-miterlimit:1.41421;stroke:black;"/>
                </g>
                <g transform="matrix(1,0,0,1,-1.37281,815.519)">
                    <path d="M269.458,202.155L933.288,202.155" style="fill:none;stroke-width:11px;stroke-miterlimit:1.41421;stroke:black;"/>
                </g>
                <g transform="matrix(1.07896,0,0,1,-75.0646,-47.9369)">
                    <path d="M318.038,202.155L933.288,202.155" style="fill:none;stroke-width:10.57px;stroke-miterlimit:1.41421;stroke:black;"/>
                </g>
            </g>
        </g>
        <g id="transfer" transform="matrix(1.6407e-17,0.0579184,-0.0579184,1.6407e-17,424.849,680)">
            <g transform="matrix(7.16998,0,0,3.79394,-3905.75,-1035.26)">
                <g id="Layer21">
                    <g>
                        <path d="M547.959,329.661L547.859,375.77L659.795,367.29L659.824,414.148L708.978,351.387L659.596,289.744L659.647,338.365L547.959,329.661Z" style="fill:url(#_Radial8);"/>
                        <path d="M546.007,329.645L546.039,328.99L546.133,328.356L546.285,327.763L546.49,327.231L546.741,326.776L547.032,326.413L547.352,326.153L547.692,326.005L548.04,325.974L657.69,334.519L657.644,289.751L657.675,289.092L657.767,288.453L657.919,287.856L658.124,287.32L658.377,286.861L658.67,286.496L658.992,286.235L659.333,286.088L659.683,286.058L660.031,286.147L660.364,286.351L660.673,286.665L710.054,348.308L710.326,348.718L710.556,349.213L710.735,349.777L710.858,350.392L710.922,351.039L710.924,351.697L710.864,352.345L710.744,352.962L710.568,353.53L710.341,354.029L710.071,354.445L660.917,417.205L660.609,417.526L660.276,417.737L659.928,417.832L659.576,417.808L659.233,417.665L658.909,417.407L658.614,417.044L658.359,416.588L658.151,416.051L657.998,415.454L657.903,414.814L657.871,414.152L657.845,371.131L547.937,379.457L547.587,379.424L547.246,379.274L546.925,379.011L546.634,378.644L546.382,378.185L546.178,377.648L546.028,377.051L545.936,376.413L545.906,375.754L546.007,329.645ZM659.795,367.29L659.824,414.148L708.978,351.387L659.596,289.744L659.647,338.365L547.959,329.661L547.859,375.77L659.795,367.29Z" style="fill:black;"/>
                    </g>
                </g>
            </g>
        </g>
        <g transform="matrix(5.53244,-1.35506e-15,1.35506e-15,5.53244,-3448.17,-650.441)">
            <text x="791.5px" y="254.654px" style="font-family:Helvetica;font-size:24px;fill:black;">=</text>
        </g>
    </g>
    <defs>
        <radialGradient id="_Radial1" cx="0" cy="0" r="1" gradientUnits="userSpaceOnUse" gradientTransform="matrix(343.263,-322.889,260.567,177.106,720.844,1046.52)"><stop offset="0%" style="stop-color:rgb(37,49,220);stop-opacity:1"/></radialGradient>
        <radialGradient id="_Radial2" cx="0" cy="0" r="1" gradientUnits="userSpaceOnUse" gradientTransform="matrix(559.906,-349.895,260.012,416.073,754.079,756.908)"><stop offset="0%" style="stop-color:rgb(37,49,220);stop-opacity:1"/></radialGradient>
        <linearGradient id="_Linear3" x1="0" y1="0" x2="1" y2="0" gradientUnits="userSpaceOnUse" gradientTransform="matrix(408.857,-249.036,249.036,408.857,409.875,546.35)"><stop offset="0%" style="stop-color:rgb(219,187,156);stop-opacity:1"/><stop offset="56%" style="stop-color:rgb(208,166,124);stop-opacity:1"/><stop offset="100%" style="stop-color:rgb(203,157,110);stop-opacity:1"/></linearGradient>
        <radialGradient id="_Radial4" cx="0" cy="0" r="1" gradientUnits="userSpaceOnUse" gradientTransform="matrix(-410.417,230.957,-146.678,-260.651,746.616,86.3205)"><stop offset="0%" style="stop-color:rgb(215,196,71);stop-opacity:1"/><stop offset="100%" style="stop-color:rgb(230,211,140);stop-opacity:1"/></radialGradient>
        <radialGradient id="_Radial5" cx="0" cy="0" r="1" gradientUnits="userSpaceOnUse" gradientTransform="matrix(-277.78,268.53,-428.535,-443.297,542.498,668.305)"><stop offset="0%" style="stop-color:rgb(207,207,207);stop-opacity:1"/><stop offset="100%" style="stop-color:rgb(115,115,115);stop-opacity:1"/></radialGradient>
        <radialGradient id="_Radial6" cx="0" cy="0" r="1" gradientUnits="userSpaceOnUse" gradientTransform="matrix(-341.406,281.65,-449.473,-544.835,1010.38,224.749)"><stop offset="0%" style="stop-color:rgb(207,207,207);stop-opacity:1"/><stop offset="100%" style="stop-color:rgb(115,115,115);stop-opacity:1"/></radialGradient>
        <radialGradient id="_Radial7" cx="0" cy="0" r="1" gradientUnits="userSpaceOnUse" gradientTransform="matrix(222.794,-0.15627,0.0815837,62.2017,547.365,352.762)"><stop offset="0%" style="stop-color:white;stop-opacity:0.8"/><stop offset="49%" style="stop-color:rgb(227,240,228);stop-opacity:0.8"/><stop offset="100%" style="stop-color:rgb(142,197,146);stop-opacity:0.8"/></radialGradient>
        <radialGradient id="_Radial8" cx="0" cy="0" r="1" gradientUnits="userSpaceOnUse" gradientTransform="matrix(222.794,-0.15627,0.0815837,62.2017,547.365,352.762)"><stop offset="0%" style="stop-color:rgb(201,201,201);stop-opacity:1"/><stop offset="100%" style="stop-color:rgb(112,112,112);stop-opacity:1"/></radialGradient>
    </defs>
</svg>
