<?xml version="1.0" standalone="no"?><!DOCTYPE svg PUBLIC "-//W3C//DTD SVG 1.1//EN" "http://www.w3.org/Graphics/SVG/1.1/DTD/svg11.dtd"><svg width="100%" height="100%" viewBox="0 0 1200 820" version="1.1" xmlns="http://www.w3.org/2000/svg" xmlns:xlink="http://www.w3.org/1999/xlink" xml:space="preserve" style="fill-rule:evenodd;clip-rule:evenodd;stroke-linecap:round;stroke-linejoin:round;stroke-miterlimit:1.41421;"><g id="Layer1"><g id="Layer11"><path d="M1194.9,68.82l-165.912,0.008l-0.194,206.865l166.106,0l0,-206.873Z" style="fill:#fff;stroke-width:2.84px;stroke:#000;"/><text x="1078.47px" y="202.204px" style="font-family:Times;font-size:100.099px;fill:#000;">H</text><path d="M1044.62,99.261l134.468,0" style="fill:none;stroke-width:2.23px;stroke:#000;"/><path d="M1044.62,117.223l134.468,0" style="fill:none;stroke-width:2.23px;stroke:#000;"/><path d="M1044.62,219.747l134.468,0" style="fill:none;stroke-width:2.23px;stroke:#000;"/><path d="M1044.62,238.09l134.468,0" style="fill:none;stroke-width:2.23px;stroke:#000;"/><path d="M1044.62,256.862l134.468,0" style="fill:none;stroke-width:2.23px;stroke:#000;"/><path d="M1044.62,81.958l134.468,0" style="fill:none;stroke-width:2.23px;stroke:#000;"/></g><g id="Layer12"><path d="M1194.9,528.34l-165.912,0.008l-0.194,206.865l166.106,0l0,-206.873Z" style="fill:#fff;stroke-width:2.84px;stroke:#000;"/><text x="1078.47px" y="661.724px" style="font-family:Times;font-size:100.099px;fill:#000;">H</text><path d="M1044.62,558.781l134.468,0" style="fill:none;stroke-width:2.23px;stroke:#000;"/><path d="M1044.62,576.743l134.468,0" style="fill:none;stroke-width:2.23px;stroke:#000;"/><path d="M1044.62,679.267l134.468,0" style="fill:none;stroke-width:2.23px;stroke:#000;"/><path d="M1044.62,697.61l134.468,0" style="fill:none;stroke-width:2.23px;stroke:#000;"/><path d="M1044.62,716.382l134.468,0" style="fill:none;stroke-width:2.23px;stroke:#000;"/><path d="M1044.62,541.478l134.468,0" style="fill:none;stroke-width:2.23px;stroke:#000;"/></g><g id="Layer13"><path d="M332.654,420.766l-223.827,-0.527l-75.581,70.306l-0.351,303.547l299.759,0l0,-373.326Z" style="fill:#fff;stroke-width:5.12px;stroke:#000;"/><text x="132.543px" y="661.472px" style="font-family:Times;font-size:180.64px;fill:#000;">P</text><path d="M109.959,475.699l194.147,0" style="fill:none;stroke-width:4.02px;stroke:#000;"/><path d="M61.443,508.114l242.663,0" style="fill:none;stroke-width:4.02px;stroke:#000;"/><path d="M61.443,693.13l242.663,0" style="fill:none;stroke-width:4.02px;stroke:#000;"/><path d="M61.443,726.232l242.663,0" style="fill:none;stroke-width:4.02px;stroke:#000;"/><path d="M61.443,760.109l242.663,0" style="fill:none;stroke-width:4.02px;stroke:#000;"/><path d="M110.596,444.474l193.51,0" style="fill:none;stroke-width:4.02px;stroke:#000;"/><path d="M109.604,420.239l0,69.95l-73.911,0" style="fill:none;stroke-width:5.12px;stroke-linecap:butt;stroke:#000;"/></g><g id="Layer14"><path d="M227.218,129.84l-49.63,-0.117l-16.759,15.589l-0.077,67.307l66.466,0l0,-82.779Z" style="fill:#fff;stroke-width:1.13px;stroke:#000;"/><text x="182.847px" y="183.213px" style="font-family:Times;font-size:40.054px;fill:#000;">P</text><path d="M177.839,142.02l43.049,0" style="fill:none;stroke-width:0.89px;stroke:#000;"/><path d="M167.082,149.208l53.806,0" style="fill:none;stroke-width:0.89px;stroke:#000;"/><path d="M167.082,190.232l53.806,0" style="fill:none;stroke-width:0.89px;stroke:#000;"/><path d="M167.082,197.572l53.806,0" style="fill:none;stroke-width:0.89px;stroke:#000;"/><path d="M167.082,205.084l53.806,0" style="fill:none;stroke-width:0.89px;stroke:#000;"/><path d="M177.98,135.097l42.908,0" style="fill:none;stroke-width:0.89px;stroke:#000;"/><path d="M177.761,129.723l0,15.51l-16.389,0" style="fill:none;stroke-width:1.13px;stroke-linecap:butt;stroke:#000;"/></g><g id="Layer2"><path d="M745.241,10.424l16.706,0l6.562,22.578l13.968,5.858l18.35,-15.231l13.421,11.694l-7.121,22.283l7.394,11.423l23.828,0.292l4.93,16.11l-18.624,14.059l0.021,14.059l18.898,14.33l-5.204,16.11l-23.007,-0.293l-8.744,12.302l7.395,22.553l-13.42,10.837l-19.458,-14.374l-13.134,4.416l-6.847,22.553l-17.529,0.586l-6.025,-22.847l-13.968,-4.979l-18.351,14.364l-13.694,-10.849l7.669,-22.846l-7.669,-11.46l-23.828,0l-4.93,-16.695l18.898,-13.473l0,-14.938l-18.624,-14.059l4.656,-16.11l23.361,0.892l9.038,-13.474l-7.943,-22.26l14.242,-10.251l18.076,14.959l14.242,-5.272l6.465,-22.847ZM753.366,61.045c23.808,0 43.137,20.671 43.137,46.131c0,25.461 -19.329,46.132 -43.137,46.132c-23.808,0 -43.137,-20.671 -43.137,-46.132c0,-25.46 19.329,-46.131 43.137,-46.131Z" style="fill:url(#_Radial1);stroke-width:6.61px;stroke:#000;"/><path d="M621.719,136.371l16.707,0l6.561,22.577l13.968,5.858l18.35,-15.23l13.421,11.694l-7.121,22.282l7.395,11.423l23.828,0.293l4.93,16.109l-18.625,14.059l0.021,14.06l18.898,14.33l-5.204,16.109l-23.006,-0.293l-8.744,12.302l7.395,22.553l-13.421,10.838l-19.457,-14.374l-13.135,4.415l-6.847,22.553l-17.529,0.586l-6.025,-22.846l-13.968,-4.979l-18.35,14.363l-13.695,-10.849l7.669,-22.846l-7.669,-11.459l-23.828,0l-4.929,-16.696l18.898,-13.473l0,-14.938l-18.625,-14.059l4.656,-16.109l23.361,0.891l9.038,-13.473l-7.943,-22.261l14.242,-10.251l18.077,14.959l14.242,-5.272l6.464,-22.846ZM629.844,186.991c23.808,0 43.137,20.671 43.137,46.132c0,25.46 -19.329,46.131 -43.137,46.131c-23.807,0 -43.136,-20.671 -43.136,-46.131c0,-25.461 19.329,-46.132 43.136,-46.132Z" style="fill:url(#_Radial2);stroke-width:6.61px;stroke:#000;"/><path d="M419.045,129.547l-0.341,82.601l378.964,-15.19l0.097,83.942l166.413,-112.432l-167.183,-110.428l0.17,87.101l-378.12,-15.594Z" style="fill:url(#_Radial3);"/><path d="M798.466,51.595l2.173,0.929l167.183,110.429l1.579,1.464l1.026,1.894l0.362,2.123l-0.34,2.127l-1.006,1.905l-1.564,1.48l-166.413,112.431l-2.171,0.954l-2.367,0.126l-2.26,-0.718l-1.862,-1.468l-1.223,-2.032l-0.428,-2.332l-0.09,-77.069l-372.096,14.915l-2.111,-0.257l-1.919,-0.914l-1.53,-1.476l-0.983,-1.886l-0.333,-2.099l0.341,-82.601l0.348,-2.088l0.989,-1.871l1.531,-1.463l1.914,-0.903l2.101,-0.253l371.224,15.309l-0.156,-80.198l0.418,-2.326l1.209,-2.031l1.846,-1.475l2.247,-0.731l2.361,0.105ZM797.165,145.141l-378.12,-15.594l-0.341,82.601l378.964,-15.19l0.097,83.942l166.413,-112.432l-167.183,-110.428l0.17,87.101Z" style="fill:#000;fill-opacity:0.8;"/></g><g id="Layer21"><path d="M745.241,472.157l16.706,0l6.562,22.578l13.968,5.858l18.35,-15.231l13.421,11.694l-7.121,22.282l7.394,11.423l23.828,0.293l4.93,16.109l-18.624,14.06l0.021,14.059l18.898,14.33l-5.204,16.109l-23.007,-0.292l-8.744,12.301l7.395,22.553l-13.42,10.838l-19.458,-14.374l-13.134,4.415l-6.847,22.553l-17.529,0.586l-6.025,-22.846l-13.968,-4.979l-18.351,14.363l-13.694,-10.848l7.669,-22.847l-7.669,-11.459l-23.828,0l-4.93,-16.695l18.898,-13.474l0,-14.938l-18.624,-14.059l4.656,-16.109l23.361,0.891l9.038,-13.473l-7.943,-22.26l14.242,-10.252l18.076,14.96l14.242,-5.273l6.465,-22.846ZM753.366,522.777c23.808,0 43.137,20.671 43.137,46.132c0,25.461 -19.329,46.131 -43.137,46.131c-23.808,0 -43.137,-20.67 -43.137,-46.131c0,-25.461 19.329,-46.132 43.137,-46.132Z" style="fill:url(#_Radial4);stroke-width:6.61px;stroke:#000;"/><path d="M621.719,598.103l16.707,0l6.561,22.578l13.968,5.858l18.35,-15.231l13.421,11.694l-7.121,22.282l7.395,11.424l23.828,0.292l4.93,16.11l-18.625,14.059l0.021,14.059l18.898,14.33l-5.204,16.11l-23.006,-0.293l-8.744,12.302l7.395,22.553l-13.421,10.837l-19.457,-14.374l-13.135,4.416l-6.847,22.553l-17.529,0.586l-6.025,-22.847l-13.968,-4.979l-18.35,14.364l-13.695,-10.849l7.669,-22.846l-7.669,-11.46l-23.828,0l-4.929,-16.695l18.898,-13.473l0,-14.938l-18.625,-14.059l4.656,-16.11l23.361,0.892l9.038,-13.474l-7.943,-22.26l14.242,-10.252l18.077,14.96l14.242,-5.272l6.464,-22.847ZM629.844,648.724c23.808,0 43.137,20.671 43.137,46.131c0,25.461 -19.329,46.132 -43.137,46.132c-23.807,0 -43.136,-20.671 -43.136,-46.132c0,-25.46 19.329,-46.131 43.136,-46.131Z" style="fill:url(#_Radial5);stroke-width:6.61px;stroke:#000;"/><path d="M419.045,591.28l-0.341,82.601l378.964,-15.191l0.097,83.942l166.413,-112.431l-167.183,-110.429l0.17,87.101l-378.12,-15.593Z" style="fill:url(#_Radial6);"/><path d="M798.466,513.327l2.173,0.93l167.183,110.428l1.579,1.464l1.026,1.894l0.362,2.124l-0.34,2.126l-1.006,1.905l-1.564,1.481l-166.413,112.431l-2.171,0.953l-2.367,0.126l-2.26,-0.717l-1.862,-1.469l-1.223,-2.031l-0.428,-2.332l-0.09,-77.069l-372.096,14.915l-2.111,-0.258l-1.919,-0.914l-1.53,-1.476l-0.983,-1.885l-0.333,-2.1l0.341,-82.601l0.348,-2.088l0.989,-1.871l1.531,-1.462l1.914,-0.904l2.101,-0.252l371.224,15.309l-0.156,-80.199l0.418,-2.326l1.209,-2.03l1.846,-1.475l2.247,-0.732l2.361,0.105ZM797.165,606.873l-378.12,-15.593l-0.341,82.601l378.964,-15.191l0.097,83.942l166.413,-112.431l-167.183,-110.429l0.17,87.101Z" style="fill:#000;fill-opacity:0.8;"/></g></g><defs><radialGradient id="_Radial1" cx="0" cy="0" r="1" gradientUnits="userSpaceOnUse" gradientTransform="matrix(-75.382,77.931,-116.293,-128.651,675.693,189.094)"><stop offset="0%" style="stop-color:#cfcfcf;stop-opacity:1"/><stop offset="100%" style="stop-color:#737373;stop-opacity:1"/></radialGradient><radialGradient id="_Radial2" cx="0" cy="0" r="1" gradientUnits="userSpaceOnUse" gradientTransform="matrix(-92.6485,81.7387,-121.975,-158.119,679.14,186.314)"><stop offset="0%" style="stop-color:#cfcfcf;stop-opacity:1"/><stop offset="100%" style="stop-color:#737373;stop-opacity:1"/></radialGradient><radialGradient id="_Radial3" cx="0" cy="0" r="1" gradientUnits="userSpaceOnUse" gradientTransform="matrix(754.274,-0.279946,0.276204,111.43,417.033,170.932)"><stop offset="0%" style="stop-color:#fff;stop-opacity:0.8"/><stop offset="49%" style="stop-color:#e3f0e4;stop-opacity:0.8"/><stop offset="100%" style="stop-color:#8ec592;stop-opacity:0.8"/></radialGradient><radialGradient id="_Radial4" cx="0" cy="0" r="1" gradientUnits="userSpaceOnUse" gradientTransform="matrix(-75.382,77.931,-116.293,-128.651,675.693,650.826)"><stop offset="0%" style="stop-color:#cfcfcf;stop-opacity:1"/><stop offset="100%" style="stop-color:#737373;stop-opacity:1"/></radialGradient><radialGradient id="_Radial5" cx="0" cy="0" r="1" gradientUnits="userSpaceOnUse" gradientTransform="matrix(-92.6485,81.7387,-121.975,-158.119,679.14,648.047)"><stop offset="0%" style="stop-color:#cfcfcf;stop-opacity:1"/><stop offset="100%" style="stop-color:#737373;stop-opacity:1"/></radialGradient><radialGradient id="_Radial6" cx="0" cy="0" r="1" gradientUnits="userSpaceOnUse" gradientTransform="matrix(754.274,-0.279946,0.276204,111.43,417.033,632.665)"><stop offset="0%" style="stop-color:#fff;stop-opacity:0.8"/><stop offset="49%" style="stop-color:#e3f0e4;stop-opacity:0.8"/><stop offset="100%" style="stop-color:#8ec592;stop-opacity:0.8"/></radialGradient></defs></svg>