<?xml version="1.0" standalone="no"?>
<!DOCTYPE svg PUBLIC "-//W3C//DTD SVG 1.1//EN" "http://www.w3.org/Graphics/SVG/1.1/DTD/svg11.dtd">
<svg width="100%" height="100%" viewBox="0 0 1000 1200" version="1.1" xmlns="http://www.w3.org/2000/svg" xmlns:xlink="http://www.w3.org/1999/xlink" xml:space="preserve" style="fill-rule:evenodd;clip-rule:evenodd;stroke-linecap:round;stroke-linejoin:round;stroke-miterlimit:1.41421;">
    <g id="Layer1" transform="matrix(1,0,0,1,-100,0)">
        <g transform="matrix(1.05814,0,0,1.06583,-123.879,-73.7269)">
            <path d="M1071.59,153.015L296.633,153.051L296.621,1111.21L1071.59,1111.21L1071.59,153.015Z" style="fill:white;stroke-width:13.18px;stroke:black;"/>
        </g>
        <g transform="matrix(19.344,0,0,19.344,-8827.08,-11081.5)">
            <text x="469.337px" y="606.582px" style="font-family:Times;font-size:12px;fill:black;">HMAC</text>
        </g>
        <g transform="matrix(1.06438,0,0,1,-61.4567,37.4824)">
            <path d="M309.61,202.155L933.288,202.155" style="fill:none;stroke-width:10.65px;stroke:black;"/>
        </g>
        <g transform="matrix(1,0,0,1,-1.37281,126.158)">
            <path d="M269.458,202.155L933.288,202.155" style="fill:none;stroke-width:11px;stroke:black;"/>
        </g>
        <g transform="matrix(1,0,0,1,-1.37281,632.29)">
            <path d="M269.458,202.155L933.288,202.155" style="fill:none;stroke-width:11px;stroke:black;"/>
        </g>
        <g transform="matrix(1,0,0,1,-1.37281,722.845)">
            <path d="M269.458,202.155L933.288,202.155" style="fill:none;stroke-width:11px;stroke:black;"/>
        </g>
        <g transform="matrix(1,0,0,1,-1.37281,815.519)">
            <path d="M269.458,202.155L933.288,202.155" style="fill:none;stroke-width:11px;stroke:black;"/>
        </g>
        <g transform="matrix(1.07896,0,0,1,-75.0646,-47.9369)">
            <path d="M318.038,202.155L933.288,202.155" style="fill:none;stroke-width:10.57px;stroke:black;"/>
        </g>
    </g>
</svg>
