<?xml version="1.0" standalone="no"?>
<!DOCTYPE svg PUBLIC "-//W3C//DTD SVG 1.1//EN" "http://www.w3.org/Graphics/SVG/1.1/DTD/svg11.dtd">
<svg width="100%" height="100%" viewBox="0 0 640 200" version="1.1" xmlns="http://www.w3.org/2000/svg" xmlns:xlink="http://www.w3.org/1999/xlink" xml:space="preserve" style="fill-rule:evenodd;clip-rule:evenodd;stroke-linecap:round;stroke-linejoin:round;stroke-miterlimit:1.41421;">
    <g id="alice" transform="matrix(0.166667,0,0,0.166667,0,-7.10543e-15)">
        <g id="Layer1" transform="matrix(1,0,0,1,-300,0)">
            <g id="Lower Body" transform="matrix(1,0,0,1,-6.00184,-5.71544)">
                <path d="M801.514,957.697C671.984,925.15 559.017,923.777 422.531,957.122C394.705,1066.25 438.322,1144.65 438.322,1144.65C521.034,1189.33 709.038,1188.12 791.898,1143.25C791.898,1143.25 832.761,1060.04 801.514,957.697Z" style="fill:url(#_Radial1);stroke-width:14px;stroke:black;"/>
            </g>
            <g id="Upper Body" transform="matrix(1,0,0,1,7.98211,-3.0085)">
                <path d="M435.062,582.136C431.702,580.551 395.337,599.875 384.235,617.523C319.805,719.938 332.819,905.092 334.551,908.67C383.394,1009.53 830.025,1002.34 862.193,913.813C881.129,861.699 869.515,661.056 832.528,609.309C812.259,580.951 542.27,525.169 435.062,582.136Z" style="fill:url(#_Radial2);stroke-width:14px;stroke:black;"/>
            </g>
            <g id="Collar" transform="matrix(1,0,0,1,-5.73811,0.856199)">
                <path d="M449.085,492.547C441.844,493.124 377.314,517.616 382.408,530.351C384.39,535.307 407.988,532.608 408.669,533.947C408.876,534.355 388.318,556.383 401.467,569.142C432.102,598.868 486.766,569.324 490.17,576.175C502.625,601.239 569.287,613.222 596.761,600C627.224,585.34 636.139,584.339 650.301,584.656C666.001,585.008 681.57,603.708 711.92,600C734.698,597.217 737.892,584.425 770.269,592.415C835.138,608.422 846.775,574.187 802.088,548.996C797.321,546.309 812.599,551.922 828.128,536.425C832.068,532.493 829.325,511.797 779.718,504.73" style="fill:url(#_Radial3);stroke-width:14px;stroke:black;"/>
            </g>
            <g id="Hair" transform="matrix(1,0,0,1,-13.2122,5.84119)">
                <path d="M400.285,370.057C223.256,192.261 460,-20.188 612.621,46.563C634.199,56.001 736.034,-24.012 828.564,66.005C926.439,161.224 865.228,248.853 856.343,254.659" style="fill:url(#_Radial4);stroke-width:14px;stroke:black;"/>
            </g>
            <g id="Face" transform="matrix(1,0,0,1,-13.2122,5.84119)">
                <path d="M447.372,196.112C313.674,311.538 420.044,541.34 612.447,543.658C656.389,544.187 769.793,553.122 835.152,436.377C886.105,345.363 870.779,243.037 818.314,202.153C814.271,199.002 782.22,234.267 741.92,237.409C689.545,241.493 650.258,205.141 650.214,205.217C633.453,234.478 560.094,246.512 530.636,240.94C476.83,230.764 450.634,195.514 447.372,196.112Z" style="fill:url(#_Radial5);stroke-width:14px;stroke:black;"/>
            </g>
            <g id="Nose" transform="matrix(1,0,0,1,-13.2122,5.84119)">
                <path d="M583.761,363.892C601.018,336.664 653.41,344.389 669.891,360.35" style="fill:none;stroke-width:14px;stroke:black;"/>
            </g>
            <g id="Left Smile" transform="matrix(1,0,0,1,-13.2122,5.84119)">
                <path d="M525.19,446.424C535.674,429.409 547.655,418.262 563.975,412.677" style="fill:none;stroke-width:14px;stroke:black;"/>
            </g>
            <g id="Lower Smile" transform="matrix(1,0,0,1,-13.2122,5.84119)">
                <path d="M547.68,428.971C596.293,474.55 681.396,454.489 701.401,430.905" style="fill:none;stroke-width:14px;stroke:black;"/>
            </g>
            <g id="Right Smile" transform="matrix(1,0,0,1,-13.2122,5.84119)">
                <path d="M692.222,408.156C701.928,419.7 705.27,430.097 701.401,452.596" style="fill:none;stroke-width:14px;stroke:black;"/>
            </g>
            <g transform="matrix(1,0,0,1,-18.9454,-9.28975)">
                <ellipse cx="539.705" cy="311.029" rx="20.928" ry="27.361" style="fill:black;stroke-width:14px;stroke:black;"/>
            </g>
            <g transform="matrix(1,0,0,1,160.212,-9.28975)">
                <ellipse cx="539.705" cy="311.029" rx="20.928" ry="27.361" style="fill:black;stroke-width:14px;stroke:black;"/>
            </g>
        </g>
    </g>
    <g id="plaintext" transform="matrix(0.130348,0,0,0.130348,140.119,21.7911)">
        <g id="Layer11" transform="matrix(1,0,0,1,-100,0)">
            <g transform="matrix(1.05814,0,0,1.06583,-123.879,-73.7269)">
                <path d="M1071.59,153.015L492.928,151.663L297.529,332.115L296.621,1111.21L1071.59,1111.21L1071.59,153.015Z" style="fill:white;stroke-width:13.18px;stroke:black;"/>
            </g>
            <g transform="matrix(41.1801,0,0,41.1801,-18864.8,-24231.3)">
                <text x="469.337px" y="606.582px" style="font-family:Times;font-size:12px;fill:black;">P</text>
            </g>
            <g transform="matrix(0.851576,0,0,1,137.15,37.4824)">
                <path d="M309.61,202.155L933.288,202.155" style="fill:none;stroke-width:11.84px;stroke:black;"/>
            </g>
            <g transform="matrix(1,0,0,1,-1.37281,126.158)">
                <path d="M269.458,202.155L933.288,202.155" style="fill:none;stroke-width:11px;stroke:black;"/>
            </g>
            <g transform="matrix(1,0,0,1,-1.37281,632.29)">
                <path d="M269.458,202.155L933.288,202.155" style="fill:none;stroke-width:11px;stroke:black;"/>
            </g>
            <g transform="matrix(1,0,0,1,-1.37281,722.845)">
                <path d="M269.458,202.155L933.288,202.155" style="fill:none;stroke-width:11px;stroke:black;"/>
            </g>
            <g transform="matrix(1,0,0,1,-1.37281,815.519)">
                <path d="M269.458,202.155L933.288,202.155" style="fill:none;stroke-width:11px;stroke:black;"/>
            </g>
            <g transform="matrix(0.860411,0,0,1,128.904,-47.9369)">
                <path d="M318.038,202.155L933.288,202.155" style="fill:none;stroke-width:11.79px;stroke:black;"/>
            </g>
            <g transform="matrix(1,0,0,1.01407,100,-1.23684)">
                <path d="M299.835,87.92L299.835,276.623L97.642,276.623" style="fill:none;stroke-width:13.9px;stroke-linecap:butt;stroke:black;"/>
            </g>
        </g>
    </g>
    <g id="hmac" transform="matrix(0.130348,0,0,0.130348,490.584,21.7911)">
        <g id="Layer12" transform="matrix(1,0,0,1,-100,0)">
            <g transform="matrix(1.05814,0,0,1.06583,-123.879,-73.7269)">
                <path d="M1071.59,153.015L296.633,153.051L296.621,1111.21L1071.59,1111.21L1071.59,153.015Z" style="fill:white;stroke-width:13.18px;stroke:black;"/>
            </g>
            <g transform="matrix(19.344,0,0,19.344,-8827.08,-11081.5)">
                <text x="469.337px" y="606.582px" style="font-family:Times;font-size:12px;fill:black;">HMAC</text>
            </g>
            <g transform="matrix(1.06438,0,0,1,-61.4567,37.4824)">
                <path d="M309.61,202.155L933.288,202.155" style="fill:none;stroke-width:10.65px;stroke:black;"/>
            </g>
            <g transform="matrix(1,0,0,1,-1.37281,126.158)">
                <path d="M269.458,202.155L933.288,202.155" style="fill:none;stroke-width:11px;stroke:black;"/>
            </g>
            <g transform="matrix(1,0,0,1,-1.37281,632.29)">
                <path d="M269.458,202.155L933.288,202.155" style="fill:none;stroke-width:11px;stroke:black;"/>
            </g>
            <g transform="matrix(1,0,0,1,-1.37281,722.845)">
                <path d="M269.458,202.155L933.288,202.155" style="fill:none;stroke-width:11px;stroke:black;"/>
            </g>
            <g transform="matrix(1,0,0,1,-1.37281,815.519)">
                <path d="M269.458,202.155L933.288,202.155" style="fill:none;stroke-width:11px;stroke:black;"/>
            </g>
            <g transform="matrix(1.07896,0,0,1,-75.0646,-47.9369)">
                <path d="M318.038,202.155L933.288,202.155" style="fill:none;stroke-width:10.57px;stroke:black;"/>
            </g>
        </g>
    </g>
    <g id="hashing" transform="matrix(0.160682,0,0,0.160682,284.822,35.7271)">
        <g id="Layer2" transform="matrix(1,0,0,1,-360,-200)">
            <g transform="matrix(0.574724,0,0,0.614624,614.861,230.804)">
                <path d="M798.779,52.657L860.344,52.657L884.522,130.454L935.994,150.639L1003.61,98.158L1053.07,138.453L1026.83,215.231L1054.08,254.592L1141.88,255.601L1160.05,311.11L1091.42,359.554L1091.49,407.998L1161.13,457.376L1141.96,512.885L1057.18,511.876L1024.96,554.264L1052.21,631.977L1002.75,669.319L931.054,619.791L882.653,635.004L857.422,712.717L792.83,714.735L770.627,636.014L719.155,618.856L651.535,668.349L601.072,630.967L629.331,552.246L601.072,512.759L513.267,512.759L495.101,455.232L564.739,408.806L564.739,357.334L496.11,308.89L513.267,253.381L599.35,256.452L632.655,210.027L603.387,133.324L655.868,98L722.478,149.547L774.959,131.38L798.779,52.657ZM828.722,227.082C916.452,227.082 987.679,298.308 987.679,386.039C987.679,473.77 916.452,544.996 828.722,544.996C740.991,544.996 669.765,473.77 669.765,386.039C669.765,298.308 740.991,227.082 828.722,227.082Z" style="fill:url(#_Radial6);stroke-width:23.53px;stroke:black;"/>
            </g>
            <g transform="matrix(0.574724,0,0,0.614624,353.263,497.538)">
                <path d="M798.779,52.657L860.344,52.657L884.522,130.454L935.994,150.639L1003.61,98.158L1053.07,138.453L1026.83,215.231L1054.08,254.592L1141.88,255.601L1160.05,311.11L1091.42,359.554L1091.49,407.998L1161.13,457.376L1141.96,512.885L1057.18,511.876L1024.96,554.264L1052.21,631.977L1002.75,669.319L931.054,619.791L882.653,635.004L857.422,712.717L792.83,714.735L770.627,636.014L719.155,618.856L651.535,668.349L601.072,630.967L629.331,552.246L601.072,512.759L513.267,512.759L495.101,455.232L564.739,408.806L564.739,357.334L496.11,308.89L513.267,253.381L599.35,256.452L632.655,210.027L603.387,133.324L655.868,98L722.478,149.547L774.959,131.38L798.779,52.657ZM828.722,227.082C916.452,227.082 987.679,298.308 987.679,386.039C987.679,473.77 916.452,544.996 828.722,544.996C740.991,544.996 669.765,473.77 669.765,386.039C669.765,298.308 740.991,227.082 828.722,227.082Z" style="fill:url(#_Radial7);stroke-width:23.53px;stroke:black;"/>
            </g>
            <g transform="matrix(7.16998,0,0,3.79394,-3545.75,-735.263)">
                <path d="M547.959,329.661L547.859,375.77L659.795,367.29L659.824,414.148L708.978,351.387L659.596,289.744L659.647,338.365L547.959,329.661Z" style="fill:url(#_Radial8);"/>
                <path d="M660.031,286.147L660.364,286.351L660.673,286.665L710.054,348.308L710.326,348.718L710.556,349.213L710.735,349.777L710.858,350.392L710.922,351.039L710.924,351.697L710.864,352.345L710.744,352.962L710.568,353.53L710.341,354.029L710.071,354.445L660.917,417.205L660.609,417.526L660.276,417.738L659.928,417.832L659.576,417.808L659.233,417.665L658.909,417.407L658.614,417.044L658.359,416.588L658.151,416.052L657.998,415.454L657.903,414.814L657.871,414.152L657.845,371.131L547.937,379.457L547.587,379.424L547.246,379.274L546.925,379.011L546.634,378.644L546.382,378.185L546.178,377.648L546.028,377.051L545.936,376.413L545.906,375.754L546.007,329.645L546.039,328.99L546.133,328.356L546.285,327.763L546.49,327.231L546.742,326.776L547.032,326.413L547.352,326.153L547.692,326.005L548.04,325.974L657.69,334.519L657.644,289.751L657.675,289.092L657.767,288.453L657.919,287.856L658.124,287.32L658.377,286.861L658.67,286.496L658.992,286.235L659.333,286.088L659.683,286.058L660.031,286.147ZM659.647,338.365L547.959,329.661L547.859,375.77L659.795,367.29L659.824,414.148L708.978,351.387L659.596,289.744L659.647,338.365Z" style="fill:black;fill-opacity:0.8;"/>
            </g>
        </g>
    </g>
    <g id="key" transform="matrix(0.101091,0,0,0.101091,109.339,69.9817)">
        <g id="Layer21" transform="matrix(1,0,0,1,-360,0)">
            <path d="M1026.34,487.029C1024.69,484.556 1027.15,481.125 1027.91,478.249C1029.68,471.477 1032.12,464.893 1033.9,458.123C1041.67,428.63 1045.83,398.701 1046.99,368.114C1057.16,99.603 665.396,-4.313 528.88,238.226C494.669,299.005 480.119,370.524 491.379,439.097C497.389,475.705 510.216,511.526 530.432,542.74C580.034,619.327 677.091,670.38 768.787,660.599C806.06,656.623 808.649,654.868 843.39,646.829C852.572,644.704 875.964,636.278 888.218,640.384C896.802,643.261 898.654,652.222 898.295,660.189C897.851,670.075 895.52,674.141 891.693,683.604C887.893,693.001 881.52,703.202 889.193,712.615C890.905,714.716 892.952,716.57 895.179,718.114C898.153,720.177 901.315,722.041 904.684,723.362C919.386,729.127 930.203,719.945 941.791,712.18C946.33,709.138 950.202,704.616 955.461,703.135C957.678,702.511 959.583,705.247 961.403,706.658C966.105,710.303 970.592,714.226 974.968,718.257C990.346,732.426 1005.7,746.628 1020.65,761.248C1113.79,852.329 1201.98,940.769 1292.64,1034.38C1315.9,1058.39 1337.99,1083.53 1361.42,1107.38C1364.61,1110.63 1375.16,1111.52 1377.92,1111.64C1404.38,1112.8 1416.48,1112.07 1443.05,1108.43C1449.41,1107.56 1465.22,1105.8 1468.11,1097.85C1470.82,1090.42 1470.87,1072.55 1470.8,1068.77C1470.46,1050.03 1469.43,1031.31 1468.26,1012.6C1467.91,1006.87 1461.91,1006.44 1461.23,1001.21C1460.21,993.299 1463.03,976.01 1456.12,969.847C1452.15,966.311 1425.95,966.717 1422.14,961.888C1421.58,961.165 1408.43,912.457 1406.47,906.543C1405.02,902.181 1404,897.431 1401.16,893.822C1399.63,891.877 1396.7,891.492 1394.26,891.053C1386.01,889.566 1375.5,893.666 1369.51,885.597C1361.37,874.617 1369.12,858.322 1358.88,848.262C1342.27,831.925 1313.79,841.419 1294.43,831.184C1286.13,826.795 1286.2,817.037 1284.9,809.25C1283.17,798.903 1282.4,792.626 1273.52,786.491C1256.91,775.01 1231.51,783.375 1217.48,767.189C1201.41,748.65 1206.17,724.505 1200.46,702.542C1197.67,691.785 1188.77,689.275 1178.97,687.529C1174.39,686.713 1166.23,687.471 1164.03,681.547C1159.02,668.018 1163.13,653.232 1159.84,639.471C1158.95,635.753 1155.93,632.881 1153.61,629.84C1139.7,611.596 1098.52,566.181 1093.01,560.07C1087.48,553.935 1133.95,529.608 1108.6,504.274C1085.95,481.634 1059.65,523.384 1053.21,516.343C1038.47,500.234 1026.34,487.029 1026.34,487.029ZM690.093,220.034C734.53,220.034 770.607,254.931 770.607,297.914C770.607,340.898 734.53,375.794 690.093,375.794C645.656,375.794 609.579,340.898 609.579,297.914C609.579,254.931 645.656,220.034 690.093,220.034Z" style="fill:url(#_Radial9);stroke-width:14px;stroke:black;"/>
            <g transform="matrix(0.992631,0,0,0.992708,6.47944,4.12211)">
                <path d="M879.316,565.256L1419.35,1110.94" style="fill:none;stroke-width:12.09px;stroke:black;"/>
            </g>
            <g transform="matrix(1.00065,0,0,0.967579,46.8327,-22.285)">
                <path d="M879.316,565.256L1419.35,1110.94" style="fill:none;stroke-width:12.19px;stroke:black;"/>
            </g>
        </g>
    </g>
    <defs>
        <radialGradient id="_Radial1" cx="0" cy="0" r="1" gradientUnits="userSpaceOnUse" gradientTransform="matrix(394.02,-168.449,99.5256,232.801,434.288,1123.87)"><stop offset="0%" style="stop-color:rgb(211,121,154);stop-opacity:1"/><stop offset="100%" style="stop-color:rgb(194,71,116);stop-opacity:1"/></radialGradient>
        <radialGradient id="_Radial2" cx="0" cy="0" r="1" gradientUnits="userSpaceOnUse" gradientTransform="matrix(512.457,-300.001,129.442,414.61,364.983,889.015)"><stop offset="0%" style="stop-color:rgb(211,121,154);stop-opacity:1"/><stop offset="100%" style="stop-color:rgb(194,71,116);stop-opacity:1"/></radialGradient>
        <radialGradient id="_Radial3" cx="0" cy="0" r="1" gradientUnits="userSpaceOnUse" gradientTransform="matrix(408.938,-76.646,103.294,105.927,409.032,581.641)"><stop offset="0%" style="stop-color:rgb(205,163,202);stop-opacity:1"/><stop offset="100%" style="stop-color:rgb(184,125,180);stop-opacity:1"/></radialGradient>
        <radialGradient id="_Radial4" cx="0" cy="0" r="1" gradientUnits="userSpaceOnUse" gradientTransform="matrix(517.669,-235.359,130.758,325.273,365.718,296.357)"><stop offset="0%" style="stop-color:rgb(167,82,22);stop-opacity:1"/><stop offset="100%" style="stop-color:rgb(133,64,0);stop-opacity:1"/></radialGradient>
        <radialGradient id="_Radial5" cx="0" cy="0" r="1" gradientUnits="userSpaceOnUse" gradientTransform="matrix(466.155,-236.194,117.746,326.426,400.285,470.658)"><stop offset="0%" style="stop-color:rgb(255,217,184);stop-opacity:1"/><stop offset="100%" style="stop-color:rgb(255,205,158);stop-opacity:1"/></radialGradient>
        <radialGradient id="_Radial6" cx="0" cy="0" r="1" gradientUnits="userSpaceOnUse" gradientTransform="matrix(-277.78,268.53,-428.535,-443.297,542.498,668.305)"><stop offset="0%" style="stop-color:rgb(207,207,207);stop-opacity:1"/><stop offset="100%" style="stop-color:rgb(115,115,115);stop-opacity:1"/></radialGradient>
        <radialGradient id="_Radial7" cx="0" cy="0" r="1" gradientUnits="userSpaceOnUse" gradientTransform="matrix(-341.406,281.65,-449.473,-544.835,1010.38,224.749)"><stop offset="0%" style="stop-color:rgb(207,207,207);stop-opacity:1"/><stop offset="100%" style="stop-color:rgb(115,115,115);stop-opacity:1"/></radialGradient>
        <radialGradient id="_Radial8" cx="0" cy="0" r="1" gradientUnits="userSpaceOnUse" gradientTransform="matrix(222.794,-0.15627,0.0815837,62.2017,547.365,352.762)"><stop offset="0%" style="stop-color:white;stop-opacity:0.8"/><stop offset="49%" style="stop-color:rgb(227,240,228);stop-opacity:0.8"/><stop offset="100%" style="stop-color:rgb(142,197,146);stop-opacity:0.8"/></radialGradient>
        <radialGradient id="_Radial9" cx="0" cy="0" r="1" gradientUnits="userSpaceOnUse" gradientTransform="matrix(377.639,143.824,-147.804,388.09,928.597,353.97)"><stop offset="0%" style="stop-color:rgb(255,215,0);stop-opacity:1"/><stop offset="100%" style="stop-color:rgb(255,238,149);stop-opacity:1"/></radialGradient>
    </defs>
</svg>
