<?xml version="1.0" standalone="no"?><!DOCTYPE svg PUBLIC "-//W3C//DTD SVG 1.1//EN" "http://www.w3.org/Graphics/SVG/1.1/DTD/svg11.dtd"><svg width="100%" height="100%" viewBox="0 0 600 1200" version="1.1" xmlns="http://www.w3.org/2000/svg" xmlns:xlink="http://www.w3.org/1999/xlink" xml:space="preserve" style="fill-rule:evenodd;clip-rule:evenodd;stroke-linecap:round;stroke-linejoin:round;stroke-miterlimit:1.41421;"><g id="Layer1"><path id="Lower Body" d="M493.214,943.581c-130.673,-23.774 -258.393,-25.52 -394.879,7.826c7.32,145.385 36.741,180.54 36.741,180.54c64.632,42.408 248.264,39.964 313.652,-0.202c0,0 20.295,-24.999 44.486,-188.164Z" style="fill:url(#_Radial1);stroke-width:14px;stroke:#000;"/><path id="Upper Body" d="M522.016,613.834c-100.053,-99.053 -348.911,-100.769 -444.98,0.68c-83.195,87.856 -18.847,315.589 -18.847,315.589c48.844,100.863 416.561,101.308 476.843,0.488c0,0 65.427,-239.098 -13.016,-316.757Z" style="fill:url(#_Radial2);stroke-width:14px;stroke:#000;"/><path id="Hair" d="M68.405,530.807c-157.094,-608.608 614.353,-605.739 465.15,-4.342l-465.15,4.342Z" style="fill:url(#_Radial3);stroke-width:14px;stroke:#000;"/><path id="Face" d="M117.59,305.238c-32.944,289.143 172.995,294.454 172.995,294.454c0,0 232.253,-11.349 188.584,-294.454l-361.579,0Z" style="fill:url(#_Radial4);stroke-width:14px;stroke:#000;"/><path id="Nose" d="M262.644,446.189c23.076,-26.007 46.42,-28.129 72.213,0" style="fill:none;stroke-width:14px;stroke:#000;"/><path id="Lower Smile" d="M218.834,530.915c38.515,-28.029 123.124,-38.186 143.789,-21.72" style="fill:none;stroke-width:14px;stroke:#000;"/><path d="M197.453,340.667c11.186,-2.877 23.322,6.66 27.084,21.285c3.762,14.625 -2.265,28.835 -13.451,31.712c-11.186,2.878 -23.323,-6.659 -27.085,-21.284c-3.762,-14.625 2.265,-28.835 13.452,-31.713Z" style="fill:#000;stroke-width:14px;stroke:#000;"/><path d="M395.54,340.991c10.957,3.654 15.975,18.251 11.198,32.576c-4.777,14.326 -17.551,22.99 -28.509,19.336c-10.957,-3.653 -15.974,-18.25 -11.198,-32.576c4.777,-14.325 17.551,-22.99 28.509,-19.336Z" style="fill:#000;stroke-width:14px;stroke:#000;"/><path d="M182.882,280.795l19.786,-10.475l59.976,69.835l-79.762,-59.36Z" style="fill:#000;stroke-width:14px;stroke:#000;"/><path d="M334.857,340.155l65.578,-69.835l16.094,12.679l-81.672,57.156Z" style="fill:#000;stroke-width:14px;stroke:#000;"/><ellipse cx="173.215" cy="438.654" rx="6.015" ry="6.588" style="fill:#000;"/><ellipse cx="201.351" cy="445.903" rx="6.015" ry="6.588" style="fill:#000;"/><ellipse cx="179.421" cy="481.728" rx="6.015" ry="6.588" style="fill:#000;"/><ellipse cx="389.46" cy="466.351" rx="6.015" ry="6.588" style="fill:#000;"/><ellipse cx="409.7" cy="423.859" rx="6.015" ry="6.588" style="fill:#000;"/><ellipse cx="426.744" cy="458.894" rx="6.015" ry="6.588" style="fill:#000;"/></g><defs><radialGradient id="_Radial1" cx="0" cy="0" r="1" gradientUnits="userSpaceOnUse" gradientTransform="matrix(388.245,-154.199,98.0668,213.107,112.582,1100.72)"><stop offset="0%" style="stop-color:#e5dd00;stop-opacity:1"/><stop offset="100%" style="stop-color:#625d00;stop-opacity:1"/></radialGradient><radialGradient id="_Radial2" cx="0" cy="0" r="1" gradientUnits="userSpaceOnUse" gradientTransform="matrix(512.457,-300.001,129.442,414.61,54.7703,886.007)"><stop offset="0%" style="stop-color:#e5dd00;stop-opacity:1"/><stop offset="100%" style="stop-color:#625d00;stop-opacity:1"/></radialGradient><radialGradient id="_Radial3" cx="0" cy="0" r="1" gradientUnits="userSpaceOnUse" gradientTransform="matrix(517.669,-235.359,130.758,325.273,35.0895,325.761)"><stop offset="0%" style="stop-color:#888;stop-opacity:1"/><stop offset="100%" style="stop-color:#000;stop-opacity:1"/></radialGradient><radialGradient id="_Radial4" cx="0" cy="0" r="1" gradientUnits="userSpaceOnUse" gradientTransform="matrix(466.155,-236.194,117.746,326.426,71.4389,526.648)"><stop offset="0%" style="stop-color:#ffd9b8;stop-opacity:1"/><stop offset="100%" style="stop-color:#ffcd9e;stop-opacity:1"/></radialGradient></defs></svg>