<?xml version="1.0" standalone="no"?><!DOCTYPE svg PUBLIC "-//W3C//DTD SVG 1.1//EN" "http://www.w3.org/Graphics/SVG/1.1/DTD/svg11.dtd"><svg width="100%" height="100%" viewBox="0 0 1130 457" version="1.1" xmlns="http://www.w3.org/2000/svg" xmlns:xlink="http://www.w3.org/1999/xlink" xml:space="preserve" style="fill-rule:evenodd;clip-rule:evenodd;stroke-linejoin:round;stroke-miterlimit:1.41421;"><g><path d="M155.526,171.578c2.705,4.176 3.898,7.901 5.409,15.76c10.579,-10.326 23.624,-15.76 37.862,-15.76c12.859,0 23.412,4.176 31.578,12.699c2.2,2.136 4.322,4.892 6.152,7.597c14.21,-14.555 26.937,-20.296 43.986,-20.296c12.142,0 23.65,3.631 30.677,9.677c8.776,7.584 11.559,16.702 11.559,37.93l0,110.443l-39.452,0l0,-102.53c0,-18.586 -2.2,-22.18 -12.78,-22.18c-7.583,0 -18.241,5.172 -26.991,13.059l0,111.651l-38.499,0l0,-101.073c0,-19.38 -2.809,-23.93 -14.104,-23.93c-7.504,0 -17.898,3.887 -26.647,11.814l0,113.189l-39.718,0l0,-108.338c0,-22.431 -1.538,-32.121 -5.806,-39.742l36.774,-9.97Z" style="fill:#55575c;fill-rule:nonzero;"/><path d="M394.895,217.048c-2.785,8.22 -4.268,19.131 -4.268,34.615c0,17.856 1.828,31.274 5.142,39.134c3.659,8.499 12.808,12.741 20.627,12.741c17.607,0 25.137,-15.762 25.137,-52.47c0,-20.949 -2.732,-34.629 -8.166,-41.627c-3.9,-5.118 -10.235,-8.166 -17.553,-8.166c-9.73,0 -17.632,6.043 -20.919,15.773ZM467.992,194.619c12.409,14.556 17.951,31.537 17.951,56.714c0,26.699 -6.124,44.938 -19.515,60.079c-11.771,13.337 -27.282,21.557 -51.198,21.557c-42.236,0 -69.784,-31.566 -69.784,-80.391c0,-48.868 27.839,-81.346 69.784,-81.346c22.139,0 39.427,7.611 52.762,23.387Z" style="fill:#55575c;fill-rule:nonzero;"/><path d="M616.708,174.283l0,27.916l-68.616,99.204l71.295,0l-9.731,28.225l-114.326,0l0,-25.175l73.046,-101.64l-66.95,0l0,-28.53l115.282,0Z" style="fill:#55575c;fill-rule:nonzero;"/><path d="M680.69,170.623l0,159.005l-40.648,0l0,-152.616l40.648,-6.389ZM685.461,131.514c0,13.976 -11.11,25.136 -25.161,25.136c-13.603,0 -24.79,-11.16 -24.79,-25.136c0,-13.946 11.56,-25.201 25.476,-25.201c13.63,0 24.475,11.255 24.475,25.201Z" style="fill:#55575c;fill-rule:nonzero;"/><path d="M754.715,145.49l0,121.035c0,26.738 0.319,30.332 2.759,34.574c1.537,2.756 4.824,4.243 8.219,4.243c1.458,0 2.332,0 4.533,-0.559l6.947,24.246c-6.947,2.718 -15.457,4.233 -24.258,4.233c-17.342,0 -31.288,-8.17 -36.116,-21.188c-3.048,-7.9 -3.711,-12.778 -3.711,-34.917l0,-115.948c0,-20.309 -0.528,-32.718 -2.043,-46.73l41.577,-9.399c1.457,8.486 2.093,18.507 2.093,40.41Z" style="fill:#55575c;fill-rule:nonzero;"/><path d="M839.028,145.49l0,121.035c0,26.738 0.347,30.332 2.84,34.574c1.43,2.756 4.717,4.243 8.113,4.243c1.537,0 2.465,0 4.612,-0.559l6.922,24.246c-6.922,2.718 -15.434,4.233 -24.263,4.233c-17.311,0 -31.284,-8.17 -36.136,-21.188c-3.102,-7.9 -3.607,-12.778 -3.607,-34.917l0,-115.948c0,-20.309 -0.608,-32.718 -2.174,-46.73l41.52,-9.399c1.672,8.486 2.173,18.507 2.173,40.41Z" style="fill:#55575c;fill-rule:nonzero;"/><path d="M955.505,261.673c-28.105,0 -37.967,5.117 -37.967,23.703c0,12.089 7.689,20.282 18.001,20.282c7.557,0 15.195,-3.95 21.214,-10.605l0.663,-33.38l-1.911,0ZM902.821,180.061c15.115,-6.39 28.109,-9.095 42.425,-9.095c26.143,0 44.013,9.68 50.136,26.991c2.016,6.366 2.944,11.218 2.759,27.919l-0.983,52.156c0,0.915 0,1.88 0,2.755c0,16.678 2.759,23.068 14.642,31.846l-21.586,24.922c-9.495,-3.977 -17.95,-10.976 -21.903,-18.839c-2.995,3.063 -6.363,6.033 -9.439,8.18c-7.529,5.464 -18.531,8.512 -31.26,8.512c-34.598,0 -53.396,-17.633 -53.396,-48.521c0,-36.469 25.241,-53.48 74.66,-53.48c2.971,0 5.781,0 9.149,0.346l0,-6.336c0,-17.327 -3.368,-23.094 -18.321,-23.094c-12.886,0 -28.185,6.335 -44.837,17.59l-17.313,-29.137c8.246,-5.172 14.319,-8.18 25.267,-12.715Z" style="fill:#55575c;fill-rule:nonzero;"/></g></svg>