<?xml version="1.0" standalone="no"?><!DOCTYPE svg PUBLIC "-//W3C//DTD SVG 1.1//EN" "http://www.w3.org/Graphics/SVG/1.1/DTD/svg11.dtd"><svg width="100%" height="100%" viewBox="0 0 1200 1200" version="1.1" xmlns="http://www.w3.org/2000/svg" xmlns:xlink="http://www.w3.org/1999/xlink" xml:space="preserve" style="fill-rule:evenodd;clip-rule:evenodd;stroke-linecap:round;stroke-linejoin:round;stroke-miterlimit:1.41421;"><g id="Layer2"><path d="M672.23,480.078c-1.65,-2.473 0.812,-5.904 1.564,-8.78c1.772,-6.772 4.217,-13.356 5.999,-20.126c7.764,-29.493 11.922,-59.422 13.081,-90.009c10.176,-268.511 -381.59,-372.427 -518.106,-129.888c-34.21,60.779 -48.761,132.298 -37.501,200.871c6.011,36.608 18.837,72.429 39.053,103.643c49.602,76.587 146.659,127.64 238.355,117.859c37.273,-3.976 39.862,-5.731 74.603,-13.77c9.182,-2.125 32.575,-10.551 44.828,-6.445c8.584,2.877 10.436,11.838 10.078,19.805c-0.445,9.886 -2.776,13.952 -6.603,23.415c-3.8,9.397 -10.173,19.598 -2.5,29.011c1.712,2.101 3.76,3.955 5.986,5.499c2.974,2.063 6.136,3.927 9.506,5.248c14.701,5.765 25.518,-3.417 37.107,-11.182c4.538,-3.042 8.41,-7.564 13.669,-9.045c2.217,-0.624 4.123,2.112 5.942,3.523c4.702,3.645 9.19,7.568 13.565,11.599c15.378,14.169 30.733,28.371 45.683,42.991c93.142,91.081 181.324,179.521 271.986,273.129c23.26,24.015 45.349,49.152 68.781,72.999c3.194,3.251 13.741,4.146 16.5,4.266c26.462,1.153 38.567,0.432 65.129,-3.21c6.368,-0.873 22.171,-2.631 25.066,-10.586c2.702,-7.427 2.753,-25.301 2.685,-29.073c-0.341,-18.74 -1.372,-37.464 -2.533,-56.171c-0.356,-5.732 -1.229,-56.869 -7.046,-58.862c-15.7,-5.378 -48.135,-16.755 -50.095,-22.669c-1.446,-4.361 -7.121,-33.64 -9.965,-37.249c-1.533,-1.945 -4.458,-2.33 -6.896,-2.769c-8.25,-1.487 -18.765,2.613 -24.749,-5.456c-8.144,-10.98 -12.703,-51.876 -23.87,-70.708c-12.954,-21.848 -78.417,-13.16 -87.297,-19.295c-16.617,-11.481 5.705,-49.419 -8.323,-65.604c-16.069,-18.54 -43.851,-5.485 -49.561,-27.448c-2.797,-10.757 4.172,-30.202 1.979,-36.126c-5.009,-13.529 -39.306,-13.184 -42.604,-26.945c-0.891,-3.718 -3.912,-6.59 -6.229,-9.631c-13.904,-18.244 -55.091,-63.659 -60.599,-69.77c-5.531,-6.135 40.942,-30.462 15.592,-55.796c-22.654,-22.64 -48.955,19.111 -55.396,12.069c-14.736,-16.109 -26.864,-29.314 -26.864,-29.314ZM335.981,213.083c44.437,0 80.514,34.897 80.514,77.88c0,42.984 -36.077,77.88 -80.514,77.88c-44.437,0 -80.514,-34.896 -80.514,-77.88c0,-42.983 36.077,-77.88 80.514,-77.88Z" style="fill:url(#_Radial1);stroke-width:14px;stroke:#000;"/><path d="M519.316,565.256l536.059,541.707" style="fill:none;stroke-width:12px;stroke:#000;"/><path d="M566.718,524.645l540.389,527.995" style="fill:none;stroke-width:12px;stroke:#000;"/></g><defs><radialGradient id="_Radial1" cx="0" cy="0" r="1" gradientUnits="userSpaceOnUse" gradientTransform="matrix(377.639,143.824,-147.804,388.09,574.485,347.019)"><stop offset="0%" style="stop-color:#2708a0;stop-opacity:1"/><stop offset="100%" style="stop-color:#c2b3ff;stop-opacity:1"/></radialGradient></defs></svg>