<?xml version="1.0" standalone="no"?>
<!DOCTYPE svg PUBLIC "-//W3C//DTD SVG 1.1//EN" "http://www.w3.org/Graphics/SVG/1.1/DTD/svg11.dtd">
<svg width="100%" height="100%" viewBox="0 0 1200 1200" version="1.1" xmlns="http://www.w3.org/2000/svg" xmlns:xlink="http://www.w3.org/1999/xlink" xml:space="preserve" style="fill-rule:evenodd;clip-rule:evenodd;stroke-linecap:round;stroke-linejoin:round;stroke-miterlimit:1.41421;">
    <g id="Layer2" transform="matrix(1,0,0,1,-360,0)">
        <g transform="matrix(1,0,0,1,5.88823,-6.95098)">
            <path d="M1026.34,487.029C1024.69,484.556 1027.15,481.125 1027.91,478.249C1029.68,471.477 1032.12,464.893 1033.9,458.123C1041.67,428.63 1045.83,398.701 1046.99,368.114C1057.16,99.603 665.396,-4.313 528.88,238.226C494.669,299.005 480.119,370.524 491.379,439.097C497.389,475.705 510.216,511.526 530.432,542.74C580.034,619.327 677.091,670.38 768.787,660.599C806.06,656.623 808.649,654.868 843.39,646.829C852.572,644.704 875.964,636.278 888.218,640.384C896.802,643.261 898.654,652.222 898.295,660.189C897.851,670.075 895.52,674.141 891.693,683.604C887.893,693.001 881.52,703.202 889.193,712.615C890.905,714.716 892.952,716.57 895.179,718.114C898.153,720.177 901.315,722.041 904.684,723.362C919.386,729.127 930.203,719.945 941.791,712.18C946.33,709.138 950.202,704.616 955.461,703.135C957.678,702.511 959.583,705.247 961.403,706.658C966.105,710.303 970.592,714.226 974.968,718.257C990.346,732.426 1005.7,746.628 1020.65,761.248C1113.79,852.329 1201.98,940.769 1292.64,1034.38C1315.9,1058.39 1337.99,1083.53 1361.42,1107.38C1364.61,1110.63 1375.16,1111.52 1377.92,1111.64C1404.38,1112.8 1416.48,1112.07 1443.05,1108.43C1449.41,1107.56 1465.22,1105.8 1468.11,1097.85C1470.82,1090.42 1470.87,1072.55 1470.8,1068.77C1470.46,1050.03 1467.04,955.733 1461.22,953.74C1445.52,948.362 1413.08,936.985 1411.12,931.071C1409.68,926.71 1404,897.431 1401.16,893.822C1399.63,891.877 1396.7,891.492 1394.26,891.053C1386.01,889.566 1375.5,893.666 1369.51,885.597C1361.37,874.617 1356.81,833.721 1345.64,814.889C1332.69,793.041 1267.23,801.729 1258.35,795.594C1241.73,784.113 1264.05,746.175 1250.02,729.99C1233.95,711.45 1206.17,724.505 1200.46,702.542C1197.67,691.785 1204.63,672.34 1202.44,666.416C1197.43,652.887 1163.13,653.232 1159.84,639.471C1158.95,635.753 1155.93,632.881 1153.61,629.84C1139.7,611.596 1098.52,566.181 1093.01,560.07C1087.48,553.935 1133.95,529.608 1108.6,504.274C1085.95,481.634 1059.65,523.384 1053.21,516.343C1038.47,500.234 1026.34,487.029 1026.34,487.029ZM690.093,220.034C734.53,220.034 770.607,254.931 770.607,297.914C770.607,340.898 734.53,375.794 690.093,375.794C645.656,375.794 609.579,340.898 609.579,297.914C609.579,254.931 645.656,220.034 690.093,220.034Z" style="fill:url(#_Radial1);stroke-width:14px;stroke:black;"/>
        </g>
        <g transform="matrix(0.992631,0,0,0.992708,6.47944,4.12211)">
            <path d="M879.316,565.256L1416.9,1108.9" style="fill:none;stroke-width:12.09px;stroke:black;"/>
        </g>
        <g transform="matrix(1.01117,0,0,0.983199,37.5805,-31.1141)">
            <path d="M879.316,565.256L1419.35,1110.94" style="fill:none;stroke-width:12.03px;stroke:black;"/>
        </g>
    </g>
    <defs>
        <radialGradient id="_Radial1" cx="0" cy="0" r="1" gradientUnits="userSpaceOnUse" gradientTransform="matrix(377.639,143.824,-147.804,388.09,928.597,353.97)"><stop offset="0%" style="stop-color:rgb(39,8,160);stop-opacity:1"/><stop offset="100%" style="stop-color:rgb(194,179,255);stop-opacity:1"/></radialGradient>
    </defs>
</svg>
