<?xml version="1.0" standalone="no"?><!DOCTYPE svg PUBLIC "-//W3C//DTD SVG 1.1//EN" "http://www.w3.org/Graphics/SVG/1.1/DTD/svg11.dtd"><svg width="100%" height="100%" viewBox="0 0 1200 1200" version="1.1" xmlns="http://www.w3.org/2000/svg" xmlns:xlink="http://www.w3.org/1999/xlink" xml:space="preserve" style="fill-rule:evenodd;clip-rule:evenodd;stroke-linecap:round;stroke-linejoin:round;stroke-miterlimit:1.41421;"><g id="Layer2"><path d="M666.341,487.029c-1.65,-2.473 0.812,-5.904 1.565,-8.78c1.772,-6.772 4.217,-13.356 5.999,-20.126c7.764,-29.493 11.921,-59.422 13.081,-90.009c10.176,-268.511 -381.59,-372.427 -518.106,-129.888c-34.211,60.779 -48.761,132.298 -37.501,200.871c6.01,36.608 18.837,72.429 39.053,103.643c49.602,76.587 146.659,127.64 238.355,117.859c37.273,-3.976 39.862,-5.731 74.603,-13.77c9.182,-2.125 32.574,-10.551 44.828,-6.445c8.584,2.877 10.436,11.838 10.077,19.805c-0.444,9.886 -2.775,13.952 -6.602,23.415c-3.8,9.397 -10.173,19.598 -2.5,29.011c1.712,2.101 3.759,3.955 5.986,5.499c2.974,2.063 6.136,3.927 9.505,5.248c14.702,5.765 25.519,-3.417 37.107,-11.182c4.539,-3.042 8.411,-7.564 13.67,-9.045c2.217,-0.624 4.122,2.112 5.942,3.523c4.702,3.645 9.189,7.568 13.565,11.599c15.378,14.169 30.733,28.371 45.683,42.991c93.141,91.081 181.324,179.521 271.986,273.129c23.26,24.015 45.349,49.152 68.781,72.999c3.194,3.251 13.741,4.146 16.5,4.266c26.462,1.153 38.566,0.432 65.129,-3.21c6.367,-0.873 22.171,-2.631 25.066,-10.586c2.702,-7.427 2.753,-25.301 2.685,-29.073c-0.341,-18.74 -1.372,-37.464 -2.534,-56.171c-0.356,-5.732 -0.612,-35.608 -9.819,-42.755c-10.555,-8.194 -34.599,-2.971 -39.297,-13.202c-9.07,-19.753 2.764,-45.543 -7.605,-54.369c-10.766,-9.163 -45.514,-10.977 -51.498,-19.046c-8.144,-10.981 -2.276,-28.021 -12.509,-38.081c-16.618,-16.337 -33.75,-3.73 -53.104,-13.965c-8.298,-4.389 -3.881,-47.869 -12.762,-54.004c-16.616,-11.481 -46.684,4.27 -61.19,-11.489c-7.961,-8.648 -3.721,-51.942 -6.051,-60.903c-2.796,-10.757 -47.04,-26.546 -49.233,-32.47c-5.008,-13.53 -2.061,-19.086 -5.358,-32.847c-0.891,-3.718 -3.912,-6.59 -6.229,-9.631c-13.904,-18.244 -55.091,-63.659 -60.6,-69.77c-5.53,-6.135 40.943,-30.462 15.592,-55.796c-22.653,-22.64 -48.954,19.11 -55.395,12.069c-14.737,-16.109 -26.865,-29.314 -26.865,-29.314ZM330.093,220.034c44.437,0 80.514,34.897 80.514,77.88c0,42.984 -36.077,77.88 -80.514,77.88c-44.437,0 -80.514,-34.896 -80.514,-77.88c0,-42.983 36.077,-77.88 80.514,-77.88Z" style="fill:url(#_Radial1);stroke-width:14px;stroke:#000;"/><path d="M519.316,565.256l536.059,541.707" style="fill:none;stroke-width:12px;stroke:#000;"/><path d="M566.718,524.645l540.389,527.995" style="fill:none;stroke-width:12px;stroke:#000;"/></g><defs><radialGradient id="_Radial1" cx="0" cy="0" r="1" gradientUnits="userSpaceOnUse" gradientTransform="matrix(377.639,143.824,-147.804,388.09,568.597,353.97)"><stop offset="0%" style="stop-color:#3ce61a;stop-opacity:1"/><stop offset="100%" style="stop-color:#aef4a0;stop-opacity:1"/></radialGradient></defs></svg>