<?xml version="1.0" standalone="no"?><!DOCTYPE svg PUBLIC "-//W3C//DTD SVG 1.1//EN" "http://www.w3.org/Graphics/SVG/1.1/DTD/svg11.dtd"><svg width="100%" height="100%" viewBox="0 0 2400 2100" version="1.1" xmlns="http://www.w3.org/2000/svg" xmlns:xlink="http://www.w3.org/1999/xlink" xml:space="preserve" style="fill-rule:evenodd;clip-rule:evenodd;stroke-linecap:round;stroke-linejoin:round;stroke-miterlimit:1.41421;"><rect x="694.086" y="46.428" width="1041.62" height="334.408" style="fill:#fff;stroke-width:7.53px;stroke:#000;"/><g id="Layer1"><rect x="608.372" y="862.329" width="1183.26" height="321.625" style="fill:#fff;stroke-width:8px;stroke:#000;"/><path d="M1222.74,475.906l-56.315,0.243l12.202,230.401l-57.227,0.518l77.461,100.598l74.471,-102.283l-59.381,0.579l8.789,-230.056Z" style="fill:url(#_Radial1);"/><path d="M1223.7,467.963l0.976,0.179l0.946,0.299l0.902,0.414l0.844,0.522l0.772,0.622l0.69,0.714l0.596,0.793l0.493,0.861l0.383,0.915l0.266,0.956l0.147,0.981l0.023,0.992l-8.468,221.67l50.988,-0.498l0.98,0.051l0.967,0.17l0.938,0.288l0.896,0.4l0.841,0.507l0.772,0.606l0.692,0.696l0.602,0.776l0.502,0.843l0.395,0.899l0.282,0.94l0.165,0.967l0.045,0.981l-0.076,0.978l-0.194,0.963l-0.311,0.931l-0.423,0.885l-0.528,0.828l-74.471,102.283l-0.63,0.762l-0.72,0.678l-0.798,0.585l-0.864,0.482l-0.917,0.371l-0.956,0.255l-0.98,0.135l-0.989,0.013l-0.984,-0.108l-0.962,-0.23l-0.927,-0.346l-0.876,-0.458l-0.814,-0.563l-0.738,-0.659l-0.651,-0.745l-77.461,-100.598l-0.551,-0.816l-0.448,-0.878l-0.336,-0.926l-0.22,-0.96l-0.1,-0.98l0.022,-0.985l0.142,-0.975l0.261,-0.95l0.375,-0.91l0.485,-0.858l0.586,-0.792l0.679,-0.713l0.762,-0.625l0.833,-0.526l0.891,-0.42l0.936,-0.307l0.967,-0.19l0.983,-0.069l48.868,-0.443l-11.76,-222.054l0.01,-0.996l0.133,-0.987l0.254,-0.962l0.372,-0.924l0.485,-0.87l0.588,-0.804l0.684,-0.724l0.768,-0.633l0.841,-0.533l0.901,-0.425l0.947,-0.309l0.978,-0.189l0.993,-0.067l56.316,-0.243l0.99,0.057ZM1166.43,476.149l12.202,230.401l-57.227,0.518l77.461,100.598l74.471,-102.283l-59.381,0.579l8.789,-230.056l-56.315,0.243Z" style="fill:#000;"/><g id="Layer2"><path d="M879.239,190.444c-0.339,-0.507 0.167,-1.212 0.321,-1.802c0.364,-1.39 0.866,-2.741 1.232,-4.131c1.593,-6.053 2.447,-12.197 2.684,-18.475c2.089,-55.113 -78.323,-76.443 -106.344,-26.66c-7.022,12.475 -10.009,27.155 -7.698,41.23c1.234,7.514 3.867,14.866 8.016,21.273c10.182,15.72 30.103,26.199 48.924,24.192c7.651,-0.816 8.182,-1.177 15.313,-2.827c1.885,-0.436 6.686,-2.165 9.201,-1.323c1.762,0.591 2.142,2.43 2.069,4.065c-0.091,2.03 -0.57,2.864 -1.355,4.807c-0.78,1.928 -2.088,4.022 -0.514,5.954c0.352,0.431 0.772,0.812 1.229,1.129c0.611,0.424 1.26,0.806 1.951,1.077c3.018,1.184 5.238,-0.701 7.617,-2.295c0.931,-0.624 1.726,-1.553 2.806,-1.857c0.454,-0.128 0.846,0.434 1.219,0.724c0.965,0.748 1.886,1.553 2.784,2.38c3.157,2.909 6.309,5.824 9.377,8.824c19.118,18.696 37.218,36.848 55.827,56.062c4.774,4.929 9.308,10.089 14.118,14.984c0.655,0.667 2.82,0.851 3.386,0.875c5.432,0.237 7.917,0.089 13.369,-0.659c1.307,-0.179 4.55,-0.54 5.145,-2.172c0.554,-1.525 0.565,-5.194 0.551,-5.968c-0.07,-3.846 -0.282,-7.69 -0.52,-11.529c-0.073,-1.177 -1.305,-1.264 -1.444,-2.339c-0.209,-1.623 0.369,-5.172 -1.05,-6.437c-0.814,-0.726 -6.192,-0.643 -6.973,-1.634c-0.117,-0.148 -2.815,-10.146 -3.217,-11.36c-0.297,-0.895 -0.506,-1.87 -1.09,-2.611c-0.315,-0.399 -0.915,-0.478 -1.416,-0.568c-1.693,-0.305 -3.851,0.536 -5.079,-1.12c-1.672,-2.254 -0.082,-5.598 -2.182,-7.663c-3.411,-3.354 -9.257,-1.405 -13.23,-3.506c-1.703,-0.9 -1.688,-2.903 -1.956,-4.502c-0.356,-2.124 -0.513,-3.412 -2.335,-4.671c-3.411,-2.357 -8.623,-0.64 -11.503,-3.962c-3.298,-3.805 -2.321,-8.761 -3.493,-13.269c-0.574,-2.208 -2.399,-2.723 -4.411,-3.082c-0.94,-0.167 -2.617,-0.012 -3.067,-1.228c-1.028,-2.777 -0.184,-5.811 -0.861,-8.636c-0.183,-0.763 -0.803,-1.353 -1.278,-1.977c-2.854,-3.744 -11.308,-13.066 -12.439,-14.32c-1.135,-1.26 8.404,-6.253 3.201,-11.453c-4.65,-4.647 -10.049,3.923 -11.371,2.477c-3.025,-3.306 -5.514,-6.017 -5.514,-6.017ZM810.222,135.642c9.121,0 16.526,7.163 16.526,15.985c0,8.823 -7.405,15.986 -16.526,15.986c-9.121,0 -16.526,-7.163 -16.526,-15.986c0,-8.822 7.405,-15.985 16.526,-15.985Z" style="fill:url(#_Radial2);stroke-width:2.87px;stroke:#000;"/><path d="M849.061,206.501l110.03,111.189" style="fill:none;stroke-width:2.46px;stroke:#000;"/><path d="M858.791,198.165l110.918,108.375" style="fill:none;stroke-width:2.46px;stroke:#000;"/></g><path d="M1223.16,1246.42l-56.315,0.142l11.786,230.423l-57.228,0.414l77.279,100.738l74.655,-102.149l-59.381,0.472l9.204,-230.04Z" style="fill:url(#_Radial3);"/><path d="M1224.13,1238.48l0.975,0.181l0.946,0.301l0.901,0.415l0.842,0.523l0.772,0.624l0.688,0.715l0.595,0.794l0.491,0.862l0.382,0.916l0.264,0.956l0.145,0.982l0.022,0.992l-8.869,221.654l50.989,-0.405l0.98,0.052l0.966,0.172l0.938,0.289l0.896,0.402l0.84,0.508l0.771,0.608l0.69,0.697l0.601,0.777l0.5,0.844l0.394,0.899l0.28,0.941l0.163,0.968l0.043,0.981l-0.077,0.978l-0.196,0.962l-0.313,0.93l-0.424,0.885l-0.53,0.827l-74.655,102.148l-0.632,0.761l-0.721,0.677l-0.799,0.584l-0.865,0.479l-0.918,0.37l-0.956,0.254l-0.98,0.133l-0.99,0.012l-0.983,-0.111l-0.961,-0.231l-0.926,-0.348l-0.876,-0.46l-0.813,-0.565l-0.737,-0.66l-0.649,-0.746l-77.279,-100.737l-0.551,-0.817l-0.445,-0.879l-0.335,-0.926l-0.218,-0.961l-0.098,-0.98l0.023,-0.985l0.144,-0.975l0.262,-0.949l0.378,-0.91l0.486,-0.857l0.588,-0.791l0.68,-0.712l0.763,-0.623l0.834,-0.525l0.892,-0.418l0.936,-0.306l0.967,-0.188l0.983,-0.067l48.87,-0.354l-11.36,-222.075l0.011,-0.996l0.135,-0.987l0.256,-0.962l0.374,-0.923l0.486,-0.87l0.59,-0.802l0.685,-0.723l0.77,-0.632l0.842,-0.532l0.901,-0.423l0.948,-0.307l0.978,-0.188l0.994,-0.064l56.315,-0.142l0.991,0.059ZM1166.84,1246.57l11.786,230.423l-57.228,0.414l77.279,100.738l74.655,-102.149l-59.381,0.472l9.204,-230.04l-56.315,0.142Z" style="fill:#000;"/><path d="M649.639,1765.25l0.244,56.315l230.401,-12.202l0.518,57.227l100.598,-77.461l-102.283,-74.471l0.579,59.381l-230.057,-8.789Z" style="fill:url(#_Radial4);"/><path d="M880.219,1706.73l0.962,0.195l0.931,0.311l0.886,0.423l0.828,0.528l102.282,74.47l0.763,0.631l0.678,0.72l0.585,0.798l0.481,0.864l0.371,0.917l0.256,0.956l0.135,0.98l0.013,0.989l-0.109,0.983l-0.229,0.963l-0.347,0.926l-0.458,0.877l-0.563,0.814l-0.659,0.738l-0.745,0.65l-100.597,77.461l-0.816,0.552l-0.878,0.448l-0.926,0.336l-0.96,0.219l-0.98,0.1l-0.985,-0.021l-0.975,-0.142l-0.95,-0.261l-0.911,-0.375l-0.857,-0.485l-0.792,-0.586l-0.713,-0.68l-0.625,-0.762l-0.526,-0.832l-0.42,-0.891l-0.307,-0.937l-0.19,-0.966l-0.07,-0.983l-0.442,-48.868l-222.054,11.76l-0.996,-0.01l-0.987,-0.133l-0.963,-0.254l-0.923,-0.373l-0.871,-0.484l-0.803,-0.588l-0.724,-0.684l-0.634,-0.768l-0.533,-0.842l-0.424,-0.901l-0.309,-0.946l-0.19,-0.978l-0.066,-0.994l-0.244,-56.315l0.058,-0.99l0.179,-0.976l0.299,-0.946l0.413,-0.902l0.522,-0.844l0.623,-0.772l0.713,-0.69l0.794,-0.596l0.86,-0.493l0.916,-0.383l0.955,-0.267l0.982,-0.146l0.992,-0.024l221.669,8.469l-0.497,-50.988l0.051,-0.98l0.17,-0.967l0.288,-0.938l0.4,-0.897l0.507,-0.84l0.606,-0.772l0.696,-0.692l0.775,-0.602l0.844,-0.502l0.898,-0.395l0.94,-0.282l0.968,-0.165l0.981,-0.045l0.978,0.075ZM879.696,1774.04l-230.057,-8.789l0.244,56.315l230.401,-12.202l0.518,57.227l100.598,-77.461l-102.283,-74.471l0.579,59.381Z" style="fill:#000;"/><path d="M1429.83,1765.25l0.244,56.315l230.401,-12.202l0.518,57.227l100.598,-77.461l-102.283,-74.471l0.579,59.381l-230.057,-8.789Z" style="fill:url(#_Radial5);"/><path d="M1660.41,1706.73l0.962,0.195l0.931,0.311l0.886,0.423l0.828,0.528l102.282,74.47l0.763,0.631l0.678,0.72l0.585,0.798l0.481,0.864l0.371,0.917l0.256,0.956l0.135,0.98l0.013,0.989l-0.109,0.983l-0.229,0.963l-0.347,0.926l-0.458,0.877l-0.563,0.814l-0.659,0.738l-0.745,0.65l-100.597,77.461l-0.816,0.552l-0.878,0.448l-0.926,0.336l-0.96,0.219l-0.98,0.1l-0.985,-0.021l-0.975,-0.142l-0.95,-0.261l-0.911,-0.375l-0.857,-0.485l-0.792,-0.586l-0.713,-0.68l-0.625,-0.762l-0.526,-0.832l-0.42,-0.891l-0.307,-0.936l-0.19,-0.967l-0.07,-0.983l-0.442,-48.868l-222.054,11.76l-0.996,-0.01l-0.987,-0.133l-0.963,-0.254l-0.923,-0.373l-0.871,-0.484l-0.803,-0.588l-0.724,-0.684l-0.634,-0.768l-0.533,-0.842l-0.424,-0.901l-0.309,-0.946l-0.19,-0.978l-0.066,-0.994l-0.244,-56.315l0.058,-0.99l0.179,-0.976l0.299,-0.946l0.413,-0.902l0.522,-0.844l0.623,-0.772l0.713,-0.69l0.794,-0.596l0.86,-0.493l0.916,-0.383l0.955,-0.267l0.982,-0.146l0.992,-0.024l221.669,8.469l-0.497,-50.988l0.051,-0.98l0.17,-0.967l0.288,-0.938l0.4,-0.897l0.507,-0.84l0.606,-0.772l0.696,-0.692l0.775,-0.602l0.844,-0.502l0.898,-0.395l0.941,-0.282l0.967,-0.165l0.981,-0.045l0.978,0.075ZM1659.89,1774.04l-230.057,-8.789l0.244,56.315l230.401,-12.202l0.518,57.227l100.598,-77.461l-102.283,-74.471l0.579,59.381Z" style="fill:#000;"/><text x="700.472px" y="1087.7px" style="font-family:Helvetica;font-size:209.038px;fill:#000;">Keystream</text><g id="Layer11"><path d="M564.398,1552.13l-278.771,-0.656l-94.134,87.565l-0.437,378.06l373.342,0l0,-464.969Z" style="fill:#fff;stroke-width:6.37px;stroke:#000;"/><path d="M286.852,1638.3l0,-85.999l0,85.999Z" style="fill:none;stroke-width:6.37px;stroke-linecap:square;stroke:#000;"/><path d="M286.809,1640.06l-93.945,-0.716l93.945,0.716Z" style="fill:none;stroke-width:6.37px;stroke-linecap:square;stroke:#000;"/><text x="315.165px" y="1851.92px" style="font-family:Times;font-size:224.983px;fill:#000;">P</text><path d="M287.037,1620.55l241.805,0" style="fill:none;stroke-width:5.01px;stroke:#000;"/><path d="M226.612,1660.92l302.23,0" style="fill:none;stroke-width:5.01px;stroke:#000;"/><path d="M226.612,1891.35l302.23,0" style="fill:none;stroke-width:5.01px;stroke:#000;"/><path d="M226.612,1935.11l302.23,0" style="fill:none;stroke-width:5.01px;stroke:#000;"/><path d="M226.612,1974.77l302.23,0" style="fill:none;stroke-width:5.01px;stroke:#000;"/><path d="M287.83,1581.66l241.012,0" style="fill:none;stroke-width:5.01px;stroke:#000;"/></g><g id="Layer12"><path d="M2208.94,1573.15l-278.771,-0.656l-94.134,87.565l-0.437,378.06l373.342,0l0,-464.969Z" style="fill:#fff;stroke-width:6.37px;stroke:#000;"/><path d="M1931.4,1659.32l0,-85.999l0,85.999Z" style="fill:none;stroke-width:6.37px;stroke-linecap:square;stroke:#000;"/><path d="M1931.36,1661.09l-93.945,-0.717l93.945,0.717Z" style="fill:none;stroke-width:6.37px;stroke-linecap:square;stroke:#000;"/><text x="1947.24px" y="1872.95px" style="font-family:Times;font-size:224.983px;fill:#000;">C</text><path d="M1931.58,1641.57l39.989,8.205l36.971,-23.984l32.166,20.108l36.18,-25.113l31.631,20.488l31.964,11.176l3.657,-13.468l29.247,2.588" style="fill:none;stroke-width:5.01px;stroke:#000;"/><path d="M1871.16,1681.94l47.734,12.308l32.157,-23.711l32.86,13.326l19.101,16.832l22.453,-25.495l49.27,20.707l41.592,-31.581l30.926,23.644l26.137,-6.03" style="fill:none;stroke-width:5.01px;stroke:#000;"/><path d="M1871.16,1908.28l37.54,-19.146l28.731,39.453l40.965,-18.8l30.651,20.225l25.924,-41.991l12.7,13.484l51.631,21.178l24.933,-21.391l26.152,-6.147l23.003,21.289" style="fill:none;stroke-width:5.01px;stroke:#000;"/><path d="M1871.16,1956.14l37.561,17.779l23.287,-5.133l36.141,-28.31l50.122,18.237l53.848,-24.78l9.007,27.802l82.634,-15.163l9.63,9.568" style="fill:none;stroke-width:5.01px;stroke:#000;"/><path d="M1871.16,1995.8l50.514,20.562l45.719,-28.1l31.628,16.701l32.811,-31.523l33.683,46.916l42.768,-41.016l34.918,31.629l30.189,-15.169" style="fill:none;stroke-width:5.01px;stroke:#000;"/><path d="M1932.38,1602.68l13.886,8.889l23.252,-12.534l24.591,7.618l55.449,-17.959l57.376,31.934l32.169,-32.066l34.289,14.118" style="fill:none;stroke-width:5.01px;stroke:#000;"/></g><g id="Layer13"><circle cx="1200" cy="1790.62" r="152.471" style="fill:#fff;stroke-width:7.36px;stroke:#000;"/><path d="M1200,1649.6l0,282.046" style="fill:none;stroke-width:11.04px;stroke-linecap:butt;stroke:#000;"/><path d="M1341.02,1790.62l-282.046,0" style="fill:none;stroke-width:11.04px;stroke-linecap:butt;stroke:#000;"/></g><text x="1161.22px" y="261.863px" style="font-family:Helvetica;font-size:186.978px;fill:#000;">nonce</text><text x="1000.94px" y="260.119px" style="font-family:Helvetica;font-size:192px;fill:#000;">+</text></g><defs><radialGradient id="_Radial1" cx="0" cy="0" r="1" gradientUnits="userSpaceOnUse" gradientTransform="matrix(3.86518,458.744,-75.9663,0.776448,1194.52,474.908)"><stop offset="0%" style="stop-color:#fff;stop-opacity:1"/><stop offset="100%" style="stop-color:#434343;stop-opacity:1"/></radialGradient><radialGradient id="_Radial2" cx="0" cy="0" r="1" gradientUnits="userSpaceOnUse" gradientTransform="matrix(77.5129,29.5208,-30.3378,79.6579,859.176,163.133)"><stop offset="0%" style="stop-color:#ffd700;stop-opacity:1"/><stop offset="100%" style="stop-color:#ffee95;stop-opacity:1"/></radialGradient><radialGradient id="_Radial3" cx="0" cy="0" r="1" gradientUnits="userSpaceOnUse" gradientTransform="matrix(3.03719,458.751,-75.9676,0.639336,1194.94,1245.38)"><stop offset="0%" style="stop-color:#fff;stop-opacity:1"/><stop offset="100%" style="stop-color:#434343;stop-opacity:1"/></radialGradient><radialGradient id="_Radial4" cx="0" cy="0" r="1" gradientUnits="userSpaceOnUse" gradientTransform="matrix(458.744,-3.86518,0.776448,75.9663,648.642,1793.47)"><stop offset="0%" style="stop-color:#fff;stop-opacity:1"/><stop offset="100%" style="stop-color:#434343;stop-opacity:1"/></radialGradient><radialGradient id="_Radial5" cx="0" cy="0" r="1" gradientUnits="userSpaceOnUse" gradientTransform="matrix(458.744,-3.86518,0.776448,75.9663,1428.83,1793.47)"><stop offset="0%" style="stop-color:#fff;stop-opacity:1"/><stop offset="100%" style="stop-color:#2c2cff;stop-opacity:1"/></radialGradient></defs></svg>