<?xml version="1.0" standalone="no"?>
<!DOCTYPE svg PUBLIC "-//W3C//DTD SVG 1.1//EN" "http://www.w3.org/Graphics/SVG/1.1/DTD/svg11.dtd">
<svg width="100%" height="100%" viewBox="0 0 1200 1050" version="1.1" xmlns="http://www.w3.org/2000/svg" xmlns:xlink="http://www.w3.org/1999/xlink" xml:space="preserve" style="fill-rule:evenodd;clip-rule:evenodd;stroke-linecap:round;stroke-linejoin:round;stroke-miterlimit:1.41421;">
    <g id="Layer1" transform="matrix(1,0,0,1,-360,-75)">
        <g transform="matrix(1,0,0,1,638.521,53.4601)">
            <rect x="63.156" y="42.053" width="516.646" height="192.24" style="fill:white;stroke-width:4px;stroke:black;"/>
        </g>
        <g transform="matrix(1.14513,0,0,0.836517,591.864,470.987)">
            <rect x="63.156" y="42.053" width="516.646" height="192.24" style="fill:white;stroke-width:3.99px;stroke:black;"/>
        </g>
        <g transform="matrix(1,0,0,1,638.521,53.4601)">
            <path d="M266.021,138.173L345.679,138.173" style="fill:none;stroke-width:4px;stroke:black;"/>
        </g>
        <g transform="matrix(6.12323e-17,1,-1,6.12323e-17,1082.54,-114.217)">
            <path d="M266.021,138.173L345.679,138.173" style="fill:none;stroke-width:4px;stroke:black;"/>
        </g>
        <g transform="matrix(10.803,0,0,10.803,-3338.34,-1081.16)">
            <text x="405.754px" y="121.84px" style="font-family:Times;font-size:12px;fill:black;">IV</text>
        </g>
        <g transform="matrix(0.00824603,1.02953,-0.610656,0.00489104,1168.16,-252.801)">
            <path d="M547.959,329.661L547.859,375.77L659.795,367.29L659.824,414.148L708.978,351.387L659.596,289.744L659.647,338.365L547.959,329.661Z" style="fill:url(#_Radial1);"/>
            <path d="M544.106,328.826L544.197,328.028L544.345,327.255L544.55,326.52L544.807,325.832L545.112,325.204L545.461,324.644L545.849,324.161L546.269,323.763L546.715,323.456L547.18,323.244L547.657,323.13L548.139,323.117L655.754,331.505L655.711,289.756L655.74,288.953L655.826,288.163L655.969,287.396L656.167,286.665L656.417,285.98L656.714,285.352L657.055,284.79L657.434,284.303L657.845,283.897L658.283,283.58L658.741,283.355L659.211,283.226L659.688,283.196L660.163,283.264L660.629,283.43L661.08,283.69L661.508,284.042L661.908,284.48L711.29,346.123L711.658,346.644L711.984,347.238L712.265,347.895L712.496,348.606L712.672,349.359L712.792,350.143L712.854,350.947L712.857,351.757L712.8,352.561L712.685,353.347L712.513,354.104L712.287,354.818L712.011,355.481L711.688,356.081L711.324,356.609L662.169,419.369L661.771,419.816L661.343,420.176L660.892,420.445L660.425,420.619L659.948,420.694L659.47,420.671L658.997,420.548L658.537,420.328L658.096,420.015L657.682,419.612L657.3,419.127L656.956,418.566L656.655,417.938L656.403,417.253L656.203,416.521L656.057,415.752L655.969,414.959L655.939,414.154L655.914,374.141L548.033,382.313L547.549,382.299L547.071,382.184L546.604,381.969L546.157,381.658L545.736,381.256L545.348,380.769L544.999,380.204L544.695,379.571L544.439,378.879L544.236,378.138L544.09,377.361L544.002,376.559L543.973,375.745L544.074,329.636L544.106,328.826ZM547.859,375.77L659.795,367.29L659.824,414.148L708.978,351.387L659.596,289.744L659.647,338.365L547.959,329.661L547.859,375.77Z" style="fill:black;"/>
        </g>
        <g id="key" transform="matrix(0.102628,2.1684e-19,1.0842e-19,0.102628,732.689,129.305)">
            <g id="Layer2" transform="matrix(1,0,0,1,-360,0)">
                <path d="M1026.34,487.029C1024.69,484.556 1027.15,481.125 1027.91,478.249C1029.68,471.477 1032.12,464.893 1033.9,458.123C1041.67,428.63 1045.83,398.701 1046.99,368.114C1057.16,99.603 665.396,-4.313 528.88,238.226C494.669,299.005 480.119,370.524 491.379,439.097C497.389,475.705 510.216,511.526 530.432,542.74C580.034,619.327 677.091,670.38 768.787,660.599C806.06,656.623 808.649,654.868 843.39,646.829C852.572,644.704 875.964,636.278 888.218,640.384C896.802,643.261 898.654,652.222 898.295,660.189C897.851,670.075 895.52,674.141 891.693,683.604C887.893,693.001 881.52,703.202 889.193,712.615C890.905,714.716 892.952,716.57 895.179,718.114C898.153,720.177 901.315,722.041 904.684,723.362C919.386,729.127 930.203,719.945 941.791,712.18C946.33,709.138 950.202,704.616 955.461,703.135C957.678,702.511 959.583,705.247 961.403,706.658C966.105,710.303 970.592,714.226 974.968,718.257C990.346,732.426 1005.7,746.628 1020.65,761.248C1113.79,852.329 1201.98,940.769 1292.64,1034.38C1315.9,1058.39 1337.99,1083.53 1361.42,1107.38C1364.61,1110.63 1375.16,1111.52 1377.92,1111.64C1404.38,1112.8 1416.48,1112.07 1443.05,1108.43C1449.41,1107.56 1465.22,1105.8 1468.11,1097.85C1470.82,1090.42 1470.87,1072.55 1470.8,1068.77C1470.46,1050.03 1469.43,1031.31 1468.26,1012.6C1467.91,1006.87 1461.91,1006.44 1461.23,1001.21C1460.21,993.299 1463.03,976.01 1456.12,969.847C1452.15,966.311 1425.95,966.717 1422.14,961.888C1421.58,961.165 1408.43,912.457 1406.47,906.543C1405.02,902.181 1404,897.431 1401.16,893.822C1399.63,891.877 1396.7,891.492 1394.26,891.053C1386.01,889.566 1375.5,893.666 1369.51,885.597C1361.37,874.617 1369.12,858.322 1358.88,848.262C1342.27,831.925 1313.79,841.419 1294.43,831.184C1286.13,826.795 1286.2,817.037 1284.9,809.25C1283.17,798.903 1282.4,792.626 1273.52,786.491C1256.91,775.01 1231.51,783.375 1217.48,767.189C1201.41,748.65 1206.17,724.505 1200.46,702.542C1197.67,691.785 1188.77,689.275 1178.97,687.529C1174.39,686.713 1166.23,687.471 1164.03,681.547C1159.02,668.018 1163.13,653.232 1159.84,639.471C1158.95,635.753 1155.93,632.881 1153.61,629.84C1139.7,611.596 1098.52,566.181 1093.01,560.07C1087.48,553.935 1133.95,529.608 1108.6,504.274C1085.95,481.634 1059.65,523.384 1053.21,516.343C1038.47,500.234 1026.34,487.029 1026.34,487.029ZM690.093,220.034C734.53,220.034 770.607,254.931 770.607,297.914C770.607,340.898 734.53,375.794 690.093,375.794C645.656,375.794 609.579,340.898 609.579,297.914C609.579,254.931 645.656,220.034 690.093,220.034Z" style="fill:url(#_Radial2);stroke-width:14px;stroke:black;"/>
                <g transform="matrix(0.992631,0,0,0.992708,6.47944,4.12211)">
                    <path d="M879.316,565.256L1419.35,1110.94" style="fill:none;stroke-width:12.09px;stroke:black;"/>
                </g>
                <g transform="matrix(1.00065,0,0,0.967579,46.8327,-22.285)">
                    <path d="M879.316,565.256L1419.35,1110.94" style="fill:none;stroke-width:12.19px;stroke:black;"/>
                </g>
            </g>
        </g>
        <g transform="matrix(0.00638782,1.02955,-0.610664,0.00378887,1169.39,132.814)">
            <path d="M547.959,329.661L547.859,375.77L659.795,367.29L659.824,414.148L708.978,351.387L659.596,289.744L659.647,338.365L547.959,329.661Z" style="fill:url(#_Radial3);"/>
            <path d="M544.106,328.826L544.197,328.028L544.345,327.255L544.55,326.52L544.807,325.832L545.112,325.204L545.461,324.644L545.849,324.161L546.269,323.763L546.715,323.456L547.18,323.244L547.657,323.13L548.139,323.117L655.754,331.505L655.711,289.756L655.74,288.953L655.826,288.163L655.969,287.396L656.167,286.665L656.417,285.98L656.714,285.352L657.055,284.79L657.434,284.303L657.845,283.897L658.283,283.58L658.741,283.355L659.211,283.226L659.688,283.196L660.163,283.264L660.629,283.43L661.08,283.69L661.508,284.042L661.908,284.48L711.29,346.123L711.658,346.644L711.984,347.238L712.265,347.895L712.496,348.606L712.672,349.359L712.792,350.143L712.854,350.947L712.857,351.757L712.8,352.561L712.685,353.347L712.513,354.104L712.287,354.818L712.011,355.481L711.688,356.081L711.324,356.609L662.169,419.369L661.771,419.816L661.343,420.176L660.892,420.445L660.425,420.619L659.948,420.694L659.47,420.671L658.997,420.548L658.537,420.328L658.096,420.015L657.682,419.612L657.3,419.127L656.956,418.566L656.655,417.938L656.403,417.253L656.203,416.52L656.057,415.752L655.969,414.959L655.939,414.154L655.914,374.141L548.033,382.313L547.549,382.299L547.071,382.184L546.604,381.969L546.157,381.658L545.736,381.256L545.348,380.769L544.999,380.204L544.695,379.571L544.439,378.879L544.236,378.138L544.09,377.361L544.002,376.559L543.973,375.745L544.074,329.636L544.106,328.826ZM547.859,375.77L659.795,367.29L659.824,414.148L708.978,351.387L659.596,289.744L659.647,338.365L547.959,329.661L547.859,375.77Z" style="fill:black;"/>
        </g>
        <g transform="matrix(1.02953,-0.00824603,0.00489104,0.610656,119.066,760.832)">
            <path d="M547.959,329.661L547.859,375.77L659.795,367.29L659.824,414.148L708.978,351.387L659.596,289.744L659.647,338.365L547.959,329.661Z" style="fill:url(#_Radial4);"/>
            <path d="M660.163,283.264L660.629,283.43L661.08,283.69L661.508,284.042L661.908,284.48L711.29,346.123L711.658,346.644L711.984,347.238L712.265,347.895L712.496,348.606L712.672,349.359L712.792,350.143L712.854,350.947L712.857,351.757L712.8,352.561L712.685,353.347L712.513,354.104L712.287,354.818L712.011,355.481L711.688,356.081L711.324,356.609L662.169,419.369L661.771,419.816L661.343,420.176L660.892,420.445L660.425,420.619L659.948,420.694L659.47,420.671L658.997,420.548L658.537,420.328L658.096,420.015L657.682,419.612L657.3,419.127L656.956,418.566L656.655,417.938L656.403,417.253L656.203,416.52L656.057,415.752L655.969,414.959L655.939,414.154L655.914,374.141L548.033,382.313L547.549,382.299L547.071,382.184L546.604,381.969L546.157,381.658L545.736,381.256L545.348,380.769L544.999,380.204L544.695,379.571L544.439,378.879L544.236,378.138L544.09,377.361L544.002,376.559L543.973,375.745L544.074,329.636L544.106,328.826L544.197,328.028L544.345,327.255L544.55,326.52L544.807,325.832L545.112,325.204L545.461,324.644L545.849,324.161L546.269,323.763L546.715,323.456L547.18,323.244L547.657,323.13L548.139,323.117L655.754,331.505L655.711,289.756L655.74,288.953L655.826,288.163L655.969,287.397L656.167,286.665L656.417,285.981L656.714,285.352L657.055,284.79L657.434,284.303L657.845,283.897L658.283,283.58L658.741,283.355L659.211,283.226L659.688,283.196L660.163,283.264ZM659.647,338.365L547.959,329.661L547.859,375.77L659.795,367.29L659.824,414.148L708.978,351.387L659.596,289.744L659.647,338.365Z" style="fill:black;"/>
        </g>
        <g transform="matrix(1.02953,-0.00824603,0.00489104,0.610656,509.161,760.832)">
            <path d="M547.959,329.661L547.859,375.77L659.795,367.29L659.824,414.148L708.978,351.387L659.596,289.744L659.647,338.365L547.959,329.661Z" style="fill:url(#_Radial5);"/>
            <path d="M660.163,283.264L660.629,283.43L661.08,283.69L661.508,284.042L661.908,284.48L711.29,346.123L711.658,346.644L711.984,347.238L712.265,347.895L712.496,348.606L712.672,349.359L712.792,350.143L712.854,350.947L712.857,351.757L712.8,352.561L712.685,353.347L712.513,354.104L712.287,354.818L712.011,355.481L711.688,356.081L711.324,356.609L662.169,419.369L661.771,419.816L661.343,420.176L660.892,420.445L660.425,420.619L659.948,420.694L659.47,420.671L658.997,420.548L658.537,420.328L658.096,420.015L657.682,419.612L657.3,419.127L656.956,418.566L656.655,417.938L656.403,417.253L656.203,416.521L656.057,415.752L655.969,414.959L655.939,414.154L655.914,374.141L548.033,382.313L547.549,382.299L547.071,382.184L546.604,381.969L546.157,381.658L545.736,381.256L545.348,380.769L544.999,380.204L544.695,379.571L544.439,378.879L544.236,378.138L544.09,377.361L544.002,376.559L543.973,375.745L544.074,329.636L544.106,328.826L544.197,328.028L544.345,327.255L544.55,326.52L544.807,325.832L545.112,325.204L545.461,324.644L545.849,324.161L546.269,323.763L546.715,323.456L547.18,323.244L547.657,323.13L548.139,323.117L655.754,331.505L655.711,289.756L655.74,288.953L655.826,288.163L655.969,287.397L656.167,286.665L656.417,285.981L656.714,285.352L657.055,284.79L657.434,284.303L657.845,283.897L658.283,283.58L658.741,283.355L659.211,283.226L659.688,283.196L660.163,283.264ZM659.647,338.365L547.959,329.661L547.859,375.77L659.795,367.29L659.824,414.148L708.978,351.387L659.596,289.744L659.647,338.365Z" style="fill:black;"/>
        </g>
        <g transform="matrix(8.70993,0,0,8.70993,-5741.85,-4642.93)">
            <text x="740.773px" y="604.113px" style="font-family:Helvetica;font-size:12px;fill:black;">Keystream</text>
        </g>
        <g id="plaintext" transform="matrix(0.227641,0,0,0.227641,435.043,830.722)">
            <g id="Layer11" transform="matrix(1,0,0,1,-100,0)">
                <g transform="matrix(1.05814,0,0,1.06583,-123.879,-73.7269)">
                    <path d="M1071.59,153.015L492.928,151.663L297.529,332.115L296.621,1111.21L1071.59,1111.21L1071.59,153.015Z" style="fill:white;stroke-width:13.18px;stroke:black;"/>
                </g>
                <g transform="matrix(1,0,0,1.25812,39.8805,-23.1609)">
                    <path d="M360.519,239.868L360.519,89.73L360.519,239.868Z" style="fill:none;stroke-width:12.32px;stroke-linecap:square;stroke:black;"/>
                </g>
                <g transform="matrix(1.22166,0,0,11.8473,-42.9922,-2588.67)">
                    <path d="M362.865,242.347L193.96,242.214L362.865,242.347Z" style="fill:none;stroke-width:1.66px;stroke-linecap:square;stroke:black;"/>
                </g>
                <g transform="matrix(41.1801,0,0,41.1801,-18864.8,-24231.3)">
                    <text x="469.337px" y="606.582px" style="font-family:Times;font-size:12px;fill:black;">P</text>
                </g>
                <g transform="matrix(0.851576,0,0,1,137.15,37.4824)">
                    <path d="M309.61,202.155L933.288,202.155" style="fill:none;stroke-width:11.84px;stroke:black;"/>
                </g>
                <g transform="matrix(1,0,0,1,-1.37281,126.158)">
                    <path d="M269.458,202.155L933.288,202.155" style="fill:none;stroke-width:11px;stroke:black;"/>
                </g>
                <g transform="matrix(1,0,0,1,-1.37281,632.29)">
                    <path d="M269.458,202.155L933.288,202.155" style="fill:none;stroke-width:11px;stroke:black;"/>
                </g>
                <g transform="matrix(1,0,0,1,-1.37281,728.411)">
                    <path d="M269.458,202.155L933.288,202.155" style="fill:none;stroke-width:11px;stroke:black;"/>
                </g>
                <g transform="matrix(1,0,0,1,-1.37281,815.519)">
                    <path d="M269.458,202.155L933.288,202.155" style="fill:none;stroke-width:11px;stroke:black;"/>
                </g>
                <g transform="matrix(0.860411,0,0,1,128.904,-47.9369)">
                    <path d="M318.038,202.155L933.288,202.155" style="fill:none;stroke-width:11.79px;stroke:black;"/>
                </g>
            </g>
        </g>
        <g id="ciphertext" transform="matrix(0.227641,0,0,0.227641,1257.32,841.235)">
            <g id="Layer12" transform="matrix(1,0,0,1,-100,0)">
                <g transform="matrix(1.05814,0,0,1.06583,-123.879,-73.7269)">
                    <path d="M1071.59,153.015L492.928,151.663L297.529,332.115L296.621,1111.21L1071.59,1111.21L1071.59,153.015Z" style="fill:white;stroke-width:13.18px;stroke:black;"/>
                </g>
                <g transform="matrix(1,0,0,1.25812,39.8805,-23.1609)">
                    <path d="M360.519,239.868L360.519,89.73L360.519,239.868Z" style="fill:none;stroke-width:12.32px;stroke-linecap:square;stroke:black;"/>
                </g>
                <g transform="matrix(1.22166,0,0,11.8473,-42.9922,-2588.67)">
                    <path d="M362.865,242.347L193.96,242.214L362.865,242.347Z" style="fill:none;stroke-width:1.66px;stroke-linecap:square;stroke:black;"/>
                </g>
                <g transform="matrix(41.1801,0,0,41.1801,-18892.2,-24231.3)">
                    <text x="469.337px" y="606.582px" style="font-family:Times;font-size:12px;fill:black;">C</text>
                </g>
                <g transform="matrix(0.851576,0,0,1,137.15,37.4824)">
                    <path d="M309.61,202.155L412.751,220.178L508.109,167.497L591.074,211.663L684.391,156.505L765.976,201.506L848.421,226.051L857.851,196.471L933.288,202.155" style="fill:none;stroke-width:11.84px;stroke:black;"/>
                </g>
                <g transform="matrix(1,0,0,1,-1.37281,126.158)">
                    <path d="M269.458,202.155L374.303,229.189L444.933,177.108L517.109,206.379L559.062,243.348L608.379,187.351L716.597,232.833L807.952,163.466L875.879,215.399L933.288,202.155" style="fill:none;stroke-width:11px;stroke:black;"/>
                </g>
                <g transform="matrix(1,0,0,1,-1.37281,623.279)">
                    <path d="M269.458,202.155L351.912,160.102L415.017,246.757L504.996,205.465L572.318,249.889L629.26,157.658L657.153,187.273L770.559,233.79L825.322,186.807L882.763,173.306L933.288,220.066" style="fill:none;stroke-width:11px;stroke:black;"/>
                </g>
                <g transform="matrix(1,0,0,1,-1.37281,728.411)">
                    <path d="M269.458,202.155L351.957,241.204L403.106,229.929L482.487,167.748L592.578,207.805L710.852,153.378L730.635,214.444L912.137,181.14L933.288,202.155" style="fill:none;stroke-width:11px;stroke:black;"/>
                </g>
                <g transform="matrix(1,0,0,1,-1.37281,815.519)">
                    <path d="M269.458,202.155L380.408,247.317L480.828,185.597L550.297,222.28L622.365,153.041L696.347,256.089L790.285,166L866.978,235.472L933.288,202.155" style="fill:none;stroke-width:11px;stroke:black;"/>
                </g>
                <g transform="matrix(0.860411,0,0,1,128.904,-47.9369)">
                    <path d="M318.038,202.155L353.485,221.679L412.842,194.149L475.618,210.88L617.165,171.435L763.635,241.577L845.756,171.146L933.288,202.155" style="fill:none;stroke-width:11.79px;stroke:black;"/>
                </g>
            </g>
        </g>
        <g id="xor" transform="matrix(0.131414,0,0,0.131414,881.151,891.461)">
            <g id="Layer13">
                <g transform="matrix(1.09721,0,0,1.09721,-199.862,-136.541)">
                    <circle cx="728.994" cy="671.283" r="528.717" style="fill:white;stroke-width:25.52px;stroke:black;"/>
                </g>
                <g transform="matrix(1,0,0,0.924921,16.5207,45.0474)">
                    <path d="M583.479,19.885L583.479,1180.12" style="fill:none;stroke-width:43.6px;stroke-linecap:butt;stroke:black;"/>
                </g>
                <g transform="matrix(6.12323e-17,1,-0.924921,5.66351e-17,1154.95,16.5207)">
                    <path d="M583.479,19.885L583.479,1180.12" style="fill:none;stroke-width:43.6px;stroke-linecap:butt;stroke:black;"/>
                </g>
            </g>
        </g>
    </g>
    <defs>
        <radialGradient id="_Radial1" cx="0" cy="0" r="1" gradientUnits="userSpaceOnUse" gradientTransform="matrix(222.794,-0.15627,0.0815837,62.2017,547.365,352.762)"><stop offset="0%" style="stop-color:white;stop-opacity:1"/><stop offset="100%" style="stop-color:rgb(67,67,67);stop-opacity:1"/></radialGradient>
        <radialGradient id="_Radial2" cx="0" cy="0" r="1" gradientUnits="userSpaceOnUse" gradientTransform="matrix(377.639,143.824,-147.804,388.09,928.597,353.97)"><stop offset="0%" style="stop-color:rgb(255,215,0);stop-opacity:1"/><stop offset="100%" style="stop-color:rgb(255,238,149);stop-opacity:1"/></radialGradient>
        <radialGradient id="_Radial3" cx="0" cy="0" r="1" gradientUnits="userSpaceOnUse" gradientTransform="matrix(222.794,-0.15627,0.0815837,62.2017,547.365,352.762)"><stop offset="0%" style="stop-color:white;stop-opacity:1"/><stop offset="100%" style="stop-color:rgb(67,67,67);stop-opacity:1"/></radialGradient>
        <radialGradient id="_Radial4" cx="0" cy="0" r="1" gradientUnits="userSpaceOnUse" gradientTransform="matrix(222.794,-0.15627,0.0815837,62.2017,547.365,352.762)"><stop offset="0%" style="stop-color:white;stop-opacity:1"/><stop offset="100%" style="stop-color:rgb(67,67,67);stop-opacity:1"/></radialGradient>
        <radialGradient id="_Radial5" cx="0" cy="0" r="1" gradientUnits="userSpaceOnUse" gradientTransform="matrix(222.794,-0.15627,0.0815837,62.2017,547.365,352.762)"><stop offset="0%" style="stop-color:white;stop-opacity:1"/><stop offset="100%" style="stop-color:rgb(44,44,255);stop-opacity:1"/></radialGradient>
    </defs>
</svg>
