<?xml version="1.0" standalone="no"?>
<!DOCTYPE svg PUBLIC "-//W3C//DTD SVG 1.1//EN" "http://www.w3.org/Graphics/SVG/1.1/DTD/svg11.dtd">
<svg width="100%" height="100%" viewBox="0 0 2400 450" version="1.1" xmlns="http://www.w3.org/2000/svg" xmlns:xlink="http://www.w3.org/1999/xlink" xml:space="preserve" style="fill-rule:evenodd;clip-rule:evenodd;stroke-linecap:round;stroke-linejoin:round;stroke-miterlimit:1.41421;">
    <g id="Arrow" transform="matrix(1,0,0,1,240,-750)">
        <g transform="matrix(3.41161,0,0,1.80523,-1689.9,372.77)">
            <path d="M547.959,329.661L547.859,375.77L659.795,367.29L659.824,414.148L708.978,351.387L659.596,289.744L659.647,338.365L547.959,329.661Z" style="fill:url(#_Radial1);"/>
            <path d="M660.243,287.895L709.624,349.538L709.949,350.146L710.127,350.943L710.129,351.808L709.956,352.608L709.634,353.223L660.48,415.984L660.012,416.335L659.51,416.282L659.065,415.836L658.76,415.079L658.651,414.15L658.624,369.596L547.905,377.984L547.441,377.84L547.044,377.364L546.778,376.632L546.686,375.76L546.787,329.651L546.882,328.785L547.149,328.059L547.545,327.587L548.008,327.447L658.472,336.056L658.424,289.749L658.53,288.822L658.832,288.064L659.274,287.614L659.774,287.554L660.243,287.895ZM659.647,338.365L547.959,329.661L547.859,375.77L659.795,367.29L659.824,414.148L708.978,351.387L659.596,289.744L659.647,338.365Z" style="fill:black;"/>
        </g>
        <g transform="matrix(3.42302,0,0,1.80523,-703.809,372.77)">
            <path d="M547.959,329.661L547.859,375.77L659.795,367.29L659.81,414.148L708.978,351.387L659.596,289.744L659.647,338.365L547.959,329.661Z" style="fill:url(#_Radial2);"/>
            <path d="M660.239,287.893L709.621,349.536L709.946,350.145L710.123,350.943L710.125,351.809L709.952,352.61L709.631,353.225L660.463,415.986L659.997,416.335L659.496,416.282L659.053,415.835L658.75,415.078L658.642,414.149L658.627,369.596L547.905,377.984L547.443,377.84L547.047,377.364L546.782,376.632L546.69,375.76L546.791,329.651L546.886,328.785L547.152,328.059L547.547,327.587L548.007,327.447L658.476,336.056L658.428,289.749L658.534,288.822L658.834,288.065L659.274,287.615L659.772,287.554L660.239,287.893ZM659.647,338.365L547.959,329.661L547.859,375.77L659.795,367.29L659.81,414.148L708.978,351.387L659.596,289.744L659.647,338.365Z" style="fill:black;"/>
        </g>
    </g>
    <g id="Layer1" transform="matrix(1,0,0,1,240,-750)">
        <g id="ciphertext" transform="matrix(0.365549,0,0,0.365549,757.011,768.099)">
            <g id="Layer11" transform="matrix(1,0,0,1,-100,0)">
                <g transform="matrix(1.05814,0,0,1.06583,-123.879,-73.7269)">
                    <path d="M1071.59,153.015L492.928,151.663L297.529,332.115L296.621,1111.21L1071.59,1111.21L1071.59,153.015Z" style="fill:white;stroke-width:13.18px;stroke:black;"/>
                </g>
                <g transform="matrix(1,0,0,1.25812,39.8805,-23.1609)">
                    <path d="M360.519,239.868L360.519,89.73L360.519,239.868Z" style="fill:none;stroke-width:12.32px;stroke-linecap:square;stroke:black;"/>
                </g>
                <g transform="matrix(1.22166,0,0,11.8473,-42.9922,-2588.67)">
                    <path d="M362.865,242.347L193.96,242.214L362.865,242.347Z" style="fill:none;stroke-width:1.66px;stroke-linecap:square;stroke:black;"/>
                </g>
                <g transform="matrix(41.1801,0,0,41.1801,-18892.2,-24231.3)">
                    <text x="469.337px" y="606.582px" style="font-family:Times;font-size:12px;fill:black;">C</text>
                </g>
                <g transform="matrix(0.851576,0,0,1,137.15,37.4824)">
                    <path d="M309.61,202.155L412.751,220.178L508.109,167.497L591.074,211.663L684.391,156.505L765.976,201.506L848.421,226.051L857.851,196.471L933.288,202.155" style="fill:none;stroke-width:11.84px;stroke:black;"/>
                </g>
                <g transform="matrix(1,0,0,1,-1.37281,126.158)">
                    <path d="M269.458,202.155L374.303,229.189L444.933,177.108L517.109,206.379L559.062,243.348L608.379,187.351L716.597,232.833L807.952,163.466L875.879,215.399L933.288,202.155" style="fill:none;stroke-width:11px;stroke:black;"/>
                </g>
                <g transform="matrix(1,0,0,1,-1.37281,623.279)">
                    <path d="M269.458,202.155L351.912,160.102L415.017,246.757L504.996,205.465L572.318,249.889L629.26,157.658L657.153,187.273L770.559,233.79L825.322,186.807L882.763,173.306L933.288,220.066" style="fill:none;stroke-width:11px;stroke:black;"/>
                </g>
                <g transform="matrix(1,0,0,1,-1.37281,728.411)">
                    <path d="M269.458,202.155L351.957,241.204L403.106,229.929L482.487,167.748L592.578,207.805L710.852,153.378L730.635,214.444L912.137,181.14L933.288,202.155" style="fill:none;stroke-width:11px;stroke:black;"/>
                </g>
                <g transform="matrix(1,0,0,1,-1.37281,815.519)">
                    <path d="M269.458,202.155L380.408,247.317L480.828,185.597L550.297,222.28L622.365,153.041L696.347,256.089L790.285,166L866.978,235.472L933.288,202.155" style="fill:none;stroke-width:11px;stroke:black;"/>
                </g>
                <g transform="matrix(0.860411,0,0,1,128.904,-47.9369)">
                    <path d="M318.038,202.155L353.485,221.679L412.842,194.149L475.618,210.88L617.165,171.435L763.635,241.577L845.756,171.146L933.288,202.155" style="fill:none;stroke-width:11.79px;stroke:black;"/>
                </g>
            </g>
        </g>
        <g id="key" transform="matrix(0.22162,0,0,0.22162,271.116,875.141)">
            <g id="Layer2" transform="matrix(1,0,0,1,-360,0)">
                <path d="M1026.34,487.029C1024.69,484.556 1027.15,481.125 1027.91,478.249C1029.68,471.477 1032.12,464.893 1033.9,458.123C1041.67,428.63 1045.83,398.701 1046.99,368.114C1057.16,99.603 665.396,-4.313 528.88,238.226C494.669,299.005 480.119,370.524 491.379,439.097C497.389,475.705 510.216,511.526 530.432,542.74C580.034,619.327 677.091,670.38 768.787,660.599C806.06,656.623 808.649,654.868 843.39,646.829C852.572,644.704 875.964,636.278 888.218,640.384C896.802,643.261 898.654,652.222 898.295,660.189C897.851,670.075 895.52,674.141 891.693,683.604C887.893,693.001 881.52,703.202 889.193,712.615C890.905,714.716 892.952,716.57 895.179,718.114C898.153,720.177 901.315,722.041 904.684,723.362C919.386,729.127 930.203,719.945 941.791,712.18C946.33,709.138 950.202,704.616 955.461,703.135C957.678,702.511 959.583,705.247 961.403,706.658C966.105,710.303 970.592,714.226 974.968,718.257C990.346,732.426 1005.7,746.628 1020.65,761.248C1113.79,852.329 1201.98,940.769 1292.64,1034.38C1315.9,1058.39 1337.99,1083.53 1361.42,1107.38C1364.61,1110.63 1375.16,1111.52 1377.92,1111.64C1404.38,1112.8 1416.48,1112.07 1443.05,1108.43C1449.41,1107.56 1465.22,1105.8 1468.11,1097.85C1470.82,1090.42 1470.87,1072.55 1470.8,1068.77C1470.46,1050.03 1469.43,1031.31 1468.26,1012.6C1467.91,1006.87 1461.91,1006.44 1461.23,1001.21C1460.21,993.299 1463.03,976.01 1456.12,969.847C1452.15,966.311 1425.95,966.717 1422.14,961.888C1421.58,961.165 1408.43,912.457 1406.47,906.543C1405.02,902.181 1404,897.431 1401.16,893.822C1399.63,891.877 1396.7,891.492 1394.26,891.053C1386.01,889.566 1375.5,893.666 1369.51,885.597C1361.37,874.617 1369.12,858.322 1358.88,848.262C1342.27,831.925 1313.79,841.419 1294.43,831.184C1286.13,826.795 1286.2,817.037 1284.9,809.25C1283.17,798.903 1282.4,792.626 1273.52,786.491C1256.91,775.01 1231.51,783.375 1217.48,767.189C1201.41,748.65 1206.17,724.505 1200.46,702.542C1197.67,691.785 1188.77,689.275 1178.97,687.529C1174.39,686.713 1166.23,687.471 1164.03,681.547C1159.02,668.018 1163.13,653.232 1159.84,639.471C1158.95,635.753 1155.93,632.881 1153.61,629.84C1139.7,611.596 1098.52,566.181 1093.01,560.07C1087.48,553.935 1133.95,529.608 1108.6,504.274C1085.95,481.634 1059.65,523.384 1053.21,516.343C1038.47,500.234 1026.34,487.029 1026.34,487.029ZM690.093,220.034C734.53,220.034 770.607,254.931 770.607,297.914C770.607,340.898 734.53,375.794 690.093,375.794C645.656,375.794 609.579,340.898 609.579,297.914C609.579,254.931 645.656,220.034 690.093,220.034Z" style="fill:url(#_Radial3);stroke-width:14px;stroke:black;"/>
                <g transform="matrix(0.992631,0,0,0.992708,6.47944,4.12211)">
                    <path d="M879.316,565.256L1419.35,1110.94" style="fill:none;stroke-width:12.09px;stroke:black;"/>
                </g>
                <g transform="matrix(1.00065,0,0,0.967579,46.8327,-22.285)">
                    <path d="M879.316,565.256L1419.35,1110.94" style="fill:none;stroke-width:12.19px;stroke:black;"/>
                </g>
            </g>
        </g>
        <g id="key1" transform="matrix(0.22162,0,0,0.22162,1265.3,875.141)">
            <g id="Layer21" transform="matrix(1,0,0,1,-360,0)">
                <path d="M1026.34,487.029C1024.69,484.556 1027.15,481.125 1027.91,478.249C1029.68,471.477 1032.12,464.893 1033.9,458.123C1041.67,428.63 1045.83,398.701 1046.99,368.114C1057.16,99.603 665.396,-4.313 528.88,238.226C494.669,299.005 480.119,370.524 491.379,439.097C497.389,475.705 510.216,511.526 530.432,542.74C580.034,619.327 677.091,670.38 768.787,660.599C806.06,656.623 808.649,654.868 843.39,646.829C852.572,644.704 875.964,636.278 888.218,640.384C896.802,643.261 898.654,652.222 898.295,660.189C897.851,670.075 895.52,674.141 891.693,683.604C887.893,693.001 881.52,703.202 889.193,712.615C890.905,714.716 892.952,716.57 895.179,718.114C898.153,720.177 901.315,722.041 904.684,723.362C919.386,729.127 930.203,719.945 941.791,712.18C946.33,709.138 950.202,704.616 955.461,703.135C957.678,702.511 959.583,705.247 961.403,706.658C966.105,710.303 970.592,714.226 974.968,718.257C990.346,732.426 1005.7,746.628 1020.65,761.248C1113.79,852.329 1201.98,940.769 1292.64,1034.38C1315.9,1058.39 1337.99,1083.53 1361.42,1107.38C1364.61,1110.63 1375.16,1111.52 1377.92,1111.64C1404.38,1112.8 1416.48,1112.07 1443.05,1108.43C1449.41,1107.56 1465.22,1105.8 1468.11,1097.85C1470.82,1090.42 1470.87,1072.55 1470.8,1068.77C1470.46,1050.03 1469.43,1031.31 1468.26,1012.6C1467.91,1006.87 1461.91,1006.44 1461.23,1001.21C1460.21,993.299 1463.03,976.01 1456.12,969.847C1452.15,966.311 1425.95,966.717 1422.14,961.888C1421.58,961.165 1408.43,912.457 1406.47,906.543C1405.02,902.181 1404,897.431 1401.16,893.822C1399.63,891.877 1396.7,891.492 1394.26,891.053C1386.01,889.566 1375.5,893.666 1369.51,885.597C1361.37,874.617 1369.12,858.322 1358.88,848.262C1342.27,831.925 1313.79,841.419 1294.43,831.184C1286.13,826.795 1286.2,817.037 1284.9,809.25C1283.17,798.903 1282.4,792.626 1273.52,786.491C1256.91,775.01 1231.51,783.375 1217.48,767.189C1201.41,748.65 1206.17,724.505 1200.46,702.542C1197.67,691.785 1188.77,689.275 1178.97,687.529C1174.39,686.713 1166.23,687.471 1164.03,681.547C1159.02,668.018 1163.13,653.232 1159.84,639.471C1158.95,635.753 1155.93,632.881 1153.61,629.84C1139.7,611.596 1098.52,566.181 1093.01,560.07C1087.48,553.935 1133.95,529.608 1108.6,504.274C1085.95,481.634 1059.65,523.384 1053.21,516.343C1038.47,500.234 1026.34,487.029 1026.34,487.029ZM690.093,220.034C734.53,220.034 770.607,254.931 770.607,297.914C770.607,340.898 734.53,375.794 690.093,375.794C645.656,375.794 609.579,340.898 609.579,297.914C609.579,254.931 645.656,220.034 690.093,220.034Z" style="fill:url(#_Radial4);stroke-width:14px;stroke:black;"/>
                <g transform="matrix(0.992631,0,0,0.992708,6.47944,4.12211)">
                    <path d="M879.316,565.256L1419.35,1110.94" style="fill:none;stroke-width:12.09px;stroke:black;"/>
                </g>
                <g transform="matrix(1.00065,0,0,0.967579,46.8327,-22.285)">
                    <path d="M879.316,565.256L1419.35,1110.94" style="fill:none;stroke-width:12.19px;stroke:black;"/>
                </g>
            </g>
        </g>
        <g id="message" transform="matrix(0.365549,0,0,0.365549,-240,768.099)">
            <g id="Layer12" transform="matrix(1,0,0,1,-100,0)">
                <g transform="matrix(1.05814,0,0,1.06583,-123.879,-73.7269)">
                    <path d="M1071.59,153.015L492.928,151.663L297.529,332.115L296.621,1111.21L1071.59,1111.21L1071.59,153.015Z" style="fill:white;stroke-width:13.18px;stroke:black;"/>
                </g>
                <g transform="matrix(1,0,0,1.25812,39.8805,-23.1609)">
                    <path d="M360.519,239.868L360.519,89.73L360.519,239.868Z" style="fill:none;stroke-width:12.32px;stroke-linecap:square;stroke:black;"/>
                </g>
                <g transform="matrix(1.22166,0,0,11.8473,-42.9922,-2588.67)">
                    <path d="M362.865,242.347L193.96,242.214L362.865,242.347Z" style="fill:none;stroke-width:1.66px;stroke-linecap:square;stroke:black;"/>
                </g>
                <g transform="matrix(41.1801,0,0,41.1801,-18864.8,-24231.3)">
                    <text x="469.337px" y="606.582px" style="font-family:Times;font-size:12px;fill:black;">P</text>
                </g>
                <g transform="matrix(0.851576,0,0,1,137.15,37.4824)">
                    <path d="M309.61,202.155L933.288,202.155" style="fill:none;stroke-width:11.84px;stroke:black;"/>
                </g>
                <g transform="matrix(1,0,0,1,-1.37281,126.158)">
                    <path d="M269.458,202.155L933.288,202.155" style="fill:none;stroke-width:11px;stroke:black;"/>
                </g>
                <g transform="matrix(1,0,0,1,-1.37281,632.29)">
                    <path d="M269.458,202.155L933.288,202.155" style="fill:none;stroke-width:11px;stroke:black;"/>
                </g>
                <g transform="matrix(1,0,0,1,-1.37281,728.411)">
                    <path d="M269.458,202.155L933.288,202.155" style="fill:none;stroke-width:11px;stroke:black;"/>
                </g>
                <g transform="matrix(1,0,0,1,-1.37281,815.519)">
                    <path d="M269.458,202.155L933.288,202.155" style="fill:none;stroke-width:11px;stroke:black;"/>
                </g>
                <g transform="matrix(0.860411,0,0,1,128.904,-47.9369)">
                    <path d="M318.038,202.155L933.288,202.155" style="fill:none;stroke-width:11.79px;stroke:black;"/>
                </g>
            </g>
        </g>
        <g id="message1" transform="matrix(0.365549,0,0,0.365549,1762.3,768.099)">
            <g id="Layer13" transform="matrix(1,0,0,1,-100,0)">
                <g transform="matrix(1.05814,0,0,1.06583,-123.879,-73.7269)">
                    <path d="M1071.59,153.015L492.928,151.663L297.529,332.115L296.621,1111.21L1071.59,1111.21L1071.59,153.015Z" style="fill:white;stroke-width:13.18px;stroke:black;"/>
                </g>
                <g transform="matrix(1,0,0,1.25812,39.8805,-23.1609)">
                    <path d="M360.519,239.868L360.519,89.73L360.519,239.868Z" style="fill:none;stroke-width:12.32px;stroke-linecap:square;stroke:black;"/>
                </g>
                <g transform="matrix(1.22166,0,0,11.8473,-42.9922,-2588.67)">
                    <path d="M362.865,242.347L193.96,242.214L362.865,242.347Z" style="fill:none;stroke-width:1.66px;stroke-linecap:square;stroke:black;"/>
                </g>
                <g transform="matrix(41.1801,0,0,41.1801,-18864.8,-24231.3)">
                    <text x="469.337px" y="606.582px" style="font-family:Times;font-size:12px;fill:black;">P</text>
                </g>
                <g transform="matrix(0.851576,0,0,1,137.15,37.4824)">
                    <path d="M309.61,202.155L933.288,202.155" style="fill:none;stroke-width:11.84px;stroke:black;"/>
                </g>
                <g transform="matrix(1,0,0,1,-1.37281,126.158)">
                    <path d="M269.458,202.155L933.288,202.155" style="fill:none;stroke-width:11px;stroke:black;"/>
                </g>
                <g transform="matrix(1,0,0,1,-1.37281,632.29)">
                    <path d="M269.458,202.155L933.288,202.155" style="fill:none;stroke-width:11px;stroke:black;"/>
                </g>
                <g transform="matrix(1,0,0,1,-1.37281,728.411)">
                    <path d="M269.458,202.155L933.288,202.155" style="fill:none;stroke-width:11px;stroke:black;"/>
                </g>
                <g transform="matrix(1,0,0,1,-1.37281,815.519)">
                    <path d="M269.458,202.155L933.288,202.155" style="fill:none;stroke-width:11px;stroke:black;"/>
                </g>
                <g transform="matrix(0.860411,0,0,1,128.904,-47.9369)">
                    <path d="M318.038,202.155L933.288,202.155" style="fill:none;stroke-width:11.79px;stroke:black;"/>
                </g>
            </g>
        </g>
    </g>
    <defs>
        <radialGradient id="_Radial1" cx="0" cy="0" r="1" gradientUnits="userSpaceOnUse" gradientTransform="matrix(222.794,-0.15627,0.0815837,62.2017,547.365,352.762)"><stop offset="0%" style="stop-color:white;stop-opacity:1"/><stop offset="100%" style="stop-color:rgb(255,44,45);stop-opacity:1"/></radialGradient>
        <radialGradient id="_Radial2" cx="0" cy="0" r="1" gradientUnits="userSpaceOnUse" gradientTransform="matrix(222.794,-0.15627,0.0815837,62.2017,547.365,352.762)"><stop offset="0%" style="stop-color:white;stop-opacity:1"/><stop offset="100%" style="stop-color:rgb(44,44,255);stop-opacity:1"/></radialGradient>
        <radialGradient id="_Radial3" cx="0" cy="0" r="1" gradientUnits="userSpaceOnUse" gradientTransform="matrix(377.639,143.824,-147.804,388.09,928.597,353.97)"><stop offset="0%" style="stop-color:rgb(255,215,0);stop-opacity:1"/><stop offset="100%" style="stop-color:rgb(255,238,149);stop-opacity:1"/></radialGradient>
        <radialGradient id="_Radial4" cx="0" cy="0" r="1" gradientUnits="userSpaceOnUse" gradientTransform="matrix(377.639,143.824,-147.804,388.09,928.597,353.97)"><stop offset="0%" style="stop-color:rgb(255,215,0);stop-opacity:1"/><stop offset="100%" style="stop-color:rgb(255,238,149);stop-opacity:1"/></radialGradient>
    </defs>
</svg>
