<?xml version="1.0" standalone="no"?><!DOCTYPE svg PUBLIC "-//W3C//DTD SVG 1.1//EN" "http://www.w3.org/Graphics/SVG/1.1/DTD/svg11.dtd"><svg width="100%" height="100%" viewBox="0 0 1320 360" version="1.1" xmlns="http://www.w3.org/2000/svg" xmlns:xlink="http://www.w3.org/1999/xlink" xml:space="preserve" style="fill-rule:evenodd;clip-rule:evenodd;stroke-linecap:round;stroke-linejoin:round;stroke-miterlimit:1.41421;"><g id="Layer1"><path id="Lower Body" d="M145.773,287.036c-38.105,-9.575 -71.339,-9.979 -111.491,-0.169c-8.187,32.102 4.645,55.167 4.645,55.167c24.333,13.144 79.641,12.79 104.018,-0.411c0,0 12.021,-24.48 2.828,-54.587Z" style="fill:url(#_Radial1);stroke-width:4.12px;stroke:#000;"/><path id="Upper Body" d="M42.082,177.347c-0.989,-0.466 -11.687,5.219 -14.953,10.41c-18.955,30.13 -15.126,84.6 -14.616,85.652c14.369,29.673 145.762,27.557 155.225,1.513c5.571,-15.331 2.154,-74.358 -8.727,-89.581c-5.963,-8.343 -85.39,-24.753 -116.929,-7.994Z" style="fill:url(#_Radial2);stroke-width:4.12px;stroke:#000;"/><path id="Collar" d="M42.171,152.128c-2.13,0.17 -21.114,7.375 -19.616,11.121c0.584,1.458 7.526,0.664 7.726,1.058c0.061,0.12 -5.987,6.601 -2.119,10.354c9.013,8.745 25.094,0.054 26.096,2.069c3.664,7.374 23.275,10.899 31.357,7.009c8.962,-4.313 11.585,-4.607 15.751,-4.514c4.619,0.104 9.199,5.605 18.128,4.514c6.701,-0.818 7.64,-4.582 17.165,-2.231c19.084,4.709 22.507,-5.362 9.361,-12.774c-1.402,-0.79 3.092,0.861 7.661,-3.698c1.159,-1.156 0.352,-7.245 -14.242,-9.324" style="fill:url(#_Radial3);stroke-width:4.12px;stroke:#000;"/><path id="Hair" d="M25.616,117.56c-52.08,-52.306 17.567,-114.806 62.466,-95.168c6.348,2.776 36.307,-20.763 63.528,5.719c28.794,28.012 10.786,53.792 8.173,55.5" style="fill:url(#_Radial4);stroke-width:4.12px;stroke:#000;"/><path id="Face" d="M39.468,66.387c-39.332,33.957 -8.039,101.562 48.563,102.244c12.927,0.155 46.29,2.784 65.517,-31.561c14.99,-26.775 10.481,-56.878 -4.953,-68.906c-1.19,-0.927 -10.619,9.448 -22.475,10.372c-15.407,1.201 -26.965,-9.493 -26.978,-9.47c-4.931,8.608 -26.512,12.148 -35.179,10.509c-15.829,-2.994 -23.535,-13.364 -24.495,-13.188Z" style="fill:url(#_Radial5);stroke-width:4.12px;stroke:#000;"/><path id="Nose" d="M79.592,115.746c5.077,-8.01 20.49,-5.738 25.339,-1.042" style="fill:none;stroke-width:4.12px;stroke:#000;"/><path id="Left Smile" d="M62.361,140.026c3.085,-5.006 6.609,-8.285 11.41,-9.928" style="fill:none;stroke-width:4.12px;stroke:#000;"/><path id="Lower Smile" d="M68.978,134.891c14.301,13.409 39.337,7.507 45.222,0.569" style="fill:none;stroke-width:4.12px;stroke:#000;"/><path id="Right Smile" d="M111.5,128.768c2.855,3.396 3.838,6.454 2.7,13.073" style="fill:none;stroke-width:4.12px;stroke:#000;"/><ellipse cx="64.945" cy="95.743" rx="6.157" ry="8.049" style="fill:#000;stroke-width:4.12px;stroke:#000;"/><ellipse cx="117.651" cy="95.743" rx="6.157" ry="8.049" style="fill:#000;stroke-width:4.12px;stroke:#000;"/></g><g id="Layer11"><path id="Lower Body1" d="M1181.59,287.033c-3.888,19.416 0.991,56.016 4.237,57.222c38.726,14.394 80.738,11.193 103.618,-1.518c2.7,-1.5 6.663,-25.012 4.355,-56.459c-36.113,13.518 -70.694,13.616 -112.21,0.755Z" style="fill:url(#_Radial6);stroke-width:4.12px;stroke-miterlimit:1;stroke:#000;"/><path id="Upper Body1" d="M1195.85,182.255c-4.294,-1.54 -35.89,7.794 -37.762,16.158c-4.145,18.525 -2.72,74.489 6.39,80.032c25.616,15.584 88.032,29.692 139.449,2.443c2.832,-1.501 10.38,-42.289 5.496,-84.028c-0.604,-5.159 -45.13,-17.929 -48.71,-15.581l-64.863,0.976Z" style="fill:url(#_Radial7);stroke-width:4.12px;stroke-miterlimit:1;stroke:#000;"/><path id="Face1" d="M1285.24,95.07c-4.967,6.689 -101.596,2.894 -102.972,4.627c-3.812,4.8 -18.557,93.627 48.045,95.555c77.867,2.253 57.34,-103.433 54.927,-100.182Z" style="fill:url(#_Linear8);stroke-width:4.12px;stroke-miterlimit:1;stroke:#000;"/><path id="Cowboy Hat" d="M1151.23,76.648c-2.772,0.499 -1.083,21.964 40.641,35.157c55,17.391 119.459,-14.726 124.648,-47.525c0.233,-1.474 -2.884,-1.403 -7.835,-0.636c-10.346,1.604 -20.84,6.541 -20.886,5.314c-3.439,-91.291 -52.803,-48.361 -57.053,-47.662c-2.48,0.408 -8.377,-9.976 -20.904,-8.43c-36.097,4.455 -27.01,62.606 -28.018,62.636c-6.696,0.203 -16.153,-1.452 -30.593,1.146Z" style="fill:url(#_Radial9);stroke-width:4.12px;stroke-miterlimit:1;stroke:#000;"/><path id="Right Eye" d="M1257.87,123.657c4.158,0.038 7.495,4.212 7.449,9.314c-0.047,5.102 -3.46,9.214 -7.618,9.176c-4.157,-0.038 -7.495,-4.211 -7.448,-9.314c0.047,-5.102 3.46,-9.214 7.617,-9.176Z" style="fill:#000;stroke-width:4.12px;stroke:#000;"/><path id="Left Eye" d="M1207.67,123.657c4.158,-0.033 7.566,4.082 7.607,9.184c0.042,5.103 -3.3,9.272 -7.458,9.306c-4.157,0.033 -7.566,-4.082 -7.607,-9.184c-0.041,-5.102 3.301,-9.272 7.458,-9.306Z" style="fill:#000;stroke-width:4.12px;stroke:#000;"/><path id="Nose1" d="M1222.74,149.524c2.766,-3.198 9.703,-9.96 18.611,-1.769" style="fill:none;stroke-width:4.12px;stroke-miterlimit:1;stroke:#000;"/><path id="Smile" d="M1203.34,171.466c0.795,-0.35 4.01,-1.694 7.161,-4.307c3.777,-3.132 5.525,-6 5.556,-5.976c0.034,0.026 -5.404,6.852 -5.404,6.852c0,0 9.492,5.322 21.39,5.24c11.898,-0.083 21.801,-6.186 21.633,-5.954c-2.577,3.565 -8.837,10.424 -21.633,10.422c-12.796,-0.001 -19.823,-8.757 -21.762,-9.377l-6.941,3.1Z" style="fill:#000;stroke-width:4.12px;stroke:#000;"/><path id="Chest Line" d="M1158.72,196.922c25.107,13.813 54.238,21.959 77.359,20.984c42.151,-1.777 65.235,-16.287 71.391,-20.71" style="fill:none;stroke-width:4.12px;stroke-miterlimit:1;stroke:#000;"/><path d="M1234.81,19.078c-4.079,2.454 -9.323,5.689 -16.185,12.944" style="fill:none;stroke-width:4.12px;stroke:#000;"/><path d="M1316.53,63.644c-5.054,7.615 -34.095,25.017 -46.118,26.541" style="fill:none;stroke-width:4.12px;stroke:#000;"/><path d="M1287.77,67.332c-0.042,3.648 0.016,9.768 -0.929,15.213" style="fill:none;stroke-width:4.12px;stroke:#000;"/><path d="M1181.92,74.938c0,1.954 0.908,6.492 1.123,7.607" style="fill:none;stroke-width:4.12px;stroke:#000;"/></g><path d="M206.141,155.781l0,27.2l902.528,-9.182l0,8.768l25.711,-14.124l-25.711,-13.934l0,10.754l-902.528,-9.482Z" style="fill:url(#_Radial10);"/><path d="M1110.1,151.872l25.711,13.933l0.967,0.832l0.533,1.159l0.004,1.276l-0.527,1.162l-0.962,0.838l-25.711,14.124l-1.181,0.359l-1.226,-0.147l-1.063,-0.629l-0.72,-1.004l-0.254,-1.208l0,-5.737l-899.498,9.151l-1.157,-0.219l-0.984,-0.649l-0.658,-0.977l-0.231,-1.155l0,-27.2l0.231,-1.155l0.659,-0.977l0.984,-0.648l1.157,-0.219l899.497,9.449l0,-7.722l0.253,-1.205l0.716,-1.003l1.058,-0.63l1.222,-0.152l1.18,0.353ZM1108.67,165.263l-902.528,-9.482l0,27.2l902.528,-9.182l0,8.768l25.711,-14.124l-25.711,-13.934l0,10.754Z" style="fill:#000;"/><g id="Layer12"><path d="M752.557,83.006l-131.055,0.006l-0.002,163.214l131.057,0l0,-163.22Z" style="fill:#fff;stroke-width:2.24px;stroke:#000;"/><path d="M630.788,109.171l14.477,-7.847l12.249,9.751l11.717,-4.785l12.978,8.42l11.291,-7.059l12.701,8.815l11.103,-7.192l11.221,-3.923l1.283,4.728l10.267,-0.908" style="fill:none;stroke-width:1.76px;stroke:#000;"/><path d="M630.788,89.71l11.298,6.956l10.693,-2.259l9.247,4.594l11.535,-4.678l6.705,-5.908l7.882,8.949l17.296,-7.268l14.6,11.086l10.856,-8.3l9.175,2.116" style="fill:none;stroke-width:1.76px;stroke:#000;"/><path d="M633.982,232.877l13.178,6.721l10.085,-13.85l14.38,6.6l10.76,-7.1l9.1,14.74l4.458,-4.733l18.125,-7.434l8.752,7.509l9.18,2.158l8.075,-7.474" style="fill:none;stroke-width:1.76px;stroke:#000;"/><path d="M633.982,216.075l13.185,-6.241l8.174,1.802l12.687,9.938l17.595,-6.402l18.902,8.698l3.162,-9.759l29.008,5.322l3.38,-3.358" style="fill:none;stroke-width:1.76px;stroke:#000;"/><path d="M633.982,202.153l17.732,-7.218l16.049,9.864l11.102,-5.862l11.518,11.065l11.824,-16.469l15.013,14.398l12.258,-11.103l10.597,5.325" style="fill:none;stroke-width:1.76px;stroke:#000;"/><path d="M630.793,126.532l12.939,-7.798l16.066,5.852l13.31,-6.707l8.134,6.862l15.363,2.991l13.529,-3.762l6.612,-7.448l11.292,11.256l12.037,-4.956" style="fill:none;stroke-width:1.76px;stroke:#000;"/><text x="630.612px" y="173.91px" style="font-family:Times;font-size:41.309px;fill:#000;">MS+H</text></g><defs><radialGradient id="_Radial1" cx="0" cy="0" r="1" gradientUnits="userSpaceOnUse" gradientTransform="matrix(115.916,-49.5556,29.2792,68.4872,37.7403,335.923)"><stop offset="0%" style="stop-color:#d3799a;stop-opacity:1"/><stop offset="100%" style="stop-color:#c24774;stop-opacity:1"/></radialGradient><radialGradient id="_Radial2" cx="0" cy="0" r="1" gradientUnits="userSpaceOnUse" gradientTransform="matrix(150.759,-88.2567,38.0801,121.973,21.4653,267.627)"><stop offset="0%" style="stop-color:#d3799a;stop-opacity:1"/><stop offset="100%" style="stop-color:#c24774;stop-opacity:1"/></radialGradient><radialGradient id="_Radial3" cx="0" cy="0" r="1" gradientUnits="userSpaceOnUse" gradientTransform="matrix(120.305,-22.5483,30.3877,31.1624,30.3877,178.338)"><stop offset="0%" style="stop-color:#cda3ca;stop-opacity:1"/><stop offset="100%" style="stop-color:#b87db4;stop-opacity:1"/></radialGradient><radialGradient id="_Radial4" cx="0" cy="0" r="1" gradientUnits="userSpaceOnUse" gradientTransform="matrix(152.292,-69.2397,38.4674,95.6913,15.4466,95.8778)"><stop offset="0%" style="stop-color:#a75216;stop-opacity:1"/><stop offset="100%" style="stop-color:#854000;stop-opacity:1"/></radialGradient><radialGradient id="_Radial5" cx="0" cy="0" r="1" gradientUnits="userSpaceOnUse" gradientTransform="matrix(137.137,-69.4853,34.6394,96.0307,25.6156,147.155)"><stop offset="0%" style="stop-color:#ffd9b8;stop-opacity:1"/><stop offset="100%" style="stop-color:#ffcd9e;stop-opacity:1"/></radialGradient><radialGradient id="_Radial6" cx="0" cy="0" r="1" gradientUnits="userSpaceOnUse" gradientTransform="matrix(100.984,-94.9899,76.6556,52.1023,1271.63,313.617)"><stop offset="0%" style="stop-color:#2531dc;stop-opacity:1"/></radialGradient><radialGradient id="_Radial7" cx="0" cy="0" r="1" gradientUnits="userSpaceOnUse" gradientTransform="matrix(164.717,-102.935,76.4922,122.404,1281.41,228.415)"><stop offset="0%" style="stop-color:#2531dc;stop-opacity:1"/></radialGradient><linearGradient id="_Linear8" x1="0" y1="0" x2="1" y2="0" gradientUnits="userSpaceOnUse" gradientTransform="matrix(120.281,-73.2632,73.2632,120.281,1175.99,168.149)"><stop offset="0%" style="stop-color:#dbbb9c;stop-opacity:1"/><stop offset="56%" style="stop-color:#d0a67c;stop-opacity:1"/><stop offset="100%" style="stop-color:#cb9d6e;stop-opacity:1"/></linearGradient><radialGradient id="_Radial9" cx="0" cy="0" r="1" gradientUnits="userSpaceOnUse" gradientTransform="matrix(-120.74,67.9447,-43.1509,-76.6803,1284.04,32.5478)"><stop offset="0%" style="stop-color:#d7c447;stop-opacity:1"/><stop offset="100%" style="stop-color:#e6d38c;stop-opacity:1"/></radialGradient><radialGradient id="_Radial10" cx="0" cy="0" r="1" gradientUnits="userSpaceOnUse" gradientTransform="matrix(1283.91,-0.17224,0.470149,68.5583,203.04,169.439)"><stop offset="0%" style="stop-color:#c9c9c9;stop-opacity:1"/><stop offset="100%" style="stop-color:#707070;stop-opacity:1"/></radialGradient></defs></svg>